<svg xmlns="http://www.w3.org/2000/svg" viewBox="0 0 32 32" width="32" height="32">
<defs><filter id="g"><feGaussianBlur stdDeviation="1.5"/></filter></defs>
<circle cx="16" cy="16" r="6" fill="none" stroke="#a855f7" stroke-width="2"/><rect x="15" y="2" width="2" height="6" rx="1" fill="#a855f7" transform="rotate(0 16 16)"/><rect x="15" y="2" width="2" height="6" rx="1" fill="#a855f7" transform="rotate(45 16 16)"/><rect x="15" y="2" width="2" height="6" rx="1" fill="#a855f7" transform="rotate(90 16 16)"/><rect x="15" y="2" width="2" height="6" rx="1" fill="#a855f7" transform="rotate(135 16 16)"/><rect x="15" y="2" width="2" height="6" rx="1" fill="#a855f7" transform="rotate(180 16 16)"/><rect x="15" y="2" width="2" height="6" rx="1" fill="#a855f7" transform="rotate(225 16 16)"/><rect x="15" y="2" width="2" height="6" rx="1" fill="#a855f7" transform="rotate(270 16 16)"/><rect x="15" y="2" width="2" height="6" rx="1" fill="#a855f7" transform="rotate(315 16 16)"/>
</svg>