<svg xmlns="http://www.w3.org/2000/svg" viewBox="0 0 300 300" width="300" height="300">
  <defs>
    <radialGradient id="bgMain" cx="50%" cy="50%" r="70%">
      <stop offset="0%" stop-color="#0d0d28"/>
      <stop offset="100%" stop-color="#020208"/>
    </radialGradient>
  </defs>
  <rect width="300" height="300" fill="url(#bgMain)"/>
  <g opacity="0.5">
    <circle cx="246.4" cy="222.2" r="1.1" fill="white" opacity="0.46"/>
    <circle cx="153.2" cy="123.4" r="1.7" fill="white" opacity="0.48"/>
    <circle cx="143.4" cy="173.3" r="1.9" fill="white" opacity="0.60"/>
    <circle cx="88.9" cy="221.6" r="1.4" fill="white" opacity="0.45"/>
    <circle cx="264.7" cy="285.2" r="1.7" fill="white" opacity="0.84"/>
    <circle cx="96.8" cy="214.4" r="1.8" fill="white" opacity="0.71"/>
    <circle cx="142.2" cy="38.2" r="1.2" fill="white" opacity="0.67"/>
    <circle cx="265.6" cy="280.6" r="1.2" fill="white" opacity="0.82"/>
    <circle cx="82.9" cy="235.4" r="1.3" fill="white" opacity="0.31"/>
    <circle cx="211.5" cy="121.7" r="1.7" fill="white" opacity="0.70"/>
    <circle cx="10.3" cy="148.2" r="1.8" fill="white" opacity="0.45"/>
    <circle cx="101.1" cy="253.7" r="0.8" fill="white" opacity="0.64"/>
    <circle cx="76.8" cy="280.9" r="1.7" fill="white" opacity="0.57"/>
    <circle cx="32.5" cy="99.6" r="1.3" fill="white" opacity="0.86"/>
    <circle cx="40.5" cy="164.4" r="1.6" fill="white" opacity="0.63"/>
    <circle cx="238.1" cy="161.3" r="1.9" fill="white" opacity="0.66"/>
    <circle cx="174.5" cy="134.6" r="1.4" fill="white" opacity="0.53"/>
    <circle cx="171.2" cy="91.3" r="0.8" fill="white" opacity="0.41"/>
    <circle cx="181.6" cy="193.9" r="1.2" fill="white" opacity="0.35"/>
    <circle cx="222.1" cy="255.5" r="1.9" fill="white" opacity="0.81"/>
    <circle cx="261.5" cy="268.5" r="1.3" fill="white" opacity="0.53"/>
    <circle cx="207.5" cy="87.2" r="1.7" fill="white" opacity="0.81"/>
    <circle cx="260.6" cy="175.1" r="1.9" fill="white" opacity="0.65"/>
    <circle cx="136.2" cy="194.9" r="2.0" fill="white" opacity="0.85"/>
    <circle cx="232.1" cy="33.1" r="1.4" fill="white" opacity="0.59"/>
    <circle cx="186.4" cy="246.6" r="0.9" fill="white" opacity="0.74"/>
    <circle cx="42.8" cy="71.7" r="1.7" fill="white" opacity="0.50"/>
    <circle cx="238.5" cy="38.2" r="0.7" fill="white" opacity="0.72"/>
    <circle cx="22.7" cy="170.7" r="1.9" fill="white" opacity="0.62"/>
    <circle cx="200.6" cy="17.5" r="1.5" fill="white" opacity="0.66"/>
    <circle cx="171.3" cy="119.5" r="1.1" fill="white" opacity="0.89"/>
    <circle cx="20.2" cy="16.1" r="1.9" fill="white" opacity="0.41"/>
    <circle cx="44.7" cy="69.0" r="1.7" fill="white" opacity="0.86"/>
    <circle cx="16.4" cy="129.2" r="0.7" fill="white" opacity="0.46"/>
    <circle cx="71.8" cy="191.1" r="1.0" fill="white" opacity="0.41"/>
  </g>
  <defs>
    <linearGradient id="wgL" x1="0" y1="0" x2="1" y2="0">
      <stop offset="0%" stop-color="#a855f7" stop-opacity="1"/>
      <stop offset="50%" stop-color="#7c3aed" stop-opacity="1"/>
      <stop offset="100%" stop-color="#0a0a18" stop-opacity="0.3"/>
    </linearGradient>
    <linearGradient id="wgR" x1="1" y1="0" x2="0" y2="0">
      <stop offset="0%" stop-color="#a855f7" stop-opacity="1"/>
      <stop offset="50%" stop-color="#7c3aed" stop-opacity="1"/>
      <stop offset="100%" stop-color="#0a0a18" stop-opacity="0.3"/>
    </linearGradient>
    <radialGradient id="wglow" cx="150" cy="165" r="90" gradientUnits="userSpaceOnUse">
      <stop offset="0%" stop-color="rgba(168,85,247,0.7)"/>
      <stop offset="100%" stop-color="transparent"/>
    </radialGradient>
    <filter id="wf" x="-40%" y="-40%" width="180%" height="180%">
      <feGaussianBlur in="SourceGraphic" stdDeviation="12" result="blur"/>
      <feColorMatrix in="blur" type="matrix" values="1 0 0 0 0  0 1 0 0 0  0 0 1 0 0  0 0 0 2.5 0" result="glow"/>
      <feMerge><feMergeNode in="glow"/><feMergeNode in="SourceGraphic"/></feMerge>
    </filter>
  </defs>
  <circle cx="150" cy="165" r="90" fill="url(#wglow)" opacity="0.4"/>
  <polygon points="150,165 54.6,144.8 63.9,124.9 73.2,104.9" fill="url(#wgL)" opacity="0.90" filter="url(#wf)"/>
  <polygon points="150,165 226.8,104.9 236.1,124.9 245.4,144.8" fill="url(#wgR)" opacity="0.90" filter="url(#wf)"/>
  <polygon points="150,165 65.6,177.2 67.3,157.8 69.0,138.3" fill="url(#wgL)" opacity="0.82" filter="url(#wf)"/>
  <polygon points="150,165 231.0,138.3 232.7,157.8 234.4,177.2" fill="url(#wgR)" opacity="0.82" filter="url(#wf)"/>
  <polygon points="150,165 85.8,199.8 81.4,183.4 77.0,167.0" fill="url(#wgL)" opacity="0.74" filter="url(#wf)"/>
  <polygon points="150,165 223.0,167.0 218.6,183.4 214.2,199.8" fill="url(#wgR)" opacity="0.74" filter="url(#wf)"/>
  <polygon points="150,165 110.0,210.7 101.7,198.8 93.4,187.0" fill="url(#wgL)" opacity="0.66" filter="url(#wf)"/>
  <polygon points="150,165 206.6,187.0 198.3,198.8 190.0,210.7" fill="url(#wgR)" opacity="0.66" filter="url(#wf)"/>
  <polygon points="150,165 132.9,210.4 123.0,203.5 113.2,196.6" fill="url(#wgL)" opacity="0.58" filter="url(#wf)"/>
  <polygon points="150,165 186.8,196.6 177.0,203.5 167.1,210.4" fill="url(#wgR)" opacity="0.58" filter="url(#wf)"/>
  <polygon points="150,165 150.1,201.3 140.9,198.8 131.8,196.3" fill="url(#wgL)" opacity="0.50" filter="url(#wf)"/>
  <polygon points="150,165 168.2,196.3 159.1,198.8 149.9,201.3" fill="url(#wgR)" opacity="0.50" filter="url(#wf)"/>
  <rect x="0" y="265" width="300" height="35" fill="#050510" opacity="0.85"/>
  <text x="150" y="281" text-anchor="middle" font-family="Arial,sans-serif" font-size="11" font-weight="bold" fill="#ef4444">Aether Wings</text>
  <text x="150" y="294" text-anchor="middle" font-family="Arial,sans-serif" font-size="9" fill="#ef4444">MYTHIC</text>
  <rect x="1" y="1" width="298" height="298" rx="10" fill="none" stroke="#ef4444" stroke-width="2" opacity="0.5"/>
</svg>
