<svg xmlns="http://www.w3.org/2000/svg" viewBox="0 0 300 300" width="300" height="300">
  <defs>
    <radialGradient id="bgMain" cx="50%" cy="50%" r="70%">
      <stop offset="0%" stop-color="#0d0d28"/>
      <stop offset="100%" stop-color="#020208"/>
    </radialGradient>
  </defs>
  <rect width="300" height="300" fill="url(#bgMain)"/>
  <g opacity="0.5">
    <circle cx="163.5" cy="46.9" r="1.6" fill="white" opacity="0.48"/>
    <circle cx="272.7" cy="64.0" r="1.6" fill="white" opacity="0.40"/>
    <circle cx="280.5" cy="254.6" r="0.7" fill="white" opacity="0.69"/>
    <circle cx="71.1" cy="153.2" r="1.8" fill="white" opacity="0.39"/>
    <circle cx="70.8" cy="30.5" r="0.6" fill="white" opacity="0.60"/>
    <circle cx="55.6" cy="46.1" r="1.5" fill="white" opacity="0.48"/>
    <circle cx="104.9" cy="104.6" r="1.8" fill="white" opacity="0.46"/>
    <circle cx="191.5" cy="272.0" r="1.4" fill="white" opacity="0.47"/>
    <circle cx="48.7" cy="192.8" r="0.8" fill="white" opacity="0.54"/>
    <circle cx="238.3" cy="229.1" r="0.9" fill="white" opacity="0.52"/>
    <circle cx="90.9" cy="91.6" r="1.2" fill="white" opacity="0.37"/>
    <circle cx="42.2" cy="51.1" r="1.0" fill="white" opacity="0.62"/>
    <circle cx="99.4" cy="130.5" r="1.7" fill="white" opacity="0.77"/>
    <circle cx="128.2" cy="258.2" r="0.5" fill="white" opacity="0.65"/>
    <circle cx="201.4" cy="123.5" r="1.1" fill="white" opacity="0.46"/>
    <circle cx="224.5" cy="64.0" r="1.3" fill="white" opacity="0.73"/>
    <circle cx="242.1" cy="269.8" r="0.7" fill="white" opacity="0.39"/>
    <circle cx="87.6" cy="241.5" r="1.4" fill="white" opacity="0.74"/>
    <circle cx="131.7" cy="157.8" r="2.0" fill="white" opacity="0.54"/>
    <circle cx="130.3" cy="193.6" r="1.8" fill="white" opacity="0.84"/>
    <circle cx="158.3" cy="21.6" r="0.6" fill="white" opacity="0.32"/>
    <circle cx="10.8" cy="190.0" r="1.1" fill="white" opacity="0.35"/>
    <circle cx="236.1" cy="178.2" r="1.3" fill="white" opacity="0.80"/>
    <circle cx="37.0" cy="136.1" r="1.4" fill="white" opacity="0.59"/>
    <circle cx="70.7" cy="227.8" r="1.8" fill="white" opacity="0.90"/>
    <circle cx="179.0" cy="65.4" r="0.9" fill="white" opacity="0.32"/>
    <circle cx="285.7" cy="129.2" r="0.9" fill="white" opacity="0.31"/>
    <circle cx="98.0" cy="282.5" r="1.5" fill="white" opacity="0.35"/>
    <circle cx="74.6" cy="273.0" r="1.0" fill="white" opacity="0.76"/>
    <circle cx="192.5" cy="29.6" r="1.8" fill="white" opacity="0.80"/>
    <circle cx="269.9" cy="39.7" r="0.9" fill="white" opacity="0.49"/>
    <circle cx="239.6" cy="168.3" r="2.0" fill="white" opacity="0.77"/>
    <circle cx="30.3" cy="175.4" r="0.6" fill="white" opacity="0.79"/>
    <circle cx="13.1" cy="87.9" r="1.4" fill="white" opacity="0.80"/>
    <circle cx="44.3" cy="241.1" r="0.6" fill="white" opacity="0.53"/>
  </g>
  <defs>
    <radialGradient id="ng1" cx="150" cy="155" r="60" gradientUnits="userSpaceOnUse">
      <stop offset="0%" stop-color="rgba(124,58,237,0.65)"/>
      <stop offset="100%" stop-color="transparent"/>
    </radialGradient>
    <filter id="nf" x="-40%" y="-40%" width="180%" height="180%">
      <feGaussianBlur in="SourceGraphic" stdDeviation="8" result="blur"/>
      <feColorMatrix in="blur" type="matrix" values="1 0 0 0 0  0 1 0 0 0  0 0 1 0 0  0 0 0 2.2 0" result="glow"/>
      <feMerge><feMergeNode in="glow"/><feMergeNode in="SourceGraphic"/></feMerge>
    </filter>
  </defs>
  <circle cx="150" cy="155" r="60" fill="url(#ng1)" opacity="0.3"/>
  <g fill="#1a1a2e" stroke="#ffffff" stroke-opacity="0.15" stroke-width="1">
    <rect x="138.0" y="117.0" width="24.0" height="24.0"/>
    <rect x="138.0" y="141.0" width="24.0" height="32.0"/>
    <rect x="130.0" y="141.0" width="8.0" height="28.0"/>
    <rect x="162.0" y="141.0" width="8.0" height="28.0"/>
    <rect x="138.0" y="173.0" width="11.0" height="28.0"/>
    <rect x="151.0" y="173.0" width="11.0" height="28.0"/>
  </g>
  <circle cx="111.2" cy="152.9" r="3" fill="#7c3aed" stroke="#a855f7" stroke-width="1.5" filter="url(#nf)"/>
  <circle cx="115.7" cy="155.4" r="3" fill="#7c3aed" stroke="#a855f7" stroke-width="1.5" filter="url(#nf)"/>
  <line x1="111.2" y1="152.9" x2="115.7" y2="155.4" stroke="#7c3aed" stroke-width="2" opacity="0.7" filter="url(#nf)"/>
  <circle cx="120.9" cy="157.5" r="3" fill="#7c3aed" stroke="#a855f7" stroke-width="1.5" filter="url(#nf)"/>
  <line x1="115.7" y1="155.4" x2="120.9" y2="157.5" stroke="#7c3aed" stroke-width="2" opacity="0.7" filter="url(#nf)"/>
  <circle cx="126.7" cy="159.2" r="3" fill="#7c3aed" stroke="#a855f7" stroke-width="1.5" filter="url(#nf)"/>
  <line x1="120.9" y1="157.5" x2="126.7" y2="159.2" stroke="#7c3aed" stroke-width="2" opacity="0.7" filter="url(#nf)"/>
  <circle cx="133.0" cy="160.6" r="3" fill="#7c3aed" stroke="#a855f7" stroke-width="1.5" filter="url(#nf)"/>
  <line x1="126.7" y1="159.2" x2="133.0" y2="160.6" stroke="#7c3aed" stroke-width="2" opacity="0.7" filter="url(#nf)"/>
  <circle cx="139.6" cy="161.5" r="3" fill="#7c3aed" stroke="#a855f7" stroke-width="1.5" filter="url(#nf)"/>
  <line x1="133.0" y1="160.6" x2="139.6" y2="161.5" stroke="#7c3aed" stroke-width="2" opacity="0.7" filter="url(#nf)"/>
  <circle cx="146.5" cy="161.9" r="3" fill="#7c3aed" stroke="#a855f7" stroke-width="1.5" filter="url(#nf)"/>
  <line x1="139.6" y1="161.5" x2="146.5" y2="161.9" stroke="#7c3aed" stroke-width="2" opacity="0.7" filter="url(#nf)"/>
  <circle cx="153.5" cy="161.9" r="3" fill="#7c3aed" stroke="#a855f7" stroke-width="1.5" filter="url(#nf)"/>
  <line x1="146.5" y1="161.9" x2="153.5" y2="161.9" stroke="#7c3aed" stroke-width="2" opacity="0.7" filter="url(#nf)"/>
  <circle cx="160.4" cy="161.5" r="3" fill="#7c3aed" stroke="#a855f7" stroke-width="1.5" filter="url(#nf)"/>
  <line x1="153.5" y1="161.9" x2="160.4" y2="161.5" stroke="#7c3aed" stroke-width="2" opacity="0.7" filter="url(#nf)"/>
  <circle cx="167.0" cy="160.6" r="3" fill="#7c3aed" stroke="#a855f7" stroke-width="1.5" filter="url(#nf)"/>
  <line x1="160.4" y1="161.5" x2="167.0" y2="160.6" stroke="#7c3aed" stroke-width="2" opacity="0.7" filter="url(#nf)"/>
  <circle cx="173.3" cy="159.2" r="3" fill="#7c3aed" stroke="#a855f7" stroke-width="1.5" filter="url(#nf)"/>
  <line x1="167.0" y1="160.6" x2="173.3" y2="159.2" stroke="#7c3aed" stroke-width="2" opacity="0.7" filter="url(#nf)"/>
  <circle cx="179.1" cy="157.5" r="3" fill="#7c3aed" stroke="#a855f7" stroke-width="1.5" filter="url(#nf)"/>
  <line x1="173.3" y1="159.2" x2="179.1" y2="157.5" stroke="#7c3aed" stroke-width="2" opacity="0.7" filter="url(#nf)"/>
  <circle cx="184.3" cy="155.4" r="3" fill="#7c3aed" stroke="#a855f7" stroke-width="1.5" filter="url(#nf)"/>
  <line x1="179.1" y1="157.5" x2="184.3" y2="155.4" stroke="#7c3aed" stroke-width="2" opacity="0.7" filter="url(#nf)"/>
  <circle cx="188.8" cy="152.9" r="3" fill="#7c3aed" stroke="#a855f7" stroke-width="1.5" filter="url(#nf)"/>
  <line x1="184.3" y1="155.4" x2="188.8" y2="152.9" stroke="#7c3aed" stroke-width="2" opacity="0.7" filter="url(#nf)"/>
  <polygon points="150,170 164,193 136,193" fill="#a855f7" filter="url(#nf)"/>
  <polygon points="150,195 164,172 136,172" fill="#7c3aed" opacity="0.7" filter="url(#nf)"/>
  <rect x="0" y="265" width="300" height="35" fill="#050510" opacity="0.85"/>
  <text x="150" y="281" text-anchor="middle" font-family="Arial,sans-serif" font-size="11" font-weight="bold" fill="#f59e0b">Aether Chain</text>
  <text x="150" y="294" text-anchor="middle" font-family="Arial,sans-serif" font-size="9" fill="#f59e0b">LEGENDARY</text>
  <rect x="1" y="1" width="298" height="298" rx="10" fill="none" stroke="#f59e0b" stroke-width="2" opacity="0.5"/>
</svg>
