<svg xmlns="http://www.w3.org/2000/svg" viewBox="0 0 300 300" width="300" height="300">
  <defs>
    <radialGradient id="bgMain" cx="50%" cy="50%" r="70%">
      <stop offset="0%" stop-color="#0d0d28"/>
      <stop offset="100%" stop-color="#020208"/>
    </radialGradient>
  </defs>
  <rect width="300" height="300" fill="url(#bgMain)"/>
  <g opacity="0.5">
    <circle cx="136.7" cy="166.7" r="1.9" fill="white" opacity="0.58"/>
    <circle cx="152.2" cy="174.5" r="0.8" fill="white" opacity="0.61"/>
    <circle cx="186.4" cy="232.0" r="0.6" fill="white" opacity="0.48"/>
    <circle cx="35.4" cy="236.7" r="1.5" fill="white" opacity="0.33"/>
    <circle cx="285.0" cy="280.1" r="1.5" fill="white" opacity="0.67"/>
    <circle cx="54.1" cy="14.2" r="1.3" fill="white" opacity="0.34"/>
    <circle cx="63.3" cy="77.7" r="0.5" fill="white" opacity="0.58"/>
    <circle cx="133.3" cy="245.9" r="1.3" fill="white" opacity="0.68"/>
    <circle cx="149.9" cy="195.5" r="1.2" fill="white" opacity="0.47"/>
    <circle cx="289.3" cy="288.8" r="1.8" fill="white" opacity="0.72"/>
    <circle cx="98.3" cy="74.3" r="0.9" fill="white" opacity="0.34"/>
    <circle cx="224.6" cy="122.1" r="1.8" fill="white" opacity="0.53"/>
    <circle cx="278.3" cy="247.2" r="0.5" fill="white" opacity="0.43"/>
    <circle cx="264.9" cy="141.6" r="2.0" fill="white" opacity="0.54"/>
    <circle cx="30.5" cy="186.2" r="1.7" fill="white" opacity="0.46"/>
    <circle cx="34.4" cy="103.1" r="1.9" fill="white" opacity="0.75"/>
    <circle cx="43.0" cy="79.0" r="0.7" fill="white" opacity="0.34"/>
    <circle cx="233.2" cy="59.7" r="1.3" fill="white" opacity="0.57"/>
    <circle cx="63.4" cy="214.9" r="0.7" fill="white" opacity="0.69"/>
    <circle cx="42.6" cy="127.8" r="0.8" fill="white" opacity="0.46"/>
    <circle cx="281.9" cy="235.0" r="1.0" fill="white" opacity="0.83"/>
    <circle cx="69.0" cy="120.4" r="1.8" fill="white" opacity="0.69"/>
    <circle cx="38.1" cy="287.0" r="0.8" fill="white" opacity="0.45"/>
    <circle cx="226.4" cy="102.1" r="0.9" fill="white" opacity="0.34"/>
    <circle cx="35.2" cy="173.2" r="0.9" fill="white" opacity="0.66"/>
    <circle cx="114.1" cy="136.9" r="1.9" fill="white" opacity="0.59"/>
    <circle cx="170.9" cy="252.6" r="0.8" fill="white" opacity="0.39"/>
    <circle cx="264.4" cy="239.0" r="0.9" fill="white" opacity="0.41"/>
    <circle cx="217.0" cy="273.3" r="0.8" fill="white" opacity="0.87"/>
    <circle cx="257.0" cy="179.0" r="1.1" fill="white" opacity="0.36"/>
    <circle cx="20.8" cy="279.6" r="0.9" fill="white" opacity="0.72"/>
    <circle cx="82.0" cy="240.6" r="1.4" fill="white" opacity="0.48"/>
    <circle cx="59.1" cy="211.7" r="0.6" fill="white" opacity="0.44"/>
    <circle cx="166.6" cy="248.7" r="1.4" fill="white" opacity="0.47"/>
    <circle cx="266.9" cy="67.1" r="0.5" fill="white" opacity="0.46"/>
  </g>
  <defs>
    <linearGradient id="cg1" x1="0" y1="0" x2="0" y2="1">
      <stop offset="0%" stop-color="#0a1628" stop-opacity="1"/>
      <stop offset="50%" stop-color="#22d3ee" stop-opacity="0.9"/>
      <stop offset="100%" stop-color="#050510" stop-opacity="0.6"/>
    </linearGradient>
    <radialGradient id="cglow" cx="150" cy="200" r="100" gradientUnits="userSpaceOnUse">
      <stop offset="0%" stop-color="rgba(34,211,238,0.65)"/>
      <stop offset="100%" stop-color="transparent"/>
    </radialGradient>
    <filter id="cf" x="-40%" y="-40%" width="180%" height="180%">
      <feGaussianBlur in="SourceGraphic" stdDeviation="10" result="blur"/>
      <feColorMatrix in="blur" type="matrix" values="1 0 0 0 0  0 1 0 0 0  0 0 1 0 0  0 0 0 2 0" result="glow"/>
      <feMerge><feMergeNode in="glow"/><feMergeNode in="SourceGraphic"/></feMerge>
    </filter>
  </defs>
  <ellipse cx="150" cy="200" rx="100" ry="80" fill="url(#cglow)" opacity="0.35"/>
  <polygon points="120,95 180,95 210,270 90,270" fill="url(#cg1)" filter="url(#cf)"/>
  <line x1="120" y1="95" x2="150" y2="110" stroke="#0a1628" stroke-width="2" opacity="0.7"/>
  <line x1="180" y1="95" x2="150" y2="110" stroke="#0a1628" stroke-width="2" opacity="0.7"/>
  <line x1="122.5" y1="130" x2="177.5" y2="130" stroke="#0a1628" stroke-width="2" opacity="0.5" filter="url(#cf)"/>
  <line x1="117.6" y1="158" x2="182.4" y2="158" stroke="#0a1628" stroke-width="2" opacity="0.5" filter="url(#cf)"/>
  <line x1="112.7" y1="186" x2="187.3" y2="186" stroke="#0a1628" stroke-width="2" opacity="0.5" filter="url(#cf)"/>
  <line x1="107.8" y1="214" x2="192.2" y2="214" stroke="#0a1628" stroke-width="2" opacity="0.5" filter="url(#cf)"/>
  <line x1="102.9" y1="242" x2="197.1" y2="242" stroke="#0a1628" stroke-width="2" opacity="0.5" filter="url(#cf)"/>
  <rect x="0" y="265" width="300" height="35" fill="#050510" opacity="0.85"/>
  <text x="150" y="281" text-anchor="middle" font-family="Arial,sans-serif" font-size="11" font-weight="bold" fill="#22d3ee">Astral Cloak</text>
  <text x="150" y="294" text-anchor="middle" font-family="Arial,sans-serif" font-size="9" fill="#22d3ee">CELESTIAL</text>
  <rect x="1" y="1" width="298" height="298" rx="10" fill="none" stroke="#22d3ee" stroke-width="2" opacity="0.5"/>
</svg>
