<svg xmlns="http://www.w3.org/2000/svg" viewBox="0 0 300 300" width="300" height="300">
  <defs>
    <radialGradient id="bgMain" cx="50%" cy="50%" r="70%">
      <stop offset="0%" stop-color="#0d0d28"/>
      <stop offset="100%" stop-color="#020208"/>
    </radialGradient>
  </defs>
  <rect width="300" height="300" fill="url(#bgMain)"/>
  <g opacity="0.5">
    <circle cx="160.9" cy="91.0" r="0.5" fill="white" opacity="0.69"/>
    <circle cx="68.8" cy="82.0" r="1.1" fill="white" opacity="0.68"/>
    <circle cx="286.9" cy="139.2" r="2.0" fill="white" opacity="0.90"/>
    <circle cx="77.9" cy="30.3" r="0.7" fill="white" opacity="0.81"/>
    <circle cx="177.9" cy="266.9" r="2.0" fill="white" opacity="0.69"/>
    <circle cx="159.9" cy="28.9" r="0.5" fill="white" opacity="0.78"/>
    <circle cx="198.2" cy="223.6" r="1.3" fill="white" opacity="0.70"/>
    <circle cx="188.8" cy="260.6" r="0.7" fill="white" opacity="0.60"/>
    <circle cx="96.6" cy="242.2" r="1.8" fill="white" opacity="0.45"/>
    <circle cx="32.5" cy="78.1" r="1.0" fill="white" opacity="0.76"/>
    <circle cx="124.7" cy="220.0" r="1.0" fill="white" opacity="0.61"/>
    <circle cx="62.2" cy="190.7" r="1.3" fill="white" opacity="0.82"/>
    <circle cx="275.6" cy="155.6" r="0.6" fill="white" opacity="0.86"/>
    <circle cx="274.6" cy="142.8" r="1.2" fill="white" opacity="0.86"/>
    <circle cx="81.0" cy="81.6" r="1.5" fill="white" opacity="0.70"/>
    <circle cx="202.1" cy="241.8" r="1.3" fill="white" opacity="0.55"/>
    <circle cx="73.1" cy="69.7" r="1.1" fill="white" opacity="0.56"/>
    <circle cx="217.1" cy="183.6" r="1.3" fill="white" opacity="0.53"/>
    <circle cx="185.1" cy="117.0" r="1.7" fill="white" opacity="0.69"/>
    <circle cx="204.5" cy="114.5" r="1.3" fill="white" opacity="0.73"/>
    <circle cx="277.9" cy="158.1" r="1.0" fill="white" opacity="0.71"/>
    <circle cx="43.5" cy="103.7" r="0.5" fill="white" opacity="0.63"/>
    <circle cx="81.1" cy="119.7" r="1.7" fill="white" opacity="0.68"/>
    <circle cx="20.4" cy="134.0" r="0.5" fill="white" opacity="0.79"/>
    <circle cx="149.0" cy="248.1" r="0.9" fill="white" opacity="0.79"/>
    <circle cx="48.8" cy="252.9" r="1.1" fill="white" opacity="0.34"/>
    <circle cx="266.2" cy="244.3" r="0.8" fill="white" opacity="0.65"/>
    <circle cx="143.4" cy="50.0" r="1.1" fill="white" opacity="0.88"/>
    <circle cx="116.6" cy="222.5" r="1.6" fill="white" opacity="0.76"/>
    <circle cx="181.4" cy="262.6" r="1.0" fill="white" opacity="0.59"/>
    <circle cx="135.3" cy="38.3" r="1.2" fill="white" opacity="0.76"/>
    <circle cx="170.8" cy="59.7" r="0.9" fill="white" opacity="0.59"/>
    <circle cx="39.6" cy="66.2" r="1.6" fill="white" opacity="0.36"/>
    <circle cx="42.0" cy="54.4" r="1.3" fill="white" opacity="0.31"/>
    <circle cx="202.2" cy="168.6" r="1.6" fill="white" opacity="0.77"/>
  </g>
  <defs>
    <linearGradient id="bg1" x1="0" y1="0" x2="1" y2="0">
      <stop offset="0%" stop-color="#0a0a1a" stop-opacity="1"/>
      <stop offset="50%" stop-color="#0a1628" stop-opacity="1"/>
      <stop offset="100%" stop-color="#22d3ee" stop-opacity="1"/>
    </linearGradient>
    <radialGradient id="bglow" cx="150" cy="130" r="50" gradientUnits="userSpaceOnUse">
      <stop offset="0%" stop-color="rgba(34,211,238,0.65)"/>
      <stop offset="100%" stop-color="transparent"/>
    </radialGradient>
    <filter id="bf" x="-40%" y="-40%" width="180%" height="180%">
      <feGaussianBlur in="SourceGraphic" stdDeviation="8" result="blur"/>
      <feColorMatrix in="blur" type="matrix" values="1 0 0 0 0  0 1 0 0 0  0 0 1 0 0  0 0 0 2 0" result="glow"/>
      <feMerge><feMergeNode in="glow"/><feMergeNode in="SourceGraphic"/></feMerge>
    </filter>
  </defs>
  <circle cx="150" cy="160" r="50" fill="url(#bglow)" opacity="0.3"/>
  <g fill="#1a1a2e" stroke="#ffffff" stroke-opacity="0.15" stroke-width="1">
    <rect x="138.0" y="147.0" width="24.0" height="24.0"/>
    <rect x="138.0" y="171.0" width="24.0" height="32.0"/>
    <rect x="130.0" y="171.0" width="8.0" height="28.0"/>
    <rect x="162.0" y="171.0" width="8.0" height="28.0"/>
    <rect x="138.0" y="203.0" width="11.0" height="28.0"/>
    <rect x="151.0" y="203.0" width="11.0" height="28.0"/>
  </g>
  <rect x="116" y="125" width="68" height="28" rx="6" fill="url(#bg1)" filter="url(#bf)"/>
  <line x1="116" y1="139" x2="184" y2="139" stroke="#22d3ee" stroke-width="3" opacity="0.9" filter="url(#bf)"/>
  <circle cx="192" cy="139" r="8" fill="#0a1628" filter="url(#bf)"/>
  <line x1="192" y1="139" x2="206" y2="131" stroke="#0a1628" stroke-width="2" opacity="0.7"/>
  <line x1="192" y1="139" x2="206" y2="147" stroke="#0a1628" stroke-width="2" opacity="0.7"/>
  <rect x="0" y="265" width="300" height="35" fill="#050510" opacity="0.85"/>
  <text x="150" y="281" text-anchor="middle" font-family="Arial,sans-serif" font-size="11" font-weight="bold" fill="#22d3ee">Astral Bandana</text>
  <text x="150" y="294" text-anchor="middle" font-family="Arial,sans-serif" font-size="9" fill="#22d3ee">CELESTIAL</text>
  <rect x="1" y="1" width="298" height="298" rx="10" fill="none" stroke="#22d3ee" stroke-width="2" opacity="0.5"/>
</svg>
