<svg xmlns="http://www.w3.org/2000/svg" viewBox="0 0 300 300" width="300" height="300">
  <defs>
    <radialGradient id="bgMain" cx="50%" cy="50%" r="70%">
      <stop offset="0%" stop-color="#0d0d28"/>
      <stop offset="100%" stop-color="#020208"/>
    </radialGradient>
  </defs>
  <rect width="300" height="300" fill="url(#bgMain)"/>
  <g opacity="0.5">
    <circle cx="269.0" cy="275.6" r="1.8" fill="white" opacity="0.35"/>
    <circle cx="175.8" cy="128.6" r="1.3" fill="white" opacity="0.38"/>
    <circle cx="63.8" cy="134.5" r="0.8" fill="white" opacity="0.57"/>
    <circle cx="16.9" cy="34.0" r="1.6" fill="white" opacity="0.55"/>
    <circle cx="153.5" cy="215.6" r="1.0" fill="white" opacity="0.33"/>
    <circle cx="229.3" cy="175.0" r="1.5" fill="white" opacity="0.67"/>
    <circle cx="281.8" cy="111.6" r="1.6" fill="white" opacity="0.52"/>
    <circle cx="170.2" cy="194.9" r="1.0" fill="white" opacity="0.35"/>
    <circle cx="142.7" cy="211.0" r="1.4" fill="white" opacity="0.57"/>
    <circle cx="189.9" cy="61.0" r="0.8" fill="white" opacity="0.49"/>
    <circle cx="238.4" cy="64.8" r="0.7" fill="white" opacity="0.36"/>
    <circle cx="20.9" cy="87.2" r="1.4" fill="white" opacity="0.79"/>
    <circle cx="102.6" cy="113.5" r="0.9" fill="white" opacity="0.48"/>
    <circle cx="227.7" cy="163.7" r="0.9" fill="white" opacity="0.36"/>
    <circle cx="229.5" cy="208.0" r="1.7" fill="white" opacity="0.44"/>
    <circle cx="162.7" cy="267.2" r="1.4" fill="white" opacity="0.87"/>
    <circle cx="56.8" cy="283.0" r="0.6" fill="white" opacity="0.55"/>
    <circle cx="16.5" cy="236.7" r="1.5" fill="white" opacity="0.88"/>
    <circle cx="235.4" cy="275.7" r="1.3" fill="white" opacity="0.89"/>
    <circle cx="219.7" cy="106.9" r="2.0" fill="white" opacity="0.53"/>
    <circle cx="64.1" cy="31.2" r="1.2" fill="white" opacity="0.42"/>
    <circle cx="271.4" cy="276.1" r="0.8" fill="white" opacity="0.36"/>
    <circle cx="158.1" cy="57.5" r="1.3" fill="white" opacity="0.79"/>
    <circle cx="80.9" cy="128.1" r="1.9" fill="white" opacity="0.57"/>
    <circle cx="106.0" cy="259.9" r="1.7" fill="white" opacity="0.84"/>
    <circle cx="202.6" cy="125.5" r="1.5" fill="white" opacity="0.80"/>
    <circle cx="189.1" cy="76.8" r="0.9" fill="white" opacity="0.55"/>
    <circle cx="226.1" cy="166.0" r="1.3" fill="white" opacity="0.80"/>
    <circle cx="40.4" cy="186.7" r="1.0" fill="white" opacity="0.64"/>
    <circle cx="243.9" cy="79.5" r="1.9" fill="white" opacity="0.35"/>
    <circle cx="167.4" cy="161.7" r="0.9" fill="white" opacity="0.64"/>
    <circle cx="141.8" cy="135.9" r="1.6" fill="white" opacity="0.30"/>
    <circle cx="115.6" cy="230.0" r="0.7" fill="white" opacity="0.82"/>
    <circle cx="67.0" cy="200.7" r="0.8" fill="white" opacity="0.57"/>
    <circle cx="128.3" cy="32.9" r="1.5" fill="white" opacity="0.59"/>
  </g>
  <defs>
    <linearGradient id="hg1" x1="0" y1="0" x2="1" y2="0">
      <stop offset="0%" stop-color="#0a0a1a" stop-opacity="1"/>
      <stop offset="50%" stop-color="#0a1628" stop-opacity="1"/>
      <stop offset="100%" stop-color="#06b6d4" stop-opacity="1"/>
    </linearGradient>
    <linearGradient id="hg2" x1="0" y1="0" x2="0" y2="1">
      <stop offset="0%" stop-color="#0a1628" stop-opacity="1"/>
      <stop offset="100%" stop-color="#06b6d4" stop-opacity="0.7"/>
    </linearGradient>
    <radialGradient id="hglow" cx="150" cy="145" r="70" gradientUnits="userSpaceOnUse">
      <stop offset="0%" stop-color="rgba(6,182,212,0.6)"/>
      <stop offset="100%" stop-color="transparent"/>
    </radialGradient>
    <filter id="hf" x="-40%" y="-40%" width="180%" height="180%">
      <feGaussianBlur in="SourceGraphic" stdDeviation="9" result="blur"/>
      <feColorMatrix in="blur" type="matrix" values="1 0 0 0 0  0 1 0 0 0  0 0 1 0 0  0 0 0 2.2 0" result="glow"/>
      <feMerge><feMergeNode in="glow"/><feMergeNode in="SourceGraphic"/></feMerge>
    </filter>
  </defs>
  <ellipse cx="150" cy="145" rx="70" ry="55" fill="url(#hglow)" opacity="0.35"/>
  <g fill="#1a1a2e" stroke="#ffffff" stroke-opacity="0.15" stroke-width="1">
    <rect x="138.0" y="152.0" width="24.0" height="24.0"/>
    <rect x="138.0" y="176.0" width="24.0" height="32.0"/>
    <rect x="130.0" y="176.0" width="8.0" height="28.0"/>
    <rect x="162.0" y="176.0" width="8.0" height="28.0"/>
    <rect x="138.0" y="208.0" width="11.0" height="28.0"/>
    <rect x="151.0" y="208.0" width="11.0" height="28.0"/>
  </g>
  <path d="M 105 165 Q 100 125 150 80 Q 200 125 195 165 Z" fill="url(#hg2)" filter="url(#hf)"/>
  <path d="M 120 165 Q 125 135 150 100 Q 175 135 180 165 Z" fill="#050510" opacity="0.5"/>
  <rect x="0" y="265" width="300" height="35" fill="#050510" opacity="0.85"/>
  <text x="150" y="281" text-anchor="middle" font-family="Arial,sans-serif" font-size="11" font-weight="bold" fill="#3b82f6">Cyber Hood</text>
  <text x="150" y="294" text-anchor="middle" font-family="Arial,sans-serif" font-size="9" fill="#3b82f6">ELITE</text>
  <rect x="1" y="1" width="298" height="298" rx="10" fill="none" stroke="#3b82f6" stroke-width="2" opacity="0.5"/>
</svg>
