<svg xmlns="http://www.w3.org/2000/svg" viewBox="0 0 300 300" width="300" height="300">
  <defs>
    <radialGradient id="bgMain" cx="50%" cy="50%" r="70%">
      <stop offset="0%" stop-color="#0d0d28"/>
      <stop offset="100%" stop-color="#020208"/>
    </radialGradient>
  </defs>
  <rect width="300" height="300" fill="url(#bgMain)"/>
  <g opacity="0.5">
    <circle cx="116.7" cy="74.6" r="0.7" fill="white" opacity="0.85"/>
    <circle cx="171.8" cy="203.2" r="1.3" fill="white" opacity="0.53"/>
    <circle cx="214.9" cy="171.4" r="1.7" fill="white" opacity="0.70"/>
    <circle cx="245.0" cy="133.0" r="0.7" fill="white" opacity="0.39"/>
    <circle cx="212.5" cy="56.9" r="1.5" fill="white" opacity="0.67"/>
    <circle cx="26.7" cy="229.6" r="0.5" fill="white" opacity="0.82"/>
    <circle cx="245.5" cy="70.4" r="1.6" fill="white" opacity="0.74"/>
    <circle cx="45.0" cy="197.6" r="0.7" fill="white" opacity="0.85"/>
    <circle cx="202.9" cy="284.4" r="0.6" fill="white" opacity="0.49"/>
    <circle cx="183.6" cy="180.3" r="0.8" fill="white" opacity="0.83"/>
    <circle cx="247.0" cy="94.4" r="0.7" fill="white" opacity="0.70"/>
    <circle cx="124.0" cy="195.7" r="1.2" fill="white" opacity="0.54"/>
    <circle cx="16.1" cy="47.8" r="1.2" fill="white" opacity="0.74"/>
    <circle cx="129.2" cy="218.4" r="1.3" fill="white" opacity="0.83"/>
    <circle cx="193.4" cy="100.1" r="0.7" fill="white" opacity="0.34"/>
    <circle cx="21.1" cy="251.5" r="1.8" fill="white" opacity="0.75"/>
    <circle cx="40.6" cy="194.9" r="0.7" fill="white" opacity="0.83"/>
    <circle cx="193.5" cy="219.9" r="1.4" fill="white" opacity="0.55"/>
    <circle cx="247.6" cy="279.3" r="0.9" fill="white" opacity="0.56"/>
    <circle cx="215.4" cy="200.4" r="1.1" fill="white" opacity="0.57"/>
    <circle cx="280.9" cy="87.3" r="0.8" fill="white" opacity="0.71"/>
    <circle cx="87.5" cy="261.3" r="1.0" fill="white" opacity="0.85"/>
    <circle cx="116.3" cy="257.8" r="1.6" fill="white" opacity="0.74"/>
    <circle cx="70.0" cy="56.0" r="0.5" fill="white" opacity="0.41"/>
    <circle cx="196.6" cy="28.0" r="0.9" fill="white" opacity="0.64"/>
    <circle cx="53.4" cy="102.1" r="0.8" fill="white" opacity="0.71"/>
    <circle cx="43.2" cy="289.3" r="1.4" fill="white" opacity="0.73"/>
    <circle cx="164.7" cy="149.4" r="2.0" fill="white" opacity="0.84"/>
    <circle cx="240.1" cy="18.4" r="1.4" fill="white" opacity="0.87"/>
    <circle cx="188.7" cy="153.6" r="1.5" fill="white" opacity="0.41"/>
    <circle cx="213.8" cy="229.4" r="0.6" fill="white" opacity="0.61"/>
    <circle cx="176.7" cy="108.6" r="1.5" fill="white" opacity="0.85"/>
    <circle cx="263.7" cy="96.2" r="0.7" fill="white" opacity="0.81"/>
    <circle cx="181.4" cy="242.3" r="1.8" fill="white" opacity="0.47"/>
    <circle cx="174.5" cy="94.9" r="1.7" fill="white" opacity="0.71"/>
  </g>
  <defs>
    <radialGradient id="sg1" cx="150" cy="175" r="100" gradientUnits="userSpaceOnUse">
      <stop offset="0%" stop-color="#0a1628"/>
      <stop offset="100%" stop-color="#0a0a1a"/>
    </radialGradient>
    <radialGradient id="sglow" cx="150" cy="175" r="90" gradientUnits="userSpaceOnUse">
      <stop offset="0%" stop-color="rgba(34,211,238,0.65)"/>
      <stop offset="100%" stop-color="transparent"/>
    </radialGradient>
    <filter id="sf" x="-40%" y="-40%" width="180%" height="180%">
      <feGaussianBlur in="SourceGraphic" stdDeviation="10" result="blur"/>
      <feColorMatrix in="blur" type="matrix" values="1 0 0 0 0  0 1 0 0 0  0 0 1 0 0  0 0 0 2.2 0" result="glow"/>
      <feMerge><feMergeNode in="glow"/><feMergeNode in="SourceGraphic"/></feMerge>
    </filter>
  </defs>
  <circle cx="150" cy="175" r="95" fill="url(#sglow)" opacity="0.2"/>
  <g fill="#0d0d25" stroke="#0a1628" stroke-opacity="0.6" stroke-width="1">
    <rect x="138.0" y="117.0" width="24.0" height="24.0"/>
    <rect x="138.0" y="141.0" width="24.0" height="32.0"/>
    <rect x="130.0" y="141.0" width="8.0" height="28.0"/>
    <rect x="162.0" y="141.0" width="8.0" height="28.0"/>
    <rect x="138.0" y="173.0" width="11.0" height="28.0"/>
    <rect x="151.0" y="173.0" width="11.0" height="28.0"/>
  </g>
  <rect x="128" y="113" width="44" height="44" rx="2" fill="#0a1628" opacity="0.4" filter="url(#sf)"/>
  <circle cx="132" cy="120" r="2.5" fill="#22d3ee" opacity="0.9" filter="url(#sf)"/>
  <circle cx="142" cy="120" r="2.5" fill="#22d3ee" opacity="0.9" filter="url(#sf)"/>
  <circle cx="158" cy="120" r="2.5" fill="#22d3ee" opacity="0.9" filter="url(#sf)"/>
  <circle cx="168" cy="120" r="2.5" fill="#22d3ee" opacity="0.9" filter="url(#sf)"/>
  <circle cx="132" cy="140" r="2.5" fill="#22d3ee" opacity="0.9" filter="url(#sf)"/>
  <circle cx="142" cy="140" r="2.5" fill="#22d3ee" opacity="0.9" filter="url(#sf)"/>
  <circle cx="158" cy="140" r="2.5" fill="#22d3ee" opacity="0.9" filter="url(#sf)"/>
  <circle cx="168" cy="140" r="2.5" fill="#22d3ee" opacity="0.9" filter="url(#sf)"/>
  <line x1="132" y1="120" x2="142" y2="120" stroke="#22d3ee" stroke-width="1.5" opacity="0.7"/>
  <line x1="158" y1="120" x2="168" y2="120" stroke="#22d3ee" stroke-width="1.5" opacity="0.7"/>
  <line x1="132" y1="140" x2="168" y2="140" stroke="#22d3ee" stroke-width="1.5" opacity="0.7"/>
  <line x1="132" y1="120" x2="132" y2="140" stroke="#22d3ee" stroke-width="1.5" opacity="0.7"/>
  <line x1="168" y1="120" x2="168" y2="140" stroke="#22d3ee" stroke-width="1.5" opacity="0.7"/>
  <rect x="0" y="265" width="300" height="35" fill="#050510" opacity="0.85"/>
  <text x="150" y="281" text-anchor="middle" font-family="Arial,sans-serif" font-size="11" font-weight="bold" fill="#f59e0b">Cyber Suit</text>
  <text x="150" y="294" text-anchor="middle" font-family="Arial,sans-serif" font-size="9" fill="#f59e0b">LEGENDARY</text>
  <rect x="1" y="1" width="298" height="298" rx="10" fill="none" stroke="#f59e0b" stroke-width="2" opacity="0.5"/>
</svg>
