<svg xmlns="http://www.w3.org/2000/svg" viewBox="0 0 300 300" width="300" height="300">
  <defs>
    <radialGradient id="bgMain" cx="50%" cy="50%" r="70%">
      <stop offset="0%" stop-color="#0d0d28"/>
      <stop offset="100%" stop-color="#020208"/>
    </radialGradient>
  </defs>
  <rect width="300" height="300" fill="url(#bgMain)"/>
  <g opacity="0.5">
    <circle cx="219.2" cy="66.8" r="0.8" fill="white" opacity="0.66"/>
    <circle cx="25.9" cy="227.4" r="1.6" fill="white" opacity="0.33"/>
    <circle cx="201.4" cy="150.8" r="1.5" fill="white" opacity="0.87"/>
    <circle cx="286.3" cy="124.6" r="1.8" fill="white" opacity="0.77"/>
    <circle cx="282.1" cy="18.1" r="1.9" fill="white" opacity="0.43"/>
    <circle cx="46.2" cy="177.3" r="1.8" fill="white" opacity="0.87"/>
    <circle cx="112.0" cy="241.8" r="0.5" fill="white" opacity="0.88"/>
    <circle cx="92.2" cy="162.2" r="0.7" fill="white" opacity="0.33"/>
    <circle cx="12.2" cy="178.0" r="1.3" fill="white" opacity="0.79"/>
    <circle cx="248.3" cy="128.6" r="1.8" fill="white" opacity="0.42"/>
    <circle cx="256.6" cy="80.2" r="1.9" fill="white" opacity="0.53"/>
    <circle cx="129.9" cy="155.1" r="0.6" fill="white" opacity="0.34"/>
    <circle cx="162.6" cy="209.9" r="0.6" fill="white" opacity="0.54"/>
    <circle cx="113.6" cy="228.7" r="2.0" fill="white" opacity="0.35"/>
    <circle cx="162.2" cy="39.2" r="1.7" fill="white" opacity="0.87"/>
    <circle cx="207.8" cy="172.8" r="0.6" fill="white" opacity="0.36"/>
    <circle cx="77.1" cy="32.9" r="0.7" fill="white" opacity="0.88"/>
    <circle cx="107.4" cy="263.9" r="1.6" fill="white" opacity="0.77"/>
    <circle cx="265.6" cy="205.4" r="1.0" fill="white" opacity="0.58"/>
    <circle cx="119.2" cy="19.0" r="0.6" fill="white" opacity="0.64"/>
    <circle cx="156.4" cy="282.3" r="1.4" fill="white" opacity="0.79"/>
    <circle cx="143.4" cy="173.0" r="1.7" fill="white" opacity="0.32"/>
    <circle cx="15.4" cy="130.3" r="0.9" fill="white" opacity="0.56"/>
    <circle cx="27.9" cy="57.3" r="0.6" fill="white" opacity="0.67"/>
    <circle cx="19.3" cy="15.7" r="1.5" fill="white" opacity="0.55"/>
    <circle cx="16.4" cy="273.3" r="1.2" fill="white" opacity="0.86"/>
    <circle cx="191.6" cy="163.1" r="1.1" fill="white" opacity="0.36"/>
    <circle cx="280.4" cy="133.1" r="1.0" fill="white" opacity="0.39"/>
    <circle cx="176.8" cy="285.3" r="1.1" fill="white" opacity="0.78"/>
    <circle cx="206.0" cy="154.2" r="1.5" fill="white" opacity="0.74"/>
    <circle cx="269.9" cy="22.4" r="0.7" fill="white" opacity="0.45"/>
    <circle cx="28.8" cy="88.7" r="1.2" fill="white" opacity="0.43"/>
    <circle cx="149.8" cy="11.9" r="1.9" fill="white" opacity="0.73"/>
    <circle cx="39.0" cy="69.7" r="1.6" fill="white" opacity="0.39"/>
    <circle cx="215.6" cy="20.6" r="1.4" fill="white" opacity="0.71"/>
  </g>
  <defs>
    <radialGradient id="mg1" cx="150" cy="145" r="80" gradientUnits="userSpaceOnUse">
      <stop offset="0%" stop-color="#0a1a2e"/>
      <stop offset="50%" stop-color="#22d3ee"/>
      <stop offset="100%" stop-color="#050510"/>
    </radialGradient>
    <radialGradient id="mglow" cx="150" cy="145" r="65" gradientUnits="userSpaceOnUse">
      <stop offset="0%" stop-color="rgba(34,211,238,0.65)"/>
      <stop offset="100%" stop-color="transparent"/>
    </radialGradient>
    <filter id="mf" x="-40%" y="-40%" width="180%" height="180%">
      <feGaussianBlur in="SourceGraphic" stdDeviation="10" result="blur"/>
      <feColorMatrix in="blur" type="matrix" values="1 0 0 0 0  0 1 0 0 0  0 0 1 0 0  0 0 0 2.5 0" result="glow"/>
      <feMerge><feMergeNode in="glow"/><feMergeNode in="SourceGraphic"/></feMerge>
    </filter>
  </defs>
  <ellipse cx="150" cy="145" rx="65" ry="55" fill="url(#mglow)" opacity="0.3"/>
  <g fill="#1a1a2e" stroke="#ffffff" stroke-opacity="0.15" stroke-width="1">
    <rect x="138.0" y="152.0" width="24.0" height="24.0"/>
    <rect x="138.0" y="176.0" width="24.0" height="32.0"/>
    <rect x="130.0" y="176.0" width="8.0" height="28.0"/>
    <rect x="162.0" y="176.0" width="8.0" height="28.0"/>
    <rect x="138.0" y="208.0" width="11.0" height="28.0"/>
    <rect x="151.0" y="208.0" width="11.0" height="28.0"/>
  </g>
  <rect x="115" y="105" width="70" height="72" rx="8" fill="url(#mg1)" filter="url(#mf)"/>
  <rect x="120" y="123" width="60" height="18" rx="4" fill="#22d3ee" opacity="0.9" filter="url(#mf)"/>
  <line x1="126" y1="153" x2="126" y2="173" stroke="#22d3ee" stroke-width="3" opacity="0.6"/>
  <line x1="142" y1="153" x2="142" y2="173" stroke="#22d3ee" stroke-width="3" opacity="0.6"/>
  <line x1="158" y1="153" x2="158" y2="173" stroke="#22d3ee" stroke-width="3" opacity="0.6"/>
  <line x1="174" y1="153" x2="174" y2="173" stroke="#22d3ee" stroke-width="3" opacity="0.6"/>
  <rect x="0" y="265" width="300" height="35" fill="#050510" opacity="0.85"/>
  <text x="150" y="281" text-anchor="middle" font-family="Arial,sans-serif" font-size="11" font-weight="bold" fill="#a855f7">Cyber Mask</text>
  <text x="150" y="294" text-anchor="middle" font-family="Arial,sans-serif" font-size="9" fill="#a855f7">EPIC</text>
  <rect x="1" y="1" width="298" height="298" rx="10" fill="none" stroke="#a855f7" stroke-width="2" opacity="0.5"/>
</svg>
