<svg xmlns="http://www.w3.org/2000/svg" viewBox="0 0 300 300" width="300" height="300">
  <defs>
    <radialGradient id="bgMain" cx="50%" cy="50%" r="70%">
      <stop offset="0%" stop-color="#0d0d28"/>
      <stop offset="100%" stop-color="#020208"/>
    </radialGradient>
  </defs>
  <rect width="300" height="300" fill="url(#bgMain)"/>
  <g opacity="0.5">
    <circle cx="28.7" cy="125.7" r="0.7" fill="white" opacity="0.75"/>
    <circle cx="153.2" cy="23.9" r="0.6" fill="white" opacity="0.74"/>
    <circle cx="53.2" cy="215.4" r="1.4" fill="white" opacity="0.60"/>
    <circle cx="249.6" cy="178.7" r="1.4" fill="white" opacity="0.54"/>
    <circle cx="79.6" cy="48.6" r="1.1" fill="white" opacity="0.53"/>
    <circle cx="226.3" cy="85.1" r="1.1" fill="white" opacity="0.87"/>
    <circle cx="183.7" cy="195.2" r="1.5" fill="white" opacity="0.85"/>
    <circle cx="67.8" cy="225.7" r="0.6" fill="white" opacity="0.45"/>
    <circle cx="176.8" cy="99.2" r="1.2" fill="white" opacity="0.43"/>
    <circle cx="81.4" cy="132.4" r="1.4" fill="white" opacity="0.72"/>
    <circle cx="150.0" cy="116.1" r="1.9" fill="white" opacity="0.77"/>
    <circle cx="163.4" cy="161.8" r="0.7" fill="white" opacity="0.42"/>
    <circle cx="33.7" cy="273.7" r="1.7" fill="white" opacity="0.34"/>
    <circle cx="204.0" cy="114.8" r="1.5" fill="white" opacity="0.56"/>
    <circle cx="101.8" cy="30.7" r="0.8" fill="white" opacity="0.56"/>
    <circle cx="210.8" cy="54.4" r="1.2" fill="white" opacity="0.88"/>
    <circle cx="38.8" cy="124.0" r="1.8" fill="white" opacity="0.69"/>
    <circle cx="276.0" cy="179.1" r="1.5" fill="white" opacity="0.44"/>
    <circle cx="124.0" cy="156.9" r="1.8" fill="white" opacity="0.70"/>
    <circle cx="114.2" cy="256.5" r="1.4" fill="white" opacity="0.73"/>
    <circle cx="58.8" cy="83.6" r="1.4" fill="white" opacity="0.56"/>
    <circle cx="81.7" cy="267.4" r="1.9" fill="white" opacity="0.71"/>
    <circle cx="283.0" cy="212.1" r="1.2" fill="white" opacity="0.37"/>
    <circle cx="168.4" cy="263.9" r="1.4" fill="white" opacity="0.74"/>
    <circle cx="115.5" cy="17.5" r="1.3" fill="white" opacity="0.51"/>
    <circle cx="168.4" cy="282.5" r="1.9" fill="white" opacity="0.85"/>
    <circle cx="191.6" cy="157.5" r="1.3" fill="white" opacity="0.85"/>
    <circle cx="12.3" cy="19.4" r="0.6" fill="white" opacity="0.57"/>
    <circle cx="286.5" cy="262.3" r="1.3" fill="white" opacity="0.87"/>
    <circle cx="212.5" cy="238.7" r="0.9" fill="white" opacity="0.37"/>
    <circle cx="71.4" cy="249.6" r="1.8" fill="white" opacity="0.66"/>
    <circle cx="52.8" cy="122.1" r="0.9" fill="white" opacity="0.65"/>
    <circle cx="223.3" cy="250.4" r="1.4" fill="white" opacity="0.49"/>
    <circle cx="109.8" cy="70.0" r="0.7" fill="white" opacity="0.32"/>
    <circle cx="44.7" cy="266.8" r="1.3" fill="white" opacity="0.88"/>
  </g>
  <defs>
    <radialGradient id="ng1" cx="150" cy="155" r="60" gradientUnits="userSpaceOnUse">
      <stop offset="0%" stop-color="rgba(220,38,38,0.6)"/>
      <stop offset="100%" stop-color="transparent"/>
    </radialGradient>
    <filter id="nf" x="-40%" y="-40%" width="180%" height="180%">
      <feGaussianBlur in="SourceGraphic" stdDeviation="8" result="blur"/>
      <feColorMatrix in="blur" type="matrix" values="1 0 0 0 0  0 1 0 0 0  0 0 1 0 0  0 0 0 2.2 0" result="glow"/>
      <feMerge><feMergeNode in="glow"/><feMergeNode in="SourceGraphic"/></feMerge>
    </filter>
  </defs>
  <circle cx="150" cy="155" r="60" fill="url(#ng1)" opacity="0.3"/>
  <g fill="#1a1a2e" stroke="#ffffff" stroke-opacity="0.15" stroke-width="1">
    <rect x="138.0" y="117.0" width="24.0" height="24.0"/>
    <rect x="138.0" y="141.0" width="24.0" height="32.0"/>
    <rect x="130.0" y="141.0" width="8.0" height="28.0"/>
    <rect x="162.0" y="141.0" width="8.0" height="28.0"/>
    <rect x="138.0" y="173.0" width="11.0" height="28.0"/>
    <rect x="151.0" y="173.0" width="11.0" height="28.0"/>
  </g>
  <circle cx="111.2" cy="152.9" r="3" fill="#dc2626" stroke="#f97316" stroke-width="1.5" filter="url(#nf)"/>
  <circle cx="115.7" cy="155.4" r="3" fill="#dc2626" stroke="#f97316" stroke-width="1.5" filter="url(#nf)"/>
  <line x1="111.2" y1="152.9" x2="115.7" y2="155.4" stroke="#dc2626" stroke-width="2" opacity="0.7" filter="url(#nf)"/>
  <circle cx="120.9" cy="157.5" r="3" fill="#dc2626" stroke="#f97316" stroke-width="1.5" filter="url(#nf)"/>
  <line x1="115.7" y1="155.4" x2="120.9" y2="157.5" stroke="#dc2626" stroke-width="2" opacity="0.7" filter="url(#nf)"/>
  <circle cx="126.7" cy="159.2" r="3" fill="#dc2626" stroke="#f97316" stroke-width="1.5" filter="url(#nf)"/>
  <line x1="120.9" y1="157.5" x2="126.7" y2="159.2" stroke="#dc2626" stroke-width="2" opacity="0.7" filter="url(#nf)"/>
  <circle cx="133.0" cy="160.6" r="3" fill="#dc2626" stroke="#f97316" stroke-width="1.5" filter="url(#nf)"/>
  <line x1="126.7" y1="159.2" x2="133.0" y2="160.6" stroke="#dc2626" stroke-width="2" opacity="0.7" filter="url(#nf)"/>
  <circle cx="139.6" cy="161.5" r="3" fill="#dc2626" stroke="#f97316" stroke-width="1.5" filter="url(#nf)"/>
  <line x1="133.0" y1="160.6" x2="139.6" y2="161.5" stroke="#dc2626" stroke-width="2" opacity="0.7" filter="url(#nf)"/>
  <circle cx="146.5" cy="161.9" r="3" fill="#dc2626" stroke="#f97316" stroke-width="1.5" filter="url(#nf)"/>
  <line x1="139.6" y1="161.5" x2="146.5" y2="161.9" stroke="#dc2626" stroke-width="2" opacity="0.7" filter="url(#nf)"/>
  <circle cx="153.5" cy="161.9" r="3" fill="#dc2626" stroke="#f97316" stroke-width="1.5" filter="url(#nf)"/>
  <line x1="146.5" y1="161.9" x2="153.5" y2="161.9" stroke="#dc2626" stroke-width="2" opacity="0.7" filter="url(#nf)"/>
  <circle cx="160.4" cy="161.5" r="3" fill="#dc2626" stroke="#f97316" stroke-width="1.5" filter="url(#nf)"/>
  <line x1="153.5" y1="161.9" x2="160.4" y2="161.5" stroke="#dc2626" stroke-width="2" opacity="0.7" filter="url(#nf)"/>
  <circle cx="167.0" cy="160.6" r="3" fill="#dc2626" stroke="#f97316" stroke-width="1.5" filter="url(#nf)"/>
  <line x1="160.4" y1="161.5" x2="167.0" y2="160.6" stroke="#dc2626" stroke-width="2" opacity="0.7" filter="url(#nf)"/>
  <circle cx="173.3" cy="159.2" r="3" fill="#dc2626" stroke="#f97316" stroke-width="1.5" filter="url(#nf)"/>
  <line x1="167.0" y1="160.6" x2="173.3" y2="159.2" stroke="#dc2626" stroke-width="2" opacity="0.7" filter="url(#nf)"/>
  <circle cx="179.1" cy="157.5" r="3" fill="#dc2626" stroke="#f97316" stroke-width="1.5" filter="url(#nf)"/>
  <line x1="173.3" y1="159.2" x2="179.1" y2="157.5" stroke="#dc2626" stroke-width="2" opacity="0.7" filter="url(#nf)"/>
  <circle cx="184.3" cy="155.4" r="3" fill="#dc2626" stroke="#f97316" stroke-width="1.5" filter="url(#nf)"/>
  <line x1="179.1" y1="157.5" x2="184.3" y2="155.4" stroke="#dc2626" stroke-width="2" opacity="0.7" filter="url(#nf)"/>
  <circle cx="188.8" cy="152.9" r="3" fill="#dc2626" stroke="#f97316" stroke-width="1.5" filter="url(#nf)"/>
  <line x1="184.3" y1="155.4" x2="188.8" y2="152.9" stroke="#dc2626" stroke-width="2" opacity="0.7" filter="url(#nf)"/>
  <circle cx="150" cy="187" r="12" fill="#f97316" filter="url(#nf)"/>
  <rect x="0" y="265" width="300" height="35" fill="#050510" opacity="0.85"/>
  <text x="150" y="281" text-anchor="middle" font-family="Arial,sans-serif" font-size="11" font-weight="bold" fill="#3b82f6">Dragon Chain</text>
  <text x="150" y="294" text-anchor="middle" font-family="Arial,sans-serif" font-size="9" fill="#3b82f6">ELITE</text>
  <rect x="1" y="1" width="298" height="298" rx="10" fill="none" stroke="#3b82f6" stroke-width="2" opacity="0.5"/>
</svg>
