<svg xmlns="http://www.w3.org/2000/svg" viewBox="0 0 300 300" width="300" height="300">
  <defs>
    <radialGradient id="bgMain" cx="50%" cy="50%" r="70%">
      <stop offset="0%" stop-color="#0d0d28"/>
      <stop offset="100%" stop-color="#020208"/>
    </radialGradient>
  </defs>
  <rect width="300" height="300" fill="url(#bgMain)"/>
  <g opacity="0.5">
    <circle cx="163.5" cy="106.8" r="1.8" fill="white" opacity="0.47"/>
    <circle cx="152.9" cy="106.3" r="1.1" fill="white" opacity="0.88"/>
    <circle cx="39.0" cy="134.5" r="0.8" fill="white" opacity="0.51"/>
    <circle cx="289.6" cy="102.2" r="1.4" fill="white" opacity="0.55"/>
    <circle cx="214.5" cy="135.2" r="0.8" fill="white" opacity="0.56"/>
    <circle cx="124.3" cy="232.0" r="1.3" fill="white" opacity="0.42"/>
    <circle cx="198.7" cy="93.5" r="1.3" fill="white" opacity="0.43"/>
    <circle cx="125.0" cy="230.1" r="1.3" fill="white" opacity="0.75"/>
    <circle cx="221.9" cy="174.4" r="1.5" fill="white" opacity="0.54"/>
    <circle cx="183.0" cy="227.6" r="0.6" fill="white" opacity="0.86"/>
    <circle cx="112.8" cy="49.0" r="0.7" fill="white" opacity="0.50"/>
    <circle cx="29.4" cy="121.4" r="1.1" fill="white" opacity="0.69"/>
    <circle cx="140.6" cy="271.9" r="1.5" fill="white" opacity="0.49"/>
    <circle cx="255.0" cy="205.7" r="2.0" fill="white" opacity="0.74"/>
    <circle cx="280.4" cy="67.5" r="0.9" fill="white" opacity="0.88"/>
    <circle cx="16.1" cy="268.7" r="1.9" fill="white" opacity="0.38"/>
    <circle cx="52.2" cy="266.5" r="1.9" fill="white" opacity="0.82"/>
    <circle cx="212.9" cy="222.7" r="1.0" fill="white" opacity="0.30"/>
    <circle cx="185.8" cy="257.0" r="1.9" fill="white" opacity="0.61"/>
    <circle cx="12.3" cy="58.8" r="1.2" fill="white" opacity="0.44"/>
    <circle cx="17.8" cy="64.0" r="1.2" fill="white" opacity="0.38"/>
    <circle cx="41.6" cy="56.3" r="0.6" fill="white" opacity="0.77"/>
    <circle cx="252.4" cy="66.5" r="1.5" fill="white" opacity="0.83"/>
    <circle cx="78.2" cy="103.4" r="1.8" fill="white" opacity="0.76"/>
    <circle cx="183.9" cy="232.3" r="1.4" fill="white" opacity="0.49"/>
    <circle cx="201.9" cy="229.5" r="0.6" fill="white" opacity="0.49"/>
    <circle cx="92.4" cy="258.2" r="0.9" fill="white" opacity="0.70"/>
    <circle cx="131.8" cy="115.9" r="1.2" fill="white" opacity="0.84"/>
    <circle cx="194.3" cy="119.0" r="0.7" fill="white" opacity="0.51"/>
    <circle cx="141.8" cy="190.9" r="2.0" fill="white" opacity="0.49"/>
    <circle cx="273.2" cy="265.0" r="1.2" fill="white" opacity="0.43"/>
    <circle cx="75.5" cy="268.0" r="0.8" fill="white" opacity="0.69"/>
    <circle cx="192.7" cy="56.8" r="0.5" fill="white" opacity="0.68"/>
    <circle cx="24.8" cy="163.6" r="2.0" fill="white" opacity="0.58"/>
    <circle cx="97.4" cy="39.7" r="1.0" fill="white" opacity="0.49"/>
  </g>
  <defs>
    <radialGradient id="mg1" cx="150" cy="145" r="80" gradientUnits="userSpaceOnUse">
      <stop offset="0%" stop-color="#1a0000"/>
      <stop offset="50%" stop-color="#f59e0b"/>
      <stop offset="100%" stop-color="#050510"/>
    </radialGradient>
    <radialGradient id="mglow" cx="150" cy="145" r="65" gradientUnits="userSpaceOnUse">
      <stop offset="0%" stop-color="rgba(220,38,38,0.75)"/>
      <stop offset="100%" stop-color="transparent"/>
    </radialGradient>
    <filter id="mf" x="-40%" y="-40%" width="180%" height="180%">
      <feGaussianBlur in="SourceGraphic" stdDeviation="10" result="blur"/>
      <feColorMatrix in="blur" type="matrix" values="1 0 0 0 0  0 1 0 0 0  0 0 1 0 0  0 0 0 2.5 0" result="glow"/>
      <feMerge><feMergeNode in="glow"/><feMergeNode in="SourceGraphic"/></feMerge>
    </filter>
  </defs>
  <ellipse cx="150" cy="145" rx="65" ry="55" fill="url(#mglow)" opacity="0.3"/>
  <g fill="#1a1a2e" stroke="#ffffff" stroke-opacity="0.15" stroke-width="1">
    <rect x="138.0" y="152.0" width="24.0" height="24.0"/>
    <rect x="138.0" y="176.0" width="24.0" height="32.0"/>
    <rect x="130.0" y="176.0" width="8.0" height="28.0"/>
    <rect x="162.0" y="176.0" width="8.0" height="28.0"/>
    <rect x="138.0" y="208.0" width="11.0" height="28.0"/>
    <rect x="151.0" y="208.0" width="11.0" height="28.0"/>
  </g>
  <path d="M 112 145 Q 110 100 150 90 Q 190 100 188 145 Q 185 175 150 180 Q 115 175 112 145 Z" fill="url(#mg1)" filter="url(#mf)"/>
  <polygon points="122,92 110,60 134,92" fill="#1a0000" filter="url(#mf)" opacity="0.9"/>
  <polygon points="178,92 190,60 166,92" fill="#1a0000" filter="url(#mf)" opacity="0.9"/>
  <ellipse cx="135" cy="133" rx="10" ry="8" fill="#f59e0b" filter="url(#mf)"/>
  <ellipse cx="165" cy="133" rx="10" ry="8" fill="#f59e0b" filter="url(#mf)"/>
  <line x1="130" y1="157" x2="142" y2="153" stroke="#f59e0b" stroke-width="2.5" opacity="0.8"/>
  <line x1="170" y1="157" x2="158" y2="153" stroke="#f59e0b" stroke-width="2.5" opacity="0.8"/>
  <rect x="0" y="265" width="300" height="35" fill="#050510" opacity="0.85"/>
  <text x="150" y="281" text-anchor="middle" font-family="Arial,sans-serif" font-size="11" font-weight="bold" fill="#f59e0b">Dragon Mask</text>
  <text x="150" y="294" text-anchor="middle" font-family="Arial,sans-serif" font-size="9" fill="#fbbf24">EXCLUSIVE</text>
  <rect x="1" y="1" width="298" height="298" rx="10" fill="none" stroke="#f59e0b" stroke-width="2" opacity="0.5"/>
</svg>
