<svg xmlns="http://www.w3.org/2000/svg" viewBox="0 0 300 300" width="300" height="300">
  <defs>
    <radialGradient id="bgMain" cx="50%" cy="50%" r="70%">
      <stop offset="0%" stop-color="#0d0d28"/>
      <stop offset="100%" stop-color="#020208"/>
    </radialGradient>
  </defs>
  <rect width="300" height="300" fill="url(#bgMain)"/>
  <g opacity="0.5">
    <circle cx="41.6" cy="46.6" r="1.4" fill="white" opacity="0.41"/>
    <circle cx="47.1" cy="139.9" r="1.1" fill="white" opacity="0.43"/>
    <circle cx="119.7" cy="245.8" r="0.7" fill="white" opacity="0.41"/>
    <circle cx="17.8" cy="77.2" r="0.6" fill="white" opacity="0.89"/>
    <circle cx="98.1" cy="286.9" r="0.7" fill="white" opacity="0.84"/>
    <circle cx="151.8" cy="203.4" r="1.5" fill="white" opacity="0.46"/>
    <circle cx="75.1" cy="200.2" r="0.7" fill="white" opacity="0.31"/>
    <circle cx="225.9" cy="187.3" r="0.9" fill="white" opacity="0.61"/>
    <circle cx="264.8" cy="88.1" r="0.7" fill="white" opacity="0.55"/>
    <circle cx="56.9" cy="113.1" r="0.5" fill="white" opacity="0.76"/>
    <circle cx="235.8" cy="114.6" r="1.1" fill="white" opacity="0.45"/>
    <circle cx="277.1" cy="255.8" r="1.5" fill="white" opacity="0.40"/>
    <circle cx="58.3" cy="224.8" r="0.8" fill="white" opacity="0.71"/>
    <circle cx="127.9" cy="18.7" r="0.8" fill="white" opacity="0.85"/>
    <circle cx="100.3" cy="198.9" r="1.6" fill="white" opacity="0.54"/>
    <circle cx="149.8" cy="250.9" r="1.6" fill="white" opacity="0.61"/>
    <circle cx="162.5" cy="135.5" r="1.1" fill="white" opacity="0.70"/>
    <circle cx="78.2" cy="252.3" r="0.9" fill="white" opacity="0.44"/>
    <circle cx="279.8" cy="14.2" r="1.1" fill="white" opacity="0.63"/>
    <circle cx="133.2" cy="242.3" r="1.5" fill="white" opacity="0.60"/>
    <circle cx="11.0" cy="285.7" r="1.0" fill="white" opacity="0.52"/>
    <circle cx="71.5" cy="65.0" r="0.7" fill="white" opacity="0.38"/>
    <circle cx="198.3" cy="93.0" r="1.3" fill="white" opacity="0.69"/>
    <circle cx="30.2" cy="222.8" r="0.8" fill="white" opacity="0.78"/>
    <circle cx="258.6" cy="136.3" r="1.0" fill="white" opacity="0.60"/>
    <circle cx="262.0" cy="284.0" r="1.6" fill="white" opacity="0.54"/>
    <circle cx="122.0" cy="205.2" r="1.0" fill="white" opacity="0.77"/>
    <circle cx="105.8" cy="171.2" r="1.3" fill="white" opacity="0.62"/>
    <circle cx="245.6" cy="259.3" r="1.7" fill="white" opacity="0.69"/>
    <circle cx="121.1" cy="119.7" r="1.2" fill="white" opacity="0.81"/>
    <circle cx="216.0" cy="35.5" r="0.9" fill="white" opacity="0.34"/>
    <circle cx="95.2" cy="241.7" r="1.4" fill="white" opacity="0.31"/>
    <circle cx="220.0" cy="182.6" r="1.2" fill="white" opacity="0.32"/>
    <circle cx="14.7" cy="29.9" r="1.8" fill="white" opacity="0.55"/>
    <circle cx="26.2" cy="237.6" r="1.2" fill="white" opacity="0.51"/>
  </g>
  <defs>
    <radialGradient id="mg1" cx="150" cy="145" r="80" gradientUnits="userSpaceOnUse">
      <stop offset="0%" stop-color="#1a0a00"/>
      <stop offset="50%" stop-color="#f97316"/>
      <stop offset="100%" stop-color="#050510"/>
    </radialGradient>
    <radialGradient id="mglow" cx="150" cy="145" r="65" gradientUnits="userSpaceOnUse">
      <stop offset="0%" stop-color="rgba(249,115,22,0.55)"/>
      <stop offset="100%" stop-color="transparent"/>
    </radialGradient>
    <filter id="mf" x="-40%" y="-40%" width="180%" height="180%">
      <feGaussianBlur in="SourceGraphic" stdDeviation="10" result="blur"/>
      <feColorMatrix in="blur" type="matrix" values="1 0 0 0 0  0 1 0 0 0  0 0 1 0 0  0 0 0 2.5 0" result="glow"/>
      <feMerge><feMergeNode in="glow"/><feMergeNode in="SourceGraphic"/></feMerge>
    </filter>
  </defs>
  <ellipse cx="150" cy="145" rx="65" ry="55" fill="url(#mglow)" opacity="0.3"/>
  <g fill="#1a1a2e" stroke="#ffffff" stroke-opacity="0.15" stroke-width="1">
    <rect x="138.0" y="152.0" width="24.0" height="24.0"/>
    <rect x="138.0" y="176.0" width="24.0" height="32.0"/>
    <rect x="130.0" y="176.0" width="8.0" height="28.0"/>
    <rect x="162.0" y="176.0" width="8.0" height="28.0"/>
    <rect x="138.0" y="208.0" width="11.0" height="28.0"/>
    <rect x="151.0" y="208.0" width="11.0" height="28.0"/>
  </g>
  <path d="M 110 150 Q 108 105 150 93 Q 192 105 190 150 Q 150 175 110 150 Z" fill="url(#mg1)" filter="url(#mf)"/>
  <polygon points="112,107 95,73 130,107" fill="#1a0a00" filter="url(#mf)"/>
  <polygon points="188,107 205,73 170,107" fill="#1a0a00" filter="url(#mf)"/>
  <ellipse cx="135" cy="135" rx="9" ry="7" fill="#f97316" filter="url(#mf)"/>
  <ellipse cx="165" cy="135" rx="9" ry="7" fill="#f97316" filter="url(#mf)"/>
  <rect x="0" y="265" width="300" height="35" fill="#050510" opacity="0.85"/>
  <text x="150" y="281" text-anchor="middle" font-family="Arial,sans-serif" font-size="11" font-weight="bold" fill="#10b981">Fox Mask</text>
  <text x="150" y="294" text-anchor="middle" font-family="Arial,sans-serif" font-size="9" fill="#10b981">PREMIUM</text>
  <rect x="1" y="1" width="298" height="298" rx="10" fill="none" stroke="#10b981" stroke-width="2" opacity="0.5"/>
</svg>
