<svg xmlns="http://www.w3.org/2000/svg" viewBox="0 0 300 300" width="300" height="300">
  <defs>
    <radialGradient id="bgMain" cx="50%" cy="50%" r="70%">
      <stop offset="0%" stop-color="#0d0d28"/>
      <stop offset="100%" stop-color="#020208"/>
    </radialGradient>
  </defs>
  <rect width="300" height="300" fill="url(#bgMain)"/>
  <g opacity="0.5">
    <circle cx="76.6" cy="162.4" r="1.1" fill="white" opacity="0.66"/>
    <circle cx="185.2" cy="28.3" r="0.5" fill="white" opacity="0.80"/>
    <circle cx="82.6" cy="75.6" r="2.0" fill="white" opacity="0.58"/>
    <circle cx="244.2" cy="143.4" r="1.5" fill="white" opacity="0.39"/>
    <circle cx="187.8" cy="253.1" r="1.3" fill="white" opacity="0.74"/>
    <circle cx="198.0" cy="27.9" r="1.6" fill="white" opacity="0.65"/>
    <circle cx="94.4" cy="18.7" r="1.8" fill="white" opacity="0.58"/>
    <circle cx="211.3" cy="256.1" r="1.6" fill="white" opacity="0.85"/>
    <circle cx="120.6" cy="234.3" r="1.2" fill="white" opacity="0.86"/>
    <circle cx="256.1" cy="37.3" r="0.7" fill="white" opacity="0.43"/>
    <circle cx="280.3" cy="132.1" r="1.4" fill="white" opacity="0.48"/>
    <circle cx="152.0" cy="118.0" r="1.0" fill="white" opacity="0.65"/>
    <circle cx="173.6" cy="263.2" r="1.5" fill="white" opacity="0.86"/>
    <circle cx="249.8" cy="287.5" r="1.5" fill="white" opacity="0.40"/>
    <circle cx="251.0" cy="280.1" r="1.9" fill="white" opacity="0.64"/>
    <circle cx="209.9" cy="69.1" r="1.7" fill="white" opacity="0.64"/>
    <circle cx="89.8" cy="27.8" r="1.8" fill="white" opacity="0.89"/>
    <circle cx="34.8" cy="234.2" r="1.1" fill="white" opacity="0.39"/>
    <circle cx="92.3" cy="225.3" r="1.8" fill="white" opacity="0.33"/>
    <circle cx="182.1" cy="22.6" r="1.6" fill="white" opacity="0.50"/>
    <circle cx="256.7" cy="284.6" r="1.3" fill="white" opacity="0.90"/>
    <circle cx="96.7" cy="31.6" r="1.4" fill="white" opacity="0.32"/>
    <circle cx="65.3" cy="124.2" r="1.4" fill="white" opacity="0.39"/>
    <circle cx="21.9" cy="253.0" r="1.0" fill="white" opacity="0.88"/>
    <circle cx="261.1" cy="115.8" r="1.2" fill="white" opacity="0.61"/>
    <circle cx="190.3" cy="176.8" r="1.3" fill="white" opacity="0.67"/>
    <circle cx="273.4" cy="152.0" r="1.1" fill="white" opacity="0.73"/>
    <circle cx="76.5" cy="94.3" r="2.0" fill="white" opacity="0.61"/>
    <circle cx="163.6" cy="13.2" r="1.1" fill="white" opacity="0.65"/>
    <circle cx="15.6" cy="182.4" r="1.4" fill="white" opacity="0.34"/>
    <circle cx="185.7" cy="140.6" r="1.5" fill="white" opacity="0.51"/>
    <circle cx="207.9" cy="216.6" r="0.5" fill="white" opacity="0.34"/>
    <circle cx="199.3" cy="279.7" r="0.9" fill="white" opacity="0.57"/>
    <circle cx="175.9" cy="99.6" r="1.0" fill="white" opacity="0.49"/>
    <circle cx="113.4" cy="176.8" r="1.0" fill="white" opacity="0.53"/>
  </g>
  <defs>
    <linearGradient id="wgL" x1="0" y1="0" x2="1" y2="0">
      <stop offset="0%" stop-color="#bae6fd" stop-opacity="1"/>
      <stop offset="50%" stop-color="#3b82f6" stop-opacity="1"/>
      <stop offset="100%" stop-color="#0a0a18" stop-opacity="0.3"/>
    </linearGradient>
    <linearGradient id="wgR" x1="1" y1="0" x2="0" y2="0">
      <stop offset="0%" stop-color="#bae6fd" stop-opacity="1"/>
      <stop offset="50%" stop-color="#3b82f6" stop-opacity="1"/>
      <stop offset="100%" stop-color="#0a0a18" stop-opacity="0.3"/>
    </linearGradient>
    <radialGradient id="wglow" cx="150" cy="165" r="90" gradientUnits="userSpaceOnUse">
      <stop offset="0%" stop-color="rgba(59,130,246,0.6)"/>
      <stop offset="100%" stop-color="transparent"/>
    </radialGradient>
    <filter id="wf" x="-40%" y="-40%" width="180%" height="180%">
      <feGaussianBlur in="SourceGraphic" stdDeviation="12" result="blur"/>
      <feColorMatrix in="blur" type="matrix" values="1 0 0 0 0  0 1 0 0 0  0 0 1 0 0  0 0 0 2.5 0" result="glow"/>
      <feMerge><feMergeNode in="glow"/><feMergeNode in="SourceGraphic"/></feMerge>
    </filter>
  </defs>
  <circle cx="150" cy="165" r="90" fill="url(#wglow)" opacity="0.4"/>
  <polygon points="150,165 54.6,144.8 63.9,124.9 73.2,104.9" fill="url(#wgL)" opacity="0.90" filter="url(#wf)"/>
  <polygon points="150,165 226.8,104.9 236.1,124.9 245.4,144.8" fill="url(#wgR)" opacity="0.90" filter="url(#wf)"/>
  <polygon points="150,165 65.6,177.2 67.3,157.8 69.0,138.3" fill="url(#wgL)" opacity="0.82" filter="url(#wf)"/>
  <polygon points="150,165 231.0,138.3 232.7,157.8 234.4,177.2" fill="url(#wgR)" opacity="0.82" filter="url(#wf)"/>
  <polygon points="150,165 85.8,199.8 81.4,183.4 77.0,167.0" fill="url(#wgL)" opacity="0.74" filter="url(#wf)"/>
  <polygon points="150,165 223.0,167.0 218.6,183.4 214.2,199.8" fill="url(#wgR)" opacity="0.74" filter="url(#wf)"/>
  <polygon points="150,165 110.0,210.7 101.7,198.8 93.4,187.0" fill="url(#wgL)" opacity="0.66" filter="url(#wf)"/>
  <polygon points="150,165 206.6,187.0 198.3,198.8 190.0,210.7" fill="url(#wgR)" opacity="0.66" filter="url(#wf)"/>
  <polygon points="150,165 132.9,210.4 123.0,203.5 113.2,196.6" fill="url(#wgL)" opacity="0.58" filter="url(#wf)"/>
  <polygon points="150,165 186.8,196.6 177.0,203.5 167.1,210.4" fill="url(#wgR)" opacity="0.58" filter="url(#wf)"/>
  <rect x="0" y="265" width="300" height="35" fill="#050510" opacity="0.85"/>
  <text x="150" y="281" text-anchor="middle" font-family="Arial,sans-serif" font-size="11" font-weight="bold" fill="#3b82f6">Frost Wings</text>
  <text x="150" y="294" text-anchor="middle" font-family="Arial,sans-serif" font-size="9" fill="#3b82f6">ELITE</text>
  <rect x="1" y="1" width="298" height="298" rx="10" fill="none" stroke="#3b82f6" stroke-width="2" opacity="0.5"/>
</svg>
