<svg xmlns="http://www.w3.org/2000/svg" viewBox="0 0 300 300" width="300" height="300">
  <defs>
    <radialGradient id="bgMain" cx="50%" cy="50%" r="70%">
      <stop offset="0%" stop-color="#0d0d28"/>
      <stop offset="100%" stop-color="#020208"/>
    </radialGradient>
  </defs>
  <rect width="300" height="300" fill="url(#bgMain)"/>
  <g opacity="0.5">
    <circle cx="108.5" cy="130.5" r="1.2" fill="white" opacity="0.51"/>
    <circle cx="153.5" cy="119.9" r="0.6" fill="white" opacity="0.55"/>
    <circle cx="16.6" cy="38.7" r="0.9" fill="white" opacity="0.88"/>
    <circle cx="144.8" cy="163.1" r="1.9" fill="white" opacity="0.84"/>
    <circle cx="168.9" cy="74.4" r="1.3" fill="white" opacity="0.52"/>
    <circle cx="278.2" cy="19.3" r="1.1" fill="white" opacity="0.71"/>
    <circle cx="178.3" cy="166.2" r="1.6" fill="white" opacity="0.44"/>
    <circle cx="245.4" cy="266.2" r="0.6" fill="white" opacity="0.50"/>
    <circle cx="111.6" cy="117.4" r="1.3" fill="white" opacity="0.45"/>
    <circle cx="191.7" cy="256.7" r="1.9" fill="white" opacity="0.81"/>
    <circle cx="71.2" cy="218.4" r="1.7" fill="white" opacity="0.66"/>
    <circle cx="199.0" cy="90.2" r="1.7" fill="white" opacity="0.44"/>
    <circle cx="165.5" cy="83.2" r="1.3" fill="white" opacity="0.32"/>
    <circle cx="97.4" cy="228.3" r="0.9" fill="white" opacity="0.74"/>
    <circle cx="233.9" cy="179.8" r="1.4" fill="white" opacity="0.42"/>
    <circle cx="145.9" cy="279.5" r="2.0" fill="white" opacity="0.63"/>
    <circle cx="134.3" cy="284.7" r="1.3" fill="white" opacity="0.78"/>
    <circle cx="33.2" cy="84.4" r="1.7" fill="white" opacity="0.63"/>
    <circle cx="229.1" cy="132.0" r="1.9" fill="white" opacity="0.32"/>
    <circle cx="84.2" cy="190.4" r="1.3" fill="white" opacity="0.70"/>
    <circle cx="142.1" cy="208.3" r="1.7" fill="white" opacity="0.49"/>
    <circle cx="16.2" cy="78.0" r="1.0" fill="white" opacity="0.90"/>
    <circle cx="278.3" cy="203.7" r="0.8" fill="white" opacity="0.85"/>
    <circle cx="45.8" cy="48.3" r="1.7" fill="white" opacity="0.51"/>
    <circle cx="119.9" cy="84.7" r="0.5" fill="white" opacity="0.37"/>
    <circle cx="28.8" cy="15.8" r="0.6" fill="white" opacity="0.41"/>
    <circle cx="153.3" cy="147.5" r="1.7" fill="white" opacity="0.79"/>
    <circle cx="157.9" cy="167.8" r="0.5" fill="white" opacity="0.34"/>
    <circle cx="244.0" cy="268.1" r="1.0" fill="white" opacity="0.82"/>
    <circle cx="255.7" cy="75.7" r="0.6" fill="white" opacity="0.37"/>
    <circle cx="34.8" cy="25.1" r="1.3" fill="white" opacity="0.44"/>
    <circle cx="261.0" cy="159.8" r="1.3" fill="white" opacity="0.76"/>
    <circle cx="183.3" cy="287.1" r="0.6" fill="white" opacity="0.59"/>
    <circle cx="165.8" cy="276.9" r="1.1" fill="white" opacity="0.51"/>
    <circle cx="94.8" cy="246.4" r="1.2" fill="white" opacity="0.38"/>
  </g>
  <defs>
    <radialGradient id="ng1" cx="150" cy="155" r="60" gradientUnits="userSpaceOnUse">
      <stop offset="0%" stop-color="rgba(245,158,11,0.6)"/>
      <stop offset="100%" stop-color="transparent"/>
    </radialGradient>
    <filter id="nf" x="-40%" y="-40%" width="180%" height="180%">
      <feGaussianBlur in="SourceGraphic" stdDeviation="8" result="blur"/>
      <feColorMatrix in="blur" type="matrix" values="1 0 0 0 0  0 1 0 0 0  0 0 1 0 0  0 0 0 2.2 0" result="glow"/>
      <feMerge><feMergeNode in="glow"/><feMergeNode in="SourceGraphic"/></feMerge>
    </filter>
  </defs>
  <circle cx="150" cy="155" r="60" fill="url(#ng1)" opacity="0.3"/>
  <g fill="#1a1a2e" stroke="#ffffff" stroke-opacity="0.15" stroke-width="1">
    <rect x="138.0" y="117.0" width="24.0" height="24.0"/>
    <rect x="138.0" y="141.0" width="24.0" height="32.0"/>
    <rect x="130.0" y="141.0" width="8.0" height="28.0"/>
    <rect x="162.0" y="141.0" width="8.0" height="28.0"/>
    <rect x="138.0" y="173.0" width="11.0" height="28.0"/>
    <rect x="151.0" y="173.0" width="11.0" height="28.0"/>
  </g>
  <circle cx="111.2" cy="152.9" r="4" fill="#f59e0b" stroke="#fbbf24" stroke-width="1.5" filter="url(#nf)"/>
  <circle cx="115.7" cy="155.4" r="4" fill="#f59e0b" stroke="#fbbf24" stroke-width="1.5" filter="url(#nf)"/>
  <line x1="111.2" y1="152.9" x2="115.7" y2="155.4" stroke="#f59e0b" stroke-width="2" opacity="0.7" filter="url(#nf)"/>
  <circle cx="120.9" cy="157.5" r="4" fill="#f59e0b" stroke="#fbbf24" stroke-width="1.5" filter="url(#nf)"/>
  <line x1="115.7" y1="155.4" x2="120.9" y2="157.5" stroke="#f59e0b" stroke-width="2" opacity="0.7" filter="url(#nf)"/>
  <circle cx="126.7" cy="159.2" r="4" fill="#f59e0b" stroke="#fbbf24" stroke-width="1.5" filter="url(#nf)"/>
  <line x1="120.9" y1="157.5" x2="126.7" y2="159.2" stroke="#f59e0b" stroke-width="2" opacity="0.7" filter="url(#nf)"/>
  <circle cx="133.0" cy="160.6" r="4" fill="#f59e0b" stroke="#fbbf24" stroke-width="1.5" filter="url(#nf)"/>
  <line x1="126.7" y1="159.2" x2="133.0" y2="160.6" stroke="#f59e0b" stroke-width="2" opacity="0.7" filter="url(#nf)"/>
  <circle cx="139.6" cy="161.5" r="4" fill="#f59e0b" stroke="#fbbf24" stroke-width="1.5" filter="url(#nf)"/>
  <line x1="133.0" y1="160.6" x2="139.6" y2="161.5" stroke="#f59e0b" stroke-width="2" opacity="0.7" filter="url(#nf)"/>
  <circle cx="146.5" cy="161.9" r="4" fill="#f59e0b" stroke="#fbbf24" stroke-width="1.5" filter="url(#nf)"/>
  <line x1="139.6" y1="161.5" x2="146.5" y2="161.9" stroke="#f59e0b" stroke-width="2" opacity="0.7" filter="url(#nf)"/>
  <circle cx="153.5" cy="161.9" r="4" fill="#f59e0b" stroke="#fbbf24" stroke-width="1.5" filter="url(#nf)"/>
  <line x1="146.5" y1="161.9" x2="153.5" y2="161.9" stroke="#f59e0b" stroke-width="2" opacity="0.7" filter="url(#nf)"/>
  <circle cx="160.4" cy="161.5" r="4" fill="#f59e0b" stroke="#fbbf24" stroke-width="1.5" filter="url(#nf)"/>
  <line x1="153.5" y1="161.9" x2="160.4" y2="161.5" stroke="#f59e0b" stroke-width="2" opacity="0.7" filter="url(#nf)"/>
  <circle cx="167.0" cy="160.6" r="4" fill="#f59e0b" stroke="#fbbf24" stroke-width="1.5" filter="url(#nf)"/>
  <line x1="160.4" y1="161.5" x2="167.0" y2="160.6" stroke="#f59e0b" stroke-width="2" opacity="0.7" filter="url(#nf)"/>
  <circle cx="173.3" cy="159.2" r="4" fill="#f59e0b" stroke="#fbbf24" stroke-width="1.5" filter="url(#nf)"/>
  <line x1="167.0" y1="160.6" x2="173.3" y2="159.2" stroke="#f59e0b" stroke-width="2" opacity="0.7" filter="url(#nf)"/>
  <circle cx="179.1" cy="157.5" r="4" fill="#f59e0b" stroke="#fbbf24" stroke-width="1.5" filter="url(#nf)"/>
  <line x1="173.3" y1="159.2" x2="179.1" y2="157.5" stroke="#f59e0b" stroke-width="2" opacity="0.7" filter="url(#nf)"/>
  <circle cx="184.3" cy="155.4" r="4" fill="#f59e0b" stroke="#fbbf24" stroke-width="1.5" filter="url(#nf)"/>
  <line x1="179.1" y1="157.5" x2="184.3" y2="155.4" stroke="#f59e0b" stroke-width="2" opacity="0.7" filter="url(#nf)"/>
  <circle cx="188.8" cy="152.9" r="4" fill="#f59e0b" stroke="#fbbf24" stroke-width="1.5" filter="url(#nf)"/>
  <line x1="184.3" y1="155.4" x2="188.8" y2="152.9" stroke="#f59e0b" stroke-width="2" opacity="0.7" filter="url(#nf)"/>
  <polygon points="150,173 162,191 150,201 138,191" fill="#fbbf24" filter="url(#nf)"/>
  <rect x="0" y="265" width="300" height="35" fill="#050510" opacity="0.85"/>
  <text x="150" y="281" text-anchor="middle" font-family="Arial,sans-serif" font-size="11" font-weight="bold" fill="#10b981">Gold Chain</text>
  <text x="150" y="294" text-anchor="middle" font-family="Arial,sans-serif" font-size="9" fill="#10b981">PREMIUM</text>
  <rect x="1" y="1" width="298" height="298" rx="10" fill="none" stroke="#10b981" stroke-width="2" opacity="0.5"/>
</svg>
