<svg xmlns="http://www.w3.org/2000/svg" viewBox="0 0 300 300" width="300" height="300">
  <defs>
    <radialGradient id="bgMain" cx="50%" cy="50%" r="70%">
      <stop offset="0%" stop-color="#0d0d28"/>
      <stop offset="100%" stop-color="#020208"/>
    </radialGradient>
  </defs>
  <rect width="300" height="300" fill="url(#bgMain)"/>
  <g opacity="0.5">
    <circle cx="111.2" cy="144.5" r="1.1" fill="white" opacity="0.57"/>
    <circle cx="124.7" cy="194.2" r="0.9" fill="white" opacity="0.68"/>
    <circle cx="12.8" cy="94.6" r="1.0" fill="white" opacity="0.39"/>
    <circle cx="218.2" cy="96.8" r="1.7" fill="white" opacity="0.87"/>
    <circle cx="81.0" cy="260.2" r="1.7" fill="white" opacity="0.70"/>
    <circle cx="17.7" cy="137.9" r="1.4" fill="white" opacity="0.48"/>
    <circle cx="72.8" cy="96.7" r="0.9" fill="white" opacity="0.77"/>
    <circle cx="107.4" cy="128.5" r="1.5" fill="white" opacity="0.87"/>
    <circle cx="92.0" cy="22.3" r="2.0" fill="white" opacity="0.80"/>
    <circle cx="231.3" cy="156.5" r="0.9" fill="white" opacity="0.39"/>
    <circle cx="95.2" cy="139.0" r="0.6" fill="white" opacity="0.72"/>
    <circle cx="213.8" cy="13.7" r="1.8" fill="white" opacity="0.59"/>
    <circle cx="267.3" cy="143.0" r="1.7" fill="white" opacity="0.57"/>
    <circle cx="181.6" cy="149.8" r="0.5" fill="white" opacity="0.39"/>
    <circle cx="75.0" cy="123.7" r="1.1" fill="white" opacity="0.62"/>
    <circle cx="194.6" cy="122.0" r="1.0" fill="white" opacity="0.61"/>
    <circle cx="276.8" cy="229.2" r="1.5" fill="white" opacity="0.79"/>
    <circle cx="73.8" cy="38.3" r="0.6" fill="white" opacity="0.37"/>
    <circle cx="12.6" cy="185.2" r="1.9" fill="white" opacity="0.37"/>
    <circle cx="202.3" cy="273.4" r="1.6" fill="white" opacity="0.39"/>
    <circle cx="188.7" cy="81.5" r="0.8" fill="white" opacity="0.31"/>
    <circle cx="157.1" cy="267.3" r="0.7" fill="white" opacity="0.39"/>
    <circle cx="118.7" cy="20.8" r="1.2" fill="white" opacity="0.74"/>
    <circle cx="139.0" cy="20.9" r="0.5" fill="white" opacity="0.42"/>
    <circle cx="196.8" cy="269.0" r="1.3" fill="white" opacity="0.36"/>
    <circle cx="70.5" cy="126.5" r="0.7" fill="white" opacity="0.37"/>
    <circle cx="131.5" cy="245.3" r="0.9" fill="white" opacity="0.83"/>
    <circle cx="255.3" cy="131.2" r="0.8" fill="white" opacity="0.41"/>
    <circle cx="196.9" cy="241.2" r="1.8" fill="white" opacity="0.43"/>
    <circle cx="129.4" cy="16.1" r="1.0" fill="white" opacity="0.48"/>
    <circle cx="44.7" cy="31.3" r="2.0" fill="white" opacity="0.48"/>
    <circle cx="149.7" cy="159.6" r="1.2" fill="white" opacity="0.65"/>
    <circle cx="150.7" cy="147.3" r="0.6" fill="white" opacity="0.68"/>
    <circle cx="197.3" cy="212.7" r="1.0" fill="white" opacity="0.58"/>
    <circle cx="235.8" cy="213.8" r="0.6" fill="white" opacity="0.50"/>
  </g>
  <defs>
    <linearGradient id="cg1" x1="0" y1="0" x2="0" y2="1">
      <stop offset="0%" stop-color="#0a0a14" stop-opacity="1"/>
      <stop offset="50%" stop-color="#6b7280" stop-opacity="0.9"/>
      <stop offset="100%" stop-color="#050510" stop-opacity="0.6"/>
    </linearGradient>
    <radialGradient id="cglow" cx="150" cy="200" r="100" gradientUnits="userSpaceOnUse">
      <stop offset="0%" stop-color="rgba(107,114,128,0.4)"/>
      <stop offset="100%" stop-color="transparent"/>
    </radialGradient>
    <filter id="cf" x="-40%" y="-40%" width="180%" height="180%">
      <feGaussianBlur in="SourceGraphic" stdDeviation="10" result="blur"/>
      <feColorMatrix in="blur" type="matrix" values="1 0 0 0 0  0 1 0 0 0  0 0 1 0 0  0 0 0 2 0" result="glow"/>
      <feMerge><feMergeNode in="glow"/><feMergeNode in="SourceGraphic"/></feMerge>
    </filter>
  </defs>
  <ellipse cx="150" cy="200" rx="100" ry="80" fill="url(#cglow)" opacity="0.35"/>
  <polygon points="120,95 180,95 210,270 90,270" fill="url(#cg1)" filter="url(#cf)"/>
  <line x1="120" y1="95" x2="150" y2="110" stroke="#0a0a14" stroke-width="2" opacity="0.7"/>
  <line x1="180" y1="95" x2="150" y2="110" stroke="#0a0a14" stroke-width="2" opacity="0.7"/>
  <rect x="0" y="265" width="300" height="35" fill="#050510" opacity="0.85"/>
  <text x="150" y="281" text-anchor="middle" font-family="Arial,sans-serif" font-size="11" font-weight="bold" fill="#9ca3af">Night Cloak</text>
  <text x="150" y="294" text-anchor="middle" font-family="Arial,sans-serif" font-size="9" fill="#9ca3af">STANDARD</text>
  <rect x="1" y="1" width="298" height="298" rx="10" fill="none" stroke="#9ca3af" stroke-width="2" opacity="0.5"/>
</svg>
