<svg xmlns="http://www.w3.org/2000/svg" viewBox="0 0 300 300" width="300" height="300">
  <defs>
    <radialGradient id="bgMain" cx="50%" cy="50%" r="70%">
      <stop offset="0%" stop-color="#0d0d28"/>
      <stop offset="100%" stop-color="#020208"/>
    </radialGradient>
  </defs>
  <rect width="300" height="300" fill="url(#bgMain)"/>
  <g opacity="0.5">
    <circle cx="156.2" cy="235.9" r="1.9" fill="white" opacity="0.47"/>
    <circle cx="224.5" cy="207.2" r="1.5" fill="white" opacity="0.37"/>
    <circle cx="17.5" cy="117.6" r="1.6" fill="white" opacity="0.45"/>
    <circle cx="150.4" cy="98.9" r="1.8" fill="white" opacity="0.87"/>
    <circle cx="122.4" cy="289.6" r="0.6" fill="white" opacity="0.79"/>
    <circle cx="255.1" cy="52.3" r="1.6" fill="white" opacity="0.64"/>
    <circle cx="277.5" cy="68.8" r="1.3" fill="white" opacity="0.83"/>
    <circle cx="188.9" cy="96.6" r="0.6" fill="white" opacity="0.86"/>
    <circle cx="142.7" cy="289.0" r="0.7" fill="white" opacity="0.79"/>
    <circle cx="237.7" cy="267.6" r="0.5" fill="white" opacity="0.52"/>
    <circle cx="24.5" cy="220.6" r="1.0" fill="white" opacity="0.88"/>
    <circle cx="115.0" cy="226.8" r="1.8" fill="white" opacity="0.44"/>
    <circle cx="165.9" cy="278.1" r="1.3" fill="white" opacity="0.52"/>
    <circle cx="84.8" cy="230.2" r="0.8" fill="white" opacity="0.66"/>
    <circle cx="165.6" cy="165.0" r="0.7" fill="white" opacity="0.70"/>
    <circle cx="266.6" cy="99.3" r="1.0" fill="white" opacity="0.85"/>
    <circle cx="171.9" cy="86.3" r="0.5" fill="white" opacity="0.75"/>
    <circle cx="107.4" cy="140.8" r="0.9" fill="white" opacity="0.68"/>
    <circle cx="214.1" cy="96.7" r="0.6" fill="white" opacity="0.89"/>
    <circle cx="264.8" cy="15.8" r="1.3" fill="white" opacity="0.71"/>
    <circle cx="122.8" cy="214.9" r="1.9" fill="white" opacity="0.65"/>
    <circle cx="119.6" cy="64.8" r="0.9" fill="white" opacity="0.39"/>
    <circle cx="40.9" cy="69.5" r="1.8" fill="white" opacity="0.62"/>
    <circle cx="235.4" cy="267.7" r="1.7" fill="white" opacity="0.33"/>
    <circle cx="269.3" cy="36.0" r="1.7" fill="white" opacity="0.80"/>
    <circle cx="194.1" cy="123.0" r="0.6" fill="white" opacity="0.35"/>
    <circle cx="188.2" cy="77.7" r="1.3" fill="white" opacity="0.46"/>
    <circle cx="55.8" cy="92.7" r="1.6" fill="white" opacity="0.59"/>
    <circle cx="120.0" cy="146.2" r="1.3" fill="white" opacity="0.61"/>
    <circle cx="134.6" cy="280.9" r="1.6" fill="white" opacity="0.44"/>
    <circle cx="99.1" cy="62.9" r="1.0" fill="white" opacity="0.32"/>
    <circle cx="218.5" cy="169.0" r="1.1" fill="white" opacity="0.84"/>
    <circle cx="102.0" cy="172.0" r="1.9" fill="white" opacity="0.63"/>
    <circle cx="181.6" cy="113.0" r="2.0" fill="white" opacity="0.75"/>
    <circle cx="94.9" cy="109.5" r="1.4" fill="white" opacity="0.61"/>
  </g>
  <defs>
    <linearGradient id="cg1" x1="0" y1="0" x2="0" y2="1">
      <stop offset="0%" stop-color="#1a0600" stop-opacity="1"/>
      <stop offset="50%" stop-color="#f97316" stop-opacity="0.9"/>
      <stop offset="100%" stop-color="#050510" stop-opacity="0.6"/>
    </linearGradient>
    <radialGradient id="cglow" cx="150" cy="200" r="100" gradientUnits="userSpaceOnUse">
      <stop offset="0%" stop-color="rgba(249,115,22,0.7)"/>
      <stop offset="100%" stop-color="transparent"/>
    </radialGradient>
    <filter id="cf" x="-40%" y="-40%" width="180%" height="180%">
      <feGaussianBlur in="SourceGraphic" stdDeviation="10" result="blur"/>
      <feColorMatrix in="blur" type="matrix" values="1 0 0 0 0  0 1 0 0 0  0 0 1 0 0  0 0 0 2 0" result="glow"/>
      <feMerge><feMergeNode in="glow"/><feMergeNode in="SourceGraphic"/></feMerge>
    </filter>
  </defs>
  <ellipse cx="150" cy="200" rx="100" ry="80" fill="url(#cglow)" opacity="0.35"/>
  <polygon points="120,95 180,95 210,270 90,270" fill="url(#cg1)" filter="url(#cf)"/>
  <line x1="120" y1="95" x2="150" y2="110" stroke="#1a0600" stroke-width="2" opacity="0.7"/>
  <line x1="180" y1="95" x2="150" y2="110" stroke="#1a0600" stroke-width="2" opacity="0.7"/>
  <line x1="122.5" y1="130" x2="177.5" y2="130" stroke="#1a0600" stroke-width="2" opacity="0.5" filter="url(#cf)"/>
  <line x1="117.6" y1="158" x2="182.4" y2="158" stroke="#1a0600" stroke-width="2" opacity="0.5" filter="url(#cf)"/>
  <line x1="112.7" y1="186" x2="187.3" y2="186" stroke="#1a0600" stroke-width="2" opacity="0.5" filter="url(#cf)"/>
  <line x1="107.8" y1="214" x2="192.2" y2="214" stroke="#1a0600" stroke-width="2" opacity="0.5" filter="url(#cf)"/>
  <line x1="102.9" y1="242" x2="197.1" y2="242" stroke="#1a0600" stroke-width="2" opacity="0.5" filter="url(#cf)"/>
  <rect x="0" y="265" width="300" height="35" fill="#050510" opacity="0.85"/>
  <text x="150" y="281" text-anchor="middle" font-family="Arial,sans-serif" font-size="11" font-weight="bold" fill="#ef4444">Phoenix Cloak</text>
  <text x="150" y="294" text-anchor="middle" font-family="Arial,sans-serif" font-size="9" fill="#ef4444">MYTHIC</text>
  <rect x="1" y="1" width="298" height="298" rx="10" fill="none" stroke="#ef4444" stroke-width="2" opacity="0.5"/>
</svg>
