<svg xmlns="http://www.w3.org/2000/svg" viewBox="0 0 300 300" width="300" height="300">
  <defs>
    <radialGradient id="bgMain" cx="50%" cy="50%" r="70%">
      <stop offset="0%" stop-color="#0d0d28"/>
      <stop offset="100%" stop-color="#020208"/>
    </radialGradient>
  </defs>
  <rect width="300" height="300" fill="url(#bgMain)"/>
  <g opacity="0.5">
    <circle cx="20.8" cy="204.9" r="0.7" fill="white" opacity="0.58"/>
    <circle cx="198.1" cy="232.0" r="1.2" fill="white" opacity="0.60"/>
    <circle cx="15.4" cy="131.1" r="1.1" fill="white" opacity="0.81"/>
    <circle cx="163.2" cy="221.5" r="1.2" fill="white" opacity="0.41"/>
    <circle cx="248.2" cy="239.7" r="1.1" fill="white" opacity="0.36"/>
    <circle cx="153.5" cy="148.9" r="1.7" fill="white" opacity="0.66"/>
    <circle cx="151.9" cy="171.0" r="1.1" fill="white" opacity="0.33"/>
    <circle cx="27.1" cy="273.7" r="1.8" fill="white" opacity="0.48"/>
    <circle cx="258.9" cy="156.2" r="0.7" fill="white" opacity="0.81"/>
    <circle cx="173.6" cy="271.2" r="1.5" fill="white" opacity="0.36"/>
    <circle cx="184.4" cy="230.3" r="1.8" fill="white" opacity="0.50"/>
    <circle cx="158.1" cy="206.3" r="0.8" fill="white" opacity="0.81"/>
    <circle cx="228.6" cy="24.0" r="1.4" fill="white" opacity="0.52"/>
    <circle cx="62.1" cy="179.3" r="2.0" fill="white" opacity="0.63"/>
    <circle cx="41.7" cy="148.6" r="1.7" fill="white" opacity="0.87"/>
    <circle cx="210.2" cy="21.6" r="1.9" fill="white" opacity="0.66"/>
    <circle cx="33.4" cy="45.6" r="0.6" fill="white" opacity="0.70"/>
    <circle cx="53.1" cy="236.1" r="0.7" fill="white" opacity="0.62"/>
    <circle cx="134.1" cy="20.6" r="0.5" fill="white" opacity="0.84"/>
    <circle cx="283.5" cy="44.8" r="1.6" fill="white" opacity="0.89"/>
    <circle cx="263.1" cy="257.8" r="1.0" fill="white" opacity="0.73"/>
    <circle cx="149.5" cy="272.5" r="1.6" fill="white" opacity="0.81"/>
    <circle cx="250.0" cy="118.0" r="1.6" fill="white" opacity="0.36"/>
    <circle cx="67.7" cy="272.2" r="1.1" fill="white" opacity="0.71"/>
    <circle cx="171.2" cy="82.9" r="1.4" fill="white" opacity="0.85"/>
    <circle cx="101.7" cy="107.2" r="0.8" fill="white" opacity="0.41"/>
    <circle cx="241.7" cy="207.7" r="1.9" fill="white" opacity="0.70"/>
    <circle cx="278.5" cy="72.1" r="0.8" fill="white" opacity="0.43"/>
    <circle cx="117.5" cy="287.1" r="0.8" fill="white" opacity="0.57"/>
    <circle cx="27.1" cy="17.6" r="1.3" fill="white" opacity="0.67"/>
    <circle cx="153.0" cy="266.1" r="1.8" fill="white" opacity="0.87"/>
    <circle cx="172.1" cy="83.8" r="0.7" fill="white" opacity="0.76"/>
    <circle cx="53.3" cy="11.7" r="1.5" fill="white" opacity="0.37"/>
    <circle cx="184.3" cy="66.3" r="1.1" fill="white" opacity="0.31"/>
    <circle cx="115.3" cy="101.9" r="0.9" fill="white" opacity="0.38"/>
  </g>
  <defs>
    <radialGradient id="sg1" cx="150" cy="175" r="100" gradientUnits="userSpaceOnUse">
      <stop offset="0%" stop-color="#0a0a18"/>
      <stop offset="100%" stop-color="#0a0a1a"/>
    </radialGradient>
    <radialGradient id="sglow" cx="150" cy="175" r="90" gradientUnits="userSpaceOnUse">
      <stop offset="0%" stop-color="rgba(109,40,217,0.6)"/>
      <stop offset="100%" stop-color="transparent"/>
    </radialGradient>
    <filter id="sf" x="-40%" y="-40%" width="180%" height="180%">
      <feGaussianBlur in="SourceGraphic" stdDeviation="10" result="blur"/>
      <feColorMatrix in="blur" type="matrix" values="1 0 0 0 0  0 1 0 0 0  0 0 1 0 0  0 0 0 2.2 0" result="glow"/>
      <feMerge><feMergeNode in="glow"/><feMergeNode in="SourceGraphic"/></feMerge>
    </filter>
  </defs>
  <circle cx="150" cy="175" r="95" fill="url(#sglow)" opacity="0.2"/>
  <g fill="#0d0d25" stroke="#0a0a18" stroke-opacity="0.6" stroke-width="1">
    <rect x="138.0" y="117.0" width="24.0" height="24.0"/>
    <rect x="138.0" y="141.0" width="24.0" height="32.0"/>
    <rect x="130.0" y="141.0" width="8.0" height="28.0"/>
    <rect x="162.0" y="141.0" width="8.0" height="28.0"/>
    <rect x="138.0" y="173.0" width="11.0" height="28.0"/>
    <rect x="151.0" y="173.0" width="11.0" height="28.0"/>
  </g>
  <rect x="128" y="115" width="44" height="42" rx="3" fill="url(#sg1)" filter="url(#sf)" opacity="0.9"/>
  <ellipse cx="124" cy="110" rx="14" ry="10" fill="#0a0a18" filter="url(#sf)" opacity="0.9"/>
  <ellipse cx="176" cy="110" rx="14" ry="10" fill="#0a0a18" filter="url(#sf)" opacity="0.9"/>
  <rect x="130" y="155" width="40" height="8" rx="2" fill="#6d28d9" opacity="0.9"/>
  <rect x="130" y="185" width="16" height="10" rx="2" fill="#0a0a18" opacity="0.8"/>
  <rect x="154"  y="185" width="16" height="10" rx="2" fill="#0a0a18" opacity="0.8"/>
  <circle cx="150" cy="127" r="7" fill="#6d28d9" filter="url(#sf)"/>
  <rect x="0" y="265" width="300" height="35" fill="#050510" opacity="0.85"/>
  <text x="150" y="281" text-anchor="middle" font-family="Arial,sans-serif" font-size="11" font-weight="bold" fill="#a855f7">Shadow Suit</text>
  <text x="150" y="294" text-anchor="middle" font-family="Arial,sans-serif" font-size="9" fill="#a855f7">EPIC</text>
  <rect x="1" y="1" width="298" height="298" rx="10" fill="none" stroke="#a855f7" stroke-width="2" opacity="0.5"/>
</svg>
