<svg xmlns="http://www.w3.org/2000/svg" viewBox="0 0 300 300" width="300" height="300">
  <defs>
    <radialGradient id="bgMain" cx="50%" cy="50%" r="70%">
      <stop offset="0%" stop-color="#0d0d28"/>
      <stop offset="100%" stop-color="#020208"/>
    </radialGradient>
  </defs>
  <rect width="300" height="300" fill="url(#bgMain)"/>
  <g opacity="0.5">
    <circle cx="142.9" cy="194.1" r="1.5" fill="white" opacity="0.39"/>
    <circle cx="13.0" cy="114.9" r="0.9" fill="white" opacity="0.79"/>
    <circle cx="203.4" cy="178.4" r="1.3" fill="white" opacity="0.70"/>
    <circle cx="50.7" cy="133.2" r="0.7" fill="white" opacity="0.84"/>
    <circle cx="26.5" cy="239.3" r="0.6" fill="white" opacity="0.71"/>
    <circle cx="104.4" cy="123.3" r="1.8" fill="white" opacity="0.31"/>
    <circle cx="27.0" cy="266.2" r="1.3" fill="white" opacity="0.35"/>
    <circle cx="286.4" cy="275.1" r="0.7" fill="white" opacity="0.55"/>
    <circle cx="47.8" cy="97.5" r="1.4" fill="white" opacity="0.40"/>
    <circle cx="205.1" cy="24.4" r="0.8" fill="white" opacity="0.79"/>
    <circle cx="122.1" cy="127.3" r="1.4" fill="white" opacity="0.59"/>
    <circle cx="117.7" cy="18.5" r="1.6" fill="white" opacity="0.88"/>
    <circle cx="283.4" cy="195.8" r="1.0" fill="white" opacity="0.52"/>
    <circle cx="203.2" cy="198.7" r="0.7" fill="white" opacity="0.44"/>
    <circle cx="111.7" cy="153.2" r="1.7" fill="white" opacity="0.60"/>
    <circle cx="17.9" cy="240.3" r="1.1" fill="white" opacity="0.61"/>
    <circle cx="72.2" cy="129.6" r="1.1" fill="white" opacity="0.76"/>
    <circle cx="38.7" cy="164.0" r="0.8" fill="white" opacity="0.72"/>
    <circle cx="20.3" cy="87.4" r="1.0" fill="white" opacity="0.68"/>
    <circle cx="24.6" cy="138.6" r="0.8" fill="white" opacity="0.47"/>
    <circle cx="143.4" cy="278.4" r="1.2" fill="white" opacity="0.87"/>
    <circle cx="56.9" cy="268.8" r="1.0" fill="white" opacity="0.41"/>
    <circle cx="219.6" cy="265.4" r="0.5" fill="white" opacity="0.46"/>
    <circle cx="225.8" cy="105.7" r="0.9" fill="white" opacity="0.31"/>
    <circle cx="21.2" cy="183.3" r="2.0" fill="white" opacity="0.90"/>
    <circle cx="151.0" cy="16.7" r="1.0" fill="white" opacity="0.77"/>
    <circle cx="242.9" cy="189.0" r="0.8" fill="white" opacity="0.62"/>
    <circle cx="143.7" cy="185.6" r="0.9" fill="white" opacity="0.87"/>
    <circle cx="260.4" cy="55.4" r="0.9" fill="white" opacity="0.82"/>
    <circle cx="87.9" cy="274.3" r="1.3" fill="white" opacity="0.72"/>
    <circle cx="207.3" cy="69.9" r="0.9" fill="white" opacity="0.45"/>
    <circle cx="201.3" cy="204.3" r="0.7" fill="white" opacity="0.83"/>
    <circle cx="127.7" cy="77.5" r="1.2" fill="white" opacity="0.89"/>
    <circle cx="166.8" cy="184.9" r="1.9" fill="white" opacity="0.88"/>
    <circle cx="222.9" cy="126.9" r="1.4" fill="white" opacity="0.84"/>
  </g>
  <defs>
    <linearGradient id="cg1" x1="0" y1="0" x2="0" y2="1">
      <stop offset="0%" stop-color="#0d0a18" stop-opacity="1"/>
      <stop offset="50%" stop-color="#7c3aed" stop-opacity="0.9"/>
      <stop offset="100%" stop-color="#050510" stop-opacity="0.6"/>
    </linearGradient>
    <radialGradient id="cglow" cx="150" cy="200" r="100" gradientUnits="userSpaceOnUse">
      <stop offset="0%" stop-color="rgba(124,58,237,0.6)"/>
      <stop offset="100%" stop-color="transparent"/>
    </radialGradient>
    <filter id="cf" x="-40%" y="-40%" width="180%" height="180%">
      <feGaussianBlur in="SourceGraphic" stdDeviation="10" result="blur"/>
      <feColorMatrix in="blur" type="matrix" values="1 0 0 0 0  0 1 0 0 0  0 0 1 0 0  0 0 0 2 0" result="glow"/>
      <feMerge><feMergeNode in="glow"/><feMergeNode in="SourceGraphic"/></feMerge>
    </filter>
  </defs>
  <ellipse cx="150" cy="200" rx="100" ry="80" fill="url(#cglow)" opacity="0.35"/>
  <polygon points="120,95 180,95 210,270 90,270" fill="url(#cg1)" filter="url(#cf)"/>
  <line x1="120" y1="95" x2="150" y2="110" stroke="#0d0a18" stroke-width="2" opacity="0.7"/>
  <line x1="180" y1="95" x2="150" y2="110" stroke="#0d0a18" stroke-width="2" opacity="0.7"/>
  <line x1="120.0" y1="120" x2="180.0" y2="120" stroke="#0d0a18" stroke-width="1.5" opacity="0.3"/>
  <line x1="115.6" y1="142" x2="184.4" y2="142" stroke="#0d0a18" stroke-width="1.5" opacity="0.3"/>
  <line x1="111.2" y1="164" x2="188.8" y2="164" stroke="#0d0a18" stroke-width="1.5" opacity="0.3"/>
  <line x1="106.8" y1="186" x2="193.2" y2="186" stroke="#0d0a18" stroke-width="1.5" opacity="0.3"/>
  <line x1="102.4" y1="208" x2="197.6" y2="208" stroke="#0d0a18" stroke-width="1.5" opacity="0.3"/>
  <line x1="98.0" y1="230" x2="202.0" y2="230" stroke="#0d0a18" stroke-width="1.5" opacity="0.3"/>
  <line x1="93.6" y1="252" x2="206.4" y2="252" stroke="#0d0a18" stroke-width="1.5" opacity="0.3"/>
  <rect x="0" y="265" width="300" height="35" fill="#050510" opacity="0.85"/>
  <text x="150" y="281" text-anchor="middle" font-family="Arial,sans-serif" font-size="11" font-weight="bold" fill="#f59e0b">Shadow Cloak</text>
  <text x="150" y="294" text-anchor="middle" font-family="Arial,sans-serif" font-size="9" fill="#f59e0b">LEGENDARY</text>
  <rect x="1" y="1" width="298" height="298" rx="10" fill="none" stroke="#f59e0b" stroke-width="2" opacity="0.5"/>
</svg>
