<svg xmlns="http://www.w3.org/2000/svg" viewBox="0 0 300 300" width="300" height="300">
  <defs>
    <radialGradient id="bgMain" cx="50%" cy="50%" r="70%">
      <stop offset="0%" stop-color="#0d0d28"/>
      <stop offset="100%" stop-color="#020208"/>
    </radialGradient>
  </defs>
  <rect width="300" height="300" fill="url(#bgMain)"/>
  <g opacity="0.5">
    <circle cx="47.6" cy="247.3" r="1.6" fill="white" opacity="0.45"/>
    <circle cx="148.7" cy="135.9" r="1.5" fill="white" opacity="0.77"/>
    <circle cx="36.3" cy="17.9" r="1.8" fill="white" opacity="0.56"/>
    <circle cx="223.4" cy="10.6" r="1.2" fill="white" opacity="0.73"/>
    <circle cx="74.1" cy="274.7" r="1.9" fill="white" opacity="0.32"/>
    <circle cx="17.1" cy="161.6" r="1.9" fill="white" opacity="0.53"/>
    <circle cx="70.6" cy="128.2" r="0.5" fill="white" opacity="0.43"/>
    <circle cx="132.6" cy="148.8" r="0.8" fill="white" opacity="0.44"/>
    <circle cx="71.3" cy="138.7" r="0.9" fill="white" opacity="0.31"/>
    <circle cx="244.5" cy="165.8" r="1.5" fill="white" opacity="0.41"/>
    <circle cx="287.9" cy="250.8" r="0.7" fill="white" opacity="0.50"/>
    <circle cx="212.0" cy="209.1" r="1.9" fill="white" opacity="0.55"/>
    <circle cx="242.4" cy="197.7" r="1.0" fill="white" opacity="0.65"/>
    <circle cx="257.1" cy="246.9" r="1.3" fill="white" opacity="0.65"/>
    <circle cx="19.7" cy="78.0" r="1.7" fill="white" opacity="0.55"/>
    <circle cx="58.4" cy="163.7" r="1.6" fill="white" opacity="0.70"/>
    <circle cx="114.9" cy="132.9" r="1.3" fill="white" opacity="0.77"/>
    <circle cx="155.9" cy="120.1" r="1.2" fill="white" opacity="0.32"/>
    <circle cx="22.2" cy="206.9" r="2.0" fill="white" opacity="0.66"/>
    <circle cx="120.2" cy="57.7" r="1.3" fill="white" opacity="0.89"/>
    <circle cx="225.7" cy="161.1" r="1.8" fill="white" opacity="0.44"/>
    <circle cx="153.9" cy="276.7" r="1.4" fill="white" opacity="0.58"/>
    <circle cx="85.4" cy="163.4" r="1.9" fill="white" opacity="0.30"/>
    <circle cx="229.4" cy="239.7" r="1.8" fill="white" opacity="0.74"/>
    <circle cx="236.6" cy="155.2" r="1.3" fill="white" opacity="0.56"/>
    <circle cx="25.7" cy="253.6" r="1.4" fill="white" opacity="0.42"/>
    <circle cx="151.3" cy="145.8" r="1.0" fill="white" opacity="0.51"/>
    <circle cx="160.8" cy="184.6" r="1.4" fill="white" opacity="0.57"/>
    <circle cx="17.8" cy="74.3" r="0.8" fill="white" opacity="0.65"/>
    <circle cx="251.1" cy="233.6" r="1.7" fill="white" opacity="0.79"/>
    <circle cx="81.5" cy="245.7" r="1.5" fill="white" opacity="0.35"/>
    <circle cx="14.7" cy="14.1" r="1.6" fill="white" opacity="0.45"/>
    <circle cx="40.7" cy="184.9" r="1.0" fill="white" opacity="0.34"/>
    <circle cx="54.7" cy="157.7" r="0.8" fill="white" opacity="0.46"/>
    <circle cx="209.2" cy="137.3" r="1.0" fill="white" opacity="0.58"/>
  </g>
  <defs>
    <linearGradient id="wgL" x1="0" y1="0" x2="1" y2="0">
      <stop offset="0%" stop-color="#4c1d95" stop-opacity="1"/>
      <stop offset="50%" stop-color="#1e1b4b" stop-opacity="1"/>
      <stop offset="100%" stop-color="#0a0a18" stop-opacity="0.3"/>
    </linearGradient>
    <linearGradient id="wgR" x1="1" y1="0" x2="0" y2="0">
      <stop offset="0%" stop-color="#4c1d95" stop-opacity="1"/>
      <stop offset="50%" stop-color="#1e1b4b" stop-opacity="1"/>
      <stop offset="100%" stop-color="#0a0a18" stop-opacity="0.3"/>
    </linearGradient>
    <radialGradient id="wglow" cx="150" cy="165" r="90" gradientUnits="userSpaceOnUse">
      <stop offset="0%" stop-color="rgba(79,70,229,0.6)"/>
      <stop offset="100%" stop-color="transparent"/>
    </radialGradient>
    <filter id="wf" x="-40%" y="-40%" width="180%" height="180%">
      <feGaussianBlur in="SourceGraphic" stdDeviation="12" result="blur"/>
      <feColorMatrix in="blur" type="matrix" values="1 0 0 0 0  0 1 0 0 0  0 0 1 0 0  0 0 0 2.5 0" result="glow"/>
      <feMerge><feMergeNode in="glow"/><feMergeNode in="SourceGraphic"/></feMerge>
    </filter>
  </defs>
  <circle cx="150" cy="165" r="90" fill="url(#wglow)" opacity="0.4"/>
  <line x1="150.0" y1="165.0" x2="195.0" y2="87.1" stroke="url(#wgL)" stroke-width="10.0" opacity="0.80" stroke-linecap="round" filter="url(#wf)"/>
  <line x1="150.0" y1="165.0" x2="170.7" y2="87.7" stroke="url(#wgL)" stroke-width="9.0" opacity="0.75" stroke-linecap="round" filter="url(#wf)"/>
  <line x1="150.0" y1="165.0" x2="150.0" y2="95.0" stroke="url(#wgL)" stroke-width="8.0" opacity="0.70" stroke-linecap="round" filter="url(#wf)"/>
  <line x1="150.0" y1="165.0" x2="81.1" y2="107.1" stroke="url(#wgR)" stroke-width="10.0" opacity="0.80" stroke-linecap="round" filter="url(#wf)"/>
  <line x1="150.0" y1="165.0" x2="104.1" y2="99.5" stroke="url(#wgR)" stroke-width="9.0" opacity="0.75" stroke-linecap="round" filter="url(#wf)"/>
  <line x1="150.0" y1="165.0" x2="126.1" y2="99.2" stroke="url(#wgR)" stroke-width="8.0" opacity="0.70" stroke-linecap="round" filter="url(#wf)"/>
  <line x1="150.0" y1="165.0" x2="176.7" y2="91.7" stroke="url(#wgL)" stroke-width="8.5" opacity="0.74" stroke-linecap="round" filter="url(#wf)"/>
  <line x1="150.0" y1="165.0" x2="155.9" y2="97.3" stroke="url(#wgL)" stroke-width="7.5" opacity="0.69" stroke-linecap="round" filter="url(#wf)"/>
  <line x1="150.0" y1="165.0" x2="139.9" y2="107.9" stroke="url(#wgL)" stroke-width="6.5" opacity="0.64" stroke-linecap="round" filter="url(#wf)"/>
  <line x1="150.0" y1="165.0" x2="82.5" y2="126.0" stroke="url(#wgR)" stroke-width="8.5" opacity="0.74" stroke-linecap="round" filter="url(#wf)"/>
  <line x1="150.0" y1="165.0" x2="101.9" y2="116.9" stroke="url(#wgR)" stroke-width="7.5" opacity="0.69" stroke-linecap="round" filter="url(#wf)"/>
  <line x1="150.0" y1="165.0" x2="121.0" y2="114.8" stroke="url(#wgR)" stroke-width="6.5" opacity="0.64" stroke-linecap="round" filter="url(#wf)"/>
  <line x1="150.0" y1="165.0" x2="161.5" y2="100.0" stroke="url(#wgL)" stroke-width="7.0" opacity="0.68" stroke-linecap="round" filter="url(#wf)"/>
  <line x1="150.0" y1="165.0" x2="145.1" y2="109.2" stroke="url(#wgL)" stroke-width="6.0" opacity="0.63" stroke-linecap="round" filter="url(#wf)"/>
  <line x1="150.0" y1="165.0" x2="134.3" y2="121.8" stroke="url(#wgL)" stroke-width="5.0" opacity="0.58" stroke-linecap="round" filter="url(#wf)"/>
  <line x1="150.0" y1="165.0" x2="88.0" y2="142.4" stroke="url(#wgR)" stroke-width="7.0" opacity="0.68" stroke-linecap="round" filter="url(#wf)"/>
  <line x1="150.0" y1="165.0" x2="104.1" y2="132.9" stroke="url(#wgR)" stroke-width="6.0" opacity="0.63" stroke-linecap="round" filter="url(#wf)"/>
  <line x1="150.0" y1="165.0" x2="120.4" y2="129.8" stroke="url(#wgR)" stroke-width="5.0" opacity="0.58" stroke-linecap="round" filter="url(#wf)"/>
  <line x1="150.0" y1="165.0" x2="150.0" y2="111.0" stroke="url(#wgL)" stroke-width="5.5" opacity="0.62" stroke-linecap="round" filter="url(#wf)"/>
  <line x1="150.0" y1="165.0" x2="138.6" y2="122.5" stroke="url(#wgL)" stroke-width="4.5" opacity="0.57" stroke-linecap="round" filter="url(#wf)"/>
  <line x1="150.0" y1="165.0" x2="133.0" y2="135.6" stroke="url(#wgL)" stroke-width="3.5" opacity="0.52" stroke-linecap="round" filter="url(#wf)"/>
  <line x1="150.0" y1="165.0" x2="96.8" y2="155.6" stroke="url(#wgR)" stroke-width="5.5" opacity="0.62" stroke-linecap="round" filter="url(#wf)"/>
  <line x1="150.0" y1="165.0" x2="110.1" y2="146.4" stroke="url(#wgR)" stroke-width="4.5" opacity="0.57" stroke-linecap="round" filter="url(#wf)"/>
  <line x1="150.0" y1="165.0" x2="124.0" y2="143.1" stroke="url(#wgR)" stroke-width="3.5" opacity="0.52" stroke-linecap="round" filter="url(#wf)"/>
  <line x1="150.0" y1="165.0" x2="142.7" y2="123.6" stroke="url(#wgL)" stroke-width="4.0" opacity="0.56" stroke-linecap="round" filter="url(#wf)"/>
  <line x1="150.0" y1="165.0" x2="136.5" y2="136.0" stroke="url(#wgL)" stroke-width="3.0" opacity="0.51" stroke-linecap="round" filter="url(#wf)"/>
  <line x1="150.0" y1="165.0" x2="135.9" y2="148.1" stroke="url(#wgL)" stroke-width="3.0" opacity="0.46" stroke-linecap="round" filter="url(#wf)"/>
  <line x1="150.0" y1="165.0" x2="108.0" y2="165.0" stroke="url(#wgR)" stroke-width="4.0" opacity="0.56" stroke-linecap="round" filter="url(#wf)"/>
  <line x1="150.0" y1="165.0" x2="119.1" y2="156.7" stroke="url(#wgR)" stroke-width="3.0" opacity="0.51" stroke-linecap="round" filter="url(#wf)"/>
  <line x1="150.0" y1="165.0" x2="130.9" y2="154.0" stroke="url(#wgR)" stroke-width="3.0" opacity="0.46" stroke-linecap="round" filter="url(#wf)"/>
  <line x1="150.0" y1="165.0" x2="139.7" y2="136.8" stroke="url(#wgL)" stroke-width="3.0" opacity="0.50" stroke-linecap="round" filter="url(#wf)"/>
  <line x1="150.0" y1="165.0" x2="138.5" y2="148.6" stroke="url(#wgL)" stroke-width="3.0" opacity="0.45" stroke-linecap="round" filter="url(#wf)"/>
  <line x1="150.0" y1="165.0" x2="142.3" y2="158.6" stroke="url(#wgL)" stroke-width="3.0" opacity="0.40" stroke-linecap="round" filter="url(#wf)"/>
  <line x1="150.0" y1="165.0" x2="120.5" y2="170.2" stroke="url(#wgR)" stroke-width="3.0" opacity="0.50" stroke-linecap="round" filter="url(#wf)"/>
  <line x1="150.0" y1="165.0" x2="130.1" y2="163.3" stroke="url(#wgR)" stroke-width="3.0" opacity="0.45" stroke-linecap="round" filter="url(#wf)"/>
  <line x1="150.0" y1="165.0" x2="140.6" y2="161.6" stroke="url(#wgR)" stroke-width="3.0" opacity="0.40" stroke-linecap="round" filter="url(#wf)"/>
  <rect x="0" y="265" width="300" height="35" fill="#050510" opacity="0.85"/>
  <text x="150" y="281" text-anchor="middle" font-family="Arial,sans-serif" font-size="11" font-weight="bold" fill="#f59e0b">Shadow Wings</text>
  <text x="150" y="294" text-anchor="middle" font-family="Arial,sans-serif" font-size="9" fill="#f59e0b">LEGENDARY</text>
  <rect x="1" y="1" width="298" height="298" rx="10" fill="none" stroke="#f59e0b" stroke-width="2" opacity="0.5"/>
</svg>
