<svg xmlns="http://www.w3.org/2000/svg" viewBox="0 0 300 300" width="300" height="300">
  <defs>
    <radialGradient id="bgMain" cx="50%" cy="50%" r="70%">
      <stop offset="0%" stop-color="#0d0d28"/>
      <stop offset="100%" stop-color="#020208"/>
    </radialGradient>
  </defs>
  <rect width="300" height="300" fill="url(#bgMain)"/>
  <g opacity="0.5">
    <circle cx="158.1" cy="174.0" r="1.8" fill="white" opacity="0.84"/>
    <circle cx="257.0" cy="112.1" r="1.9" fill="white" opacity="0.55"/>
    <circle cx="95.7" cy="36.5" r="1.3" fill="white" opacity="0.39"/>
    <circle cx="86.8" cy="181.0" r="1.7" fill="white" opacity="0.75"/>
    <circle cx="34.2" cy="27.1" r="0.9" fill="white" opacity="0.63"/>
    <circle cx="244.9" cy="234.1" r="1.9" fill="white" opacity="0.65"/>
    <circle cx="188.3" cy="91.7" r="1.0" fill="white" opacity="0.42"/>
    <circle cx="159.9" cy="180.0" r="1.4" fill="white" opacity="0.54"/>
    <circle cx="128.7" cy="79.6" r="1.7" fill="white" opacity="0.65"/>
    <circle cx="219.6" cy="237.3" r="0.9" fill="white" opacity="0.37"/>
    <circle cx="89.2" cy="264.0" r="1.7" fill="white" opacity="0.54"/>
    <circle cx="227.4" cy="105.8" r="1.8" fill="white" opacity="0.35"/>
    <circle cx="217.5" cy="284.5" r="1.1" fill="white" opacity="0.58"/>
    <circle cx="46.6" cy="87.1" r="0.9" fill="white" opacity="0.48"/>
    <circle cx="29.2" cy="93.8" r="0.7" fill="white" opacity="0.61"/>
    <circle cx="123.8" cy="73.7" r="1.9" fill="white" opacity="0.49"/>
    <circle cx="158.8" cy="260.5" r="1.6" fill="white" opacity="0.88"/>
    <circle cx="180.6" cy="253.8" r="0.6" fill="white" opacity="0.74"/>
    <circle cx="104.1" cy="99.8" r="1.7" fill="white" opacity="0.75"/>
    <circle cx="105.7" cy="111.8" r="0.9" fill="white" opacity="0.86"/>
    <circle cx="182.1" cy="82.8" r="1.3" fill="white" opacity="0.33"/>
    <circle cx="85.5" cy="150.4" r="2.0" fill="white" opacity="0.81"/>
    <circle cx="163.3" cy="223.7" r="0.9" fill="white" opacity="0.72"/>
    <circle cx="288.9" cy="53.1" r="1.9" fill="white" opacity="0.89"/>
    <circle cx="113.0" cy="237.9" r="2.0" fill="white" opacity="0.39"/>
    <circle cx="140.1" cy="176.3" r="1.7" fill="white" opacity="0.46"/>
    <circle cx="220.5" cy="207.1" r="1.8" fill="white" opacity="0.74"/>
    <circle cx="251.1" cy="179.1" r="1.3" fill="white" opacity="0.58"/>
    <circle cx="123.9" cy="139.5" r="1.2" fill="white" opacity="0.54"/>
    <circle cx="50.6" cy="121.4" r="1.9" fill="white" opacity="0.48"/>
    <circle cx="285.2" cy="243.1" r="1.2" fill="white" opacity="0.43"/>
    <circle cx="256.1" cy="277.4" r="1.0" fill="white" opacity="0.70"/>
    <circle cx="221.0" cy="183.9" r="0.7" fill="white" opacity="0.44"/>
    <circle cx="212.0" cy="187.8" r="1.5" fill="white" opacity="0.47"/>
    <circle cx="256.3" cy="227.4" r="1.2" fill="white" opacity="0.81"/>
  </g>
  <defs>
    <linearGradient id="bg1" x1="0" y1="0" x2="1" y2="0">
      <stop offset="0%" stop-color="#0a0a1a" stop-opacity="1"/>
      <stop offset="50%" stop-color="#0a0a18" stop-opacity="1"/>
      <stop offset="100%" stop-color="#6d28d9" stop-opacity="1"/>
    </linearGradient>
    <radialGradient id="bglow" cx="150" cy="130" r="50" gradientUnits="userSpaceOnUse">
      <stop offset="0%" stop-color="rgba(109,40,217,0.6)"/>
      <stop offset="100%" stop-color="transparent"/>
    </radialGradient>
    <filter id="bf" x="-40%" y="-40%" width="180%" height="180%">
      <feGaussianBlur in="SourceGraphic" stdDeviation="8" result="blur"/>
      <feColorMatrix in="blur" type="matrix" values="1 0 0 0 0  0 1 0 0 0  0 0 1 0 0  0 0 0 2 0" result="glow"/>
      <feMerge><feMergeNode in="glow"/><feMergeNode in="SourceGraphic"/></feMerge>
    </filter>
  </defs>
  <circle cx="150" cy="160" r="50" fill="url(#bglow)" opacity="0.3"/>
  <g fill="#1a1a2e" stroke="#ffffff" stroke-opacity="0.15" stroke-width="1">
    <rect x="138.0" y="147.0" width="24.0" height="24.0"/>
    <rect x="138.0" y="171.0" width="24.0" height="32.0"/>
    <rect x="130.0" y="171.0" width="8.0" height="28.0"/>
    <rect x="162.0" y="171.0" width="8.0" height="28.0"/>
    <rect x="138.0" y="203.0" width="11.0" height="28.0"/>
    <rect x="151.0" y="203.0" width="11.0" height="28.0"/>
  </g>
  <rect x="116" y="125" width="68" height="28" rx="6" fill="url(#bg1)" filter="url(#bf)"/>
  <line x1="122" y1="129" x2="122" y2="149" stroke="#6d28d9" stroke-width="2" opacity="0.5"/>
  <line x1="136" y1="129" x2="136" y2="149" stroke="#6d28d9" stroke-width="2" opacity="0.5"/>
  <line x1="150" y1="129" x2="150" y2="149" stroke="#6d28d9" stroke-width="2" opacity="0.5"/>
  <line x1="164" y1="129" x2="164" y2="149" stroke="#6d28d9" stroke-width="2" opacity="0.5"/>
  <line x1="178" y1="129" x2="178" y2="149" stroke="#6d28d9" stroke-width="2" opacity="0.5"/>
  <circle cx="192" cy="139" r="8" fill="#0a0a18" filter="url(#bf)"/>
  <line x1="192" y1="139" x2="206" y2="131" stroke="#0a0a18" stroke-width="2" opacity="0.7"/>
  <line x1="192" y1="139" x2="206" y2="147" stroke="#0a0a18" stroke-width="2" opacity="0.7"/>
  <rect x="0" y="265" width="300" height="35" fill="#050510" opacity="0.85"/>
  <text x="150" y="281" text-anchor="middle" font-family="Arial,sans-serif" font-size="11" font-weight="bold" fill="#a855f7">Shadow Bandana</text>
  <text x="150" y="294" text-anchor="middle" font-family="Arial,sans-serif" font-size="9" fill="#a855f7">EPIC</text>
  <rect x="1" y="1" width="298" height="298" rx="10" fill="none" stroke="#a855f7" stroke-width="2" opacity="0.5"/>
</svg>
