<svg xmlns="http://www.w3.org/2000/svg" viewBox="0 0 300 300" width="300" height="300">
  <defs>
    <radialGradient id="bgMain" cx="50%" cy="50%" r="70%">
      <stop offset="0%" stop-color="#0d0d28"/>
      <stop offset="100%" stop-color="#020208"/>
    </radialGradient>
  </defs>
  <rect width="300" height="300" fill="url(#bgMain)"/>
  <g opacity="0.5">
    <circle cx="184.4" cy="217.7" r="1.7" fill="white" opacity="0.87"/>
    <circle cx="217.2" cy="268.3" r="0.5" fill="white" opacity="0.58"/>
    <circle cx="274.1" cy="191.7" r="1.9" fill="white" opacity="0.37"/>
    <circle cx="141.3" cy="79.0" r="1.3" fill="white" opacity="0.64"/>
    <circle cx="13.7" cy="70.7" r="0.9" fill="white" opacity="0.85"/>
    <circle cx="224.4" cy="54.7" r="1.7" fill="white" opacity="0.38"/>
    <circle cx="182.9" cy="45.5" r="0.5" fill="white" opacity="0.82"/>
    <circle cx="68.6" cy="70.3" r="2.0" fill="white" opacity="0.82"/>
    <circle cx="91.0" cy="279.2" r="1.3" fill="white" opacity="0.71"/>
    <circle cx="67.3" cy="273.5" r="1.5" fill="white" opacity="0.88"/>
    <circle cx="260.2" cy="93.7" r="1.0" fill="white" opacity="0.40"/>
    <circle cx="50.8" cy="28.2" r="1.0" fill="white" opacity="0.66"/>
    <circle cx="10.9" cy="199.8" r="1.0" fill="white" opacity="0.49"/>
    <circle cx="239.2" cy="144.6" r="1.0" fill="white" opacity="0.59"/>
    <circle cx="207.3" cy="26.0" r="2.0" fill="white" opacity="0.31"/>
    <circle cx="219.9" cy="246.6" r="0.5" fill="white" opacity="0.77"/>
    <circle cx="112.5" cy="172.0" r="0.5" fill="white" opacity="0.33"/>
    <circle cx="60.7" cy="277.5" r="0.8" fill="white" opacity="0.75"/>
    <circle cx="270.3" cy="273.8" r="1.0" fill="white" opacity="0.51"/>
    <circle cx="156.9" cy="227.2" r="0.7" fill="white" opacity="0.75"/>
    <circle cx="233.2" cy="250.7" r="0.6" fill="white" opacity="0.87"/>
    <circle cx="35.5" cy="105.4" r="1.4" fill="white" opacity="0.85"/>
    <circle cx="105.2" cy="268.8" r="1.3" fill="white" opacity="0.49"/>
    <circle cx="98.7" cy="59.7" r="0.6" fill="white" opacity="0.39"/>
    <circle cx="203.0" cy="289.1" r="0.7" fill="white" opacity="0.33"/>
    <circle cx="286.3" cy="159.4" r="1.1" fill="white" opacity="0.44"/>
    <circle cx="176.3" cy="241.4" r="1.2" fill="white" opacity="0.55"/>
    <circle cx="25.6" cy="266.5" r="0.5" fill="white" opacity="0.60"/>
    <circle cx="244.8" cy="46.6" r="1.6" fill="white" opacity="0.87"/>
    <circle cx="186.5" cy="230.6" r="0.7" fill="white" opacity="0.56"/>
    <circle cx="51.8" cy="246.5" r="0.9" fill="white" opacity="0.57"/>
    <circle cx="289.8" cy="248.6" r="2.0" fill="white" opacity="0.57"/>
    <circle cx="146.7" cy="214.3" r="1.2" fill="white" opacity="0.47"/>
    <circle cx="123.1" cy="51.0" r="1.1" fill="white" opacity="0.89"/>
    <circle cx="278.7" cy="185.6" r="1.2" fill="white" opacity="0.50"/>
  </g>
  <defs>
    <linearGradient id="wgL" x1="0" y1="0" x2="1" y2="0">
      <stop offset="0%" stop-color="#1e0a3c" stop-opacity="1"/>
      <stop offset="50%" stop-color="#6d28d9" stop-opacity="1"/>
      <stop offset="100%" stop-color="#0a0a18" stop-opacity="0.3"/>
    </linearGradient>
    <linearGradient id="wgR" x1="1" y1="0" x2="0" y2="0">
      <stop offset="0%" stop-color="#1e0a3c" stop-opacity="1"/>
      <stop offset="50%" stop-color="#6d28d9" stop-opacity="1"/>
      <stop offset="100%" stop-color="#0a0a18" stop-opacity="0.3"/>
    </linearGradient>
    <radialGradient id="wglow" cx="150" cy="165" r="90" gradientUnits="userSpaceOnUse">
      <stop offset="0%" stop-color="rgba(109,40,217,0.7)"/>
      <stop offset="100%" stop-color="transparent"/>
    </radialGradient>
    <filter id="wf" x="-40%" y="-40%" width="180%" height="180%">
      <feGaussianBlur in="SourceGraphic" stdDeviation="12" result="blur"/>
      <feColorMatrix in="blur" type="matrix" values="1 0 0 0 0  0 1 0 0 0  0 0 1 0 0  0 0 0 2.5 0" result="glow"/>
      <feMerge><feMergeNode in="glow"/><feMergeNode in="SourceGraphic"/></feMerge>
    </filter>
  </defs>
  <circle cx="150" cy="165" r="90" fill="url(#wglow)" opacity="0.4"/>
  <polygon points="150,165 54.6,144.8 63.9,124.9 73.2,104.9" fill="url(#wgL)" opacity="0.90" filter="url(#wf)"/>
  <polygon points="150,165 226.8,104.9 236.1,124.9 245.4,144.8" fill="url(#wgR)" opacity="0.90" filter="url(#wf)"/>
  <polygon points="150,165 65.6,177.2 67.3,157.8 69.0,138.3" fill="url(#wgL)" opacity="0.82" filter="url(#wf)"/>
  <polygon points="150,165 231.0,138.3 232.7,157.8 234.4,177.2" fill="url(#wgR)" opacity="0.82" filter="url(#wf)"/>
  <polygon points="150,165 85.8,199.8 81.4,183.4 77.0,167.0" fill="url(#wgL)" opacity="0.74" filter="url(#wf)"/>
  <polygon points="150,165 223.0,167.0 218.6,183.4 214.2,199.8" fill="url(#wgR)" opacity="0.74" filter="url(#wf)"/>
  <polygon points="150,165 110.0,210.7 101.7,198.8 93.4,187.0" fill="url(#wgL)" opacity="0.66" filter="url(#wf)"/>
  <polygon points="150,165 206.6,187.0 198.3,198.8 190.0,210.7" fill="url(#wgR)" opacity="0.66" filter="url(#wf)"/>
  <polygon points="150,165 132.9,210.4 123.0,203.5 113.2,196.6" fill="url(#wgL)" opacity="0.58" filter="url(#wf)"/>
  <polygon points="150,165 186.8,196.6 177.0,203.5 167.1,210.4" fill="url(#wgR)" opacity="0.58" filter="url(#wf)"/>
  <polygon points="150,165 150.1,201.3 140.9,198.8 131.8,196.3" fill="url(#wgL)" opacity="0.50" filter="url(#wf)"/>
  <polygon points="150,165 168.2,196.3 159.1,198.8 149.9,201.3" fill="url(#wgR)" opacity="0.50" filter="url(#wf)"/>
  <polygon points="150,165 159.0,187.3 152.0,187.9 145.0,188.5" fill="url(#wgL)" opacity="0.42" filter="url(#wf)"/>
  <polygon points="150,165 155.0,188.5 148.0,187.9 141.0,187.3" fill="url(#wgR)" opacity="0.42" filter="url(#wf)"/>
  <rect x="0" y="265" width="300" height="35" fill="#050510" opacity="0.85"/>
  <text x="150" y="281" text-anchor="middle" font-family="Arial,sans-serif" font-size="11" font-weight="bold" fill="#ef4444">Void Wings</text>
  <text x="150" y="294" text-anchor="middle" font-family="Arial,sans-serif" font-size="9" fill="#ef4444">MYTHIC</text>
  <rect x="1" y="1" width="298" height="298" rx="10" fill="none" stroke="#ef4444" stroke-width="2" opacity="0.5"/>
</svg>
