<svg xmlns="http://www.w3.org/2000/svg" viewBox="0 0 300 300" width="300" height="300">
  <defs>
    <radialGradient id="bgMain" cx="50%" cy="50%" r="70%">
      <stop offset="0%" stop-color="#0d0d28"/>
      <stop offset="100%" stop-color="#020208"/>
    </radialGradient>
  </defs>
  <rect width="300" height="300" fill="url(#bgMain)"/>
  <g opacity="0.5">
    <circle cx="189.1" cy="130.1" r="1.6" fill="white" opacity="0.34"/>
    <circle cx="205.4" cy="115.0" r="1.4" fill="white" opacity="0.40"/>
    <circle cx="106.5" cy="84.7" r="1.0" fill="white" opacity="0.74"/>
    <circle cx="142.5" cy="279.6" r="1.4" fill="white" opacity="0.43"/>
    <circle cx="181.6" cy="157.9" r="0.7" fill="white" opacity="0.62"/>
    <circle cx="13.3" cy="114.8" r="1.3" fill="white" opacity="0.71"/>
    <circle cx="278.6" cy="182.1" r="0.5" fill="white" opacity="0.59"/>
    <circle cx="80.1" cy="219.2" r="1.8" fill="white" opacity="0.35"/>
    <circle cx="226.1" cy="92.1" r="0.8" fill="white" opacity="0.57"/>
    <circle cx="127.3" cy="90.5" r="0.9" fill="white" opacity="0.56"/>
    <circle cx="203.1" cy="55.9" r="1.1" fill="white" opacity="0.44"/>
    <circle cx="214.0" cy="79.5" r="1.6" fill="white" opacity="0.32"/>
    <circle cx="249.6" cy="129.8" r="1.9" fill="white" opacity="0.78"/>
    <circle cx="245.9" cy="18.4" r="1.6" fill="white" opacity="0.62"/>
    <circle cx="258.1" cy="168.7" r="1.0" fill="white" opacity="0.84"/>
    <circle cx="288.5" cy="71.9" r="0.7" fill="white" opacity="0.57"/>
    <circle cx="194.1" cy="55.2" r="1.4" fill="white" opacity="0.63"/>
    <circle cx="233.7" cy="50.7" r="0.7" fill="white" opacity="0.61"/>
    <circle cx="220.6" cy="174.3" r="1.6" fill="white" opacity="0.46"/>
    <circle cx="19.2" cy="203.0" r="1.5" fill="white" opacity="0.32"/>
    <circle cx="34.0" cy="205.6" r="1.5" fill="white" opacity="0.42"/>
    <circle cx="83.2" cy="127.1" r="0.5" fill="white" opacity="0.48"/>
    <circle cx="77.2" cy="21.8" r="1.3" fill="white" opacity="0.86"/>
    <circle cx="31.8" cy="204.0" r="1.4" fill="white" opacity="0.47"/>
    <circle cx="190.2" cy="226.5" r="0.9" fill="white" opacity="0.55"/>
    <circle cx="185.6" cy="133.2" r="0.8" fill="white" opacity="0.54"/>
    <circle cx="209.0" cy="174.0" r="1.0" fill="white" opacity="0.47"/>
    <circle cx="57.3" cy="196.7" r="1.7" fill="white" opacity="0.45"/>
    <circle cx="184.0" cy="29.2" r="0.8" fill="white" opacity="0.66"/>
    <circle cx="112.8" cy="129.0" r="0.6" fill="white" opacity="0.60"/>
    <circle cx="142.6" cy="74.2" r="1.4" fill="white" opacity="0.43"/>
    <circle cx="108.9" cy="39.9" r="1.8" fill="white" opacity="0.63"/>
    <circle cx="262.5" cy="106.1" r="1.7" fill="white" opacity="0.70"/>
    <circle cx="22.8" cy="268.0" r="1.3" fill="white" opacity="0.50"/>
    <circle cx="114.1" cy="87.7" r="1.6" fill="white" opacity="0.56"/>
  </g>
  <defs>
    <radialGradient id="ag1" cx="150" cy="165" r="110" gradientUnits="userSpaceOnUse">
      <stop offset="0%" stop-color="rgba(109,40,217,0.75)"/>
      <stop offset="100%" stop-color="transparent"/>
    </radialGradient>
    <radialGradient id="ag2" cx="150" cy="165" r="60" gradientUnits="userSpaceOnUse">
      <stop offset="0%" stop-color="#1e0a3c"/>
      <stop offset="100%" stop-color="transparent"/>
    </radialGradient>
    <filter id="af" x="-40%" y="-40%" width="180%" height="180%">
      <feGaussianBlur in="SourceGraphic" stdDeviation="14" result="blur"/>
      <feColorMatrix in="blur" type="matrix" values="1 0 0 0 0  0 1 0 0 0  0 0 1 0 0  0 0 0 3 0" result="glow"/>
      <feMerge><feMergeNode in="glow"/><feMergeNode in="SourceGraphic"/></feMerge>
    </filter>
  </defs>
  <circle cx="150" cy="165" r="110" fill="url(#ag1)" opacity="0.3"/>
  <g fill="#1a1a2e" stroke="#ffffff" stroke-opacity="0.15" stroke-width="1">
    <rect x="138.0" y="115.0" width="24.0" height="24.0"/>
    <rect x="138.0" y="139.0" width="24.0" height="32.0"/>
    <rect x="130.0" y="139.0" width="8.0" height="28.0"/>
    <rect x="162.0" y="139.0" width="8.0" height="28.0"/>
    <rect x="138.0" y="171.0" width="11.0" height="28.0"/>
    <rect x="151.0" y="171.0" width="11.0" height="28.0"/>
  </g>
  <circle cx="150" cy="165" r="100" fill="none" stroke="#1e0a3c" stroke-width="5" opacity="0.8" filter="url(#af)"/>
  <circle cx="150" cy="165" r="80" fill="none" stroke="#1e0a3c" stroke-width="5" opacity="0.6" filter="url(#af)"/>
  <circle cx="150" cy="165" r="60" fill="none" stroke="#1e0a3c" stroke-width="5" opacity="0.5" filter="url(#af)"/>
  <circle cx="150" cy="165" r="40" fill="none" stroke="#1e0a3c" stroke-width="5" opacity="0.4" filter="url(#af)"/>
  <circle cx="150" cy="165" r="20" fill="#1e0a3c" opacity="0.6" filter="url(#af)"/>
  <rect x="0" y="265" width="300" height="35" fill="#050510" opacity="0.85"/>
  <text x="150" y="281" text-anchor="middle" font-family="Arial,sans-serif" font-size="11" font-weight="bold" fill="#ef4444">Void Aura</text>
  <text x="150" y="294" text-anchor="middle" font-family="Arial,sans-serif" font-size="9" fill="#ef4444">MYTHIC</text>
  <rect x="1" y="1" width="298" height="298" rx="10" fill="none" stroke="#ef4444" stroke-width="2" opacity="0.5"/>
</svg>
