<svg xmlns="http://www.w3.org/2000/svg" viewBox="0 0 300 300" width="300" height="300">
  <defs>
    <radialGradient id="bgMain" cx="50%" cy="50%" r="70%">
      <stop offset="0%" stop-color="#0d0d28"/>
      <stop offset="100%" stop-color="#020208"/>
    </radialGradient>
  </defs>
  <rect width="300" height="300" fill="url(#bgMain)"/>
  <g opacity="0.5">
    <circle cx="73.5" cy="279.4" r="0.7" fill="white" opacity="0.72"/>
    <circle cx="33.9" cy="79.3" r="2.0" fill="white" opacity="0.43"/>
    <circle cx="189.7" cy="138.6" r="1.2" fill="white" opacity="0.60"/>
    <circle cx="63.8" cy="242.5" r="0.6" fill="white" opacity="0.44"/>
    <circle cx="15.6" cy="84.7" r="1.1" fill="white" opacity="0.84"/>
    <circle cx="116.1" cy="41.8" r="0.9" fill="white" opacity="0.89"/>
    <circle cx="27.7" cy="183.6" r="1.1" fill="white" opacity="0.70"/>
    <circle cx="104.8" cy="203.6" r="1.2" fill="white" opacity="0.69"/>
    <circle cx="262.4" cy="172.8" r="0.7" fill="white" opacity="0.34"/>
    <circle cx="274.9" cy="146.8" r="0.8" fill="white" opacity="0.87"/>
    <circle cx="172.1" cy="214.1" r="1.8" fill="white" opacity="0.47"/>
    <circle cx="109.9" cy="255.9" r="0.7" fill="white" opacity="0.76"/>
    <circle cx="37.3" cy="203.3" r="1.6" fill="white" opacity="0.87"/>
    <circle cx="246.2" cy="151.0" r="0.8" fill="white" opacity="0.39"/>
    <circle cx="158.0" cy="152.7" r="0.6" fill="white" opacity="0.84"/>
    <circle cx="152.1" cy="206.4" r="0.8" fill="white" opacity="0.45"/>
    <circle cx="13.3" cy="106.1" r="0.9" fill="white" opacity="0.55"/>
    <circle cx="115.5" cy="243.6" r="1.8" fill="white" opacity="0.41"/>
    <circle cx="121.0" cy="56.5" r="1.5" fill="white" opacity="0.88"/>
    <circle cx="66.5" cy="224.6" r="1.0" fill="white" opacity="0.31"/>
    <circle cx="224.0" cy="105.7" r="0.8" fill="white" opacity="0.56"/>
    <circle cx="74.9" cy="124.8" r="1.2" fill="white" opacity="0.55"/>
    <circle cx="174.8" cy="90.8" r="0.6" fill="white" opacity="0.35"/>
    <circle cx="39.8" cy="155.9" r="1.0" fill="white" opacity="0.78"/>
    <circle cx="151.4" cy="208.3" r="2.0" fill="white" opacity="0.34"/>
    <circle cx="14.7" cy="49.3" r="1.1" fill="white" opacity="0.64"/>
    <circle cx="218.3" cy="108.4" r="1.9" fill="white" opacity="0.30"/>
    <circle cx="244.0" cy="68.8" r="1.8" fill="white" opacity="0.32"/>
    <circle cx="280.2" cy="222.6" r="2.0" fill="white" opacity="0.65"/>
    <circle cx="59.8" cy="281.6" r="1.2" fill="white" opacity="0.35"/>
    <circle cx="179.5" cy="149.2" r="1.2" fill="white" opacity="0.39"/>
    <circle cx="44.2" cy="172.6" r="1.2" fill="white" opacity="0.38"/>
    <circle cx="133.1" cy="213.1" r="1.6" fill="white" opacity="0.58"/>
    <circle cx="120.3" cy="111.0" r="0.8" fill="white" opacity="0.42"/>
    <circle cx="134.9" cy="40.3" r="1.6" fill="white" opacity="0.72"/>
  </g>
  <defs>
    <linearGradient id="wgL" x1="0" y1="0" x2="1" y2="0">
      <stop offset="0%" stop-color="#f9fafb" stop-opacity="1"/>
      <stop offset="50%" stop-color="#22d3ee" stop-opacity="1"/>
      <stop offset="100%" stop-color="#0a0a18" stop-opacity="0.3"/>
    </linearGradient>
    <linearGradient id="wgR" x1="1" y1="0" x2="0" y2="0">
      <stop offset="0%" stop-color="#f9fafb" stop-opacity="1"/>
      <stop offset="50%" stop-color="#22d3ee" stop-opacity="1"/>
      <stop offset="100%" stop-color="#0a0a18" stop-opacity="0.3"/>
    </linearGradient>
    <radialGradient id="wglow" cx="150" cy="165" r="90" gradientUnits="userSpaceOnUse">
      <stop offset="0%" stop-color="rgba(34,211,238,0.7)"/>
      <stop offset="100%" stop-color="transparent"/>
    </radialGradient>
    <filter id="wf" x="-40%" y="-40%" width="180%" height="180%">
      <feGaussianBlur in="SourceGraphic" stdDeviation="12" result="blur"/>
      <feColorMatrix in="blur" type="matrix" values="1 0 0 0 0  0 1 0 0 0  0 0 1 0 0  0 0 0 2.5 0" result="glow"/>
      <feMerge><feMergeNode in="glow"/><feMergeNode in="SourceGraphic"/></feMerge>
    </filter>
  </defs>
  <circle cx="150" cy="165" r="90" fill="url(#wglow)" opacity="0.4"/>
  <line x1="150.0" y1="165.0" x2="195.0" y2="87.1" stroke="url(#wgL)" stroke-width="10.0" opacity="0.80" stroke-linecap="round" filter="url(#wf)"/>
  <line x1="150.0" y1="165.0" x2="170.7" y2="87.7" stroke="url(#wgL)" stroke-width="9.0" opacity="0.75" stroke-linecap="round" filter="url(#wf)"/>
  <line x1="150.0" y1="165.0" x2="150.0" y2="95.0" stroke="url(#wgL)" stroke-width="8.0" opacity="0.70" stroke-linecap="round" filter="url(#wf)"/>
  <line x1="150.0" y1="165.0" x2="81.1" y2="107.1" stroke="url(#wgR)" stroke-width="10.0" opacity="0.80" stroke-linecap="round" filter="url(#wf)"/>
  <line x1="150.0" y1="165.0" x2="104.1" y2="99.5" stroke="url(#wgR)" stroke-width="9.0" opacity="0.75" stroke-linecap="round" filter="url(#wf)"/>
  <line x1="150.0" y1="165.0" x2="126.1" y2="99.2" stroke="url(#wgR)" stroke-width="8.0" opacity="0.70" stroke-linecap="round" filter="url(#wf)"/>
  <line x1="150.0" y1="165.0" x2="176.7" y2="91.7" stroke="url(#wgL)" stroke-width="8.5" opacity="0.74" stroke-linecap="round" filter="url(#wf)"/>
  <line x1="150.0" y1="165.0" x2="155.9" y2="97.3" stroke="url(#wgL)" stroke-width="7.5" opacity="0.69" stroke-linecap="round" filter="url(#wf)"/>
  <line x1="150.0" y1="165.0" x2="139.9" y2="107.9" stroke="url(#wgL)" stroke-width="6.5" opacity="0.64" stroke-linecap="round" filter="url(#wf)"/>
  <line x1="150.0" y1="165.0" x2="82.5" y2="126.0" stroke="url(#wgR)" stroke-width="8.5" opacity="0.74" stroke-linecap="round" filter="url(#wf)"/>
  <line x1="150.0" y1="165.0" x2="101.9" y2="116.9" stroke="url(#wgR)" stroke-width="7.5" opacity="0.69" stroke-linecap="round" filter="url(#wf)"/>
  <line x1="150.0" y1="165.0" x2="121.0" y2="114.8" stroke="url(#wgR)" stroke-width="6.5" opacity="0.64" stroke-linecap="round" filter="url(#wf)"/>
  <line x1="150.0" y1="165.0" x2="161.5" y2="100.0" stroke="url(#wgL)" stroke-width="7.0" opacity="0.68" stroke-linecap="round" filter="url(#wf)"/>
  <line x1="150.0" y1="165.0" x2="145.1" y2="109.2" stroke="url(#wgL)" stroke-width="6.0" opacity="0.63" stroke-linecap="round" filter="url(#wf)"/>
  <line x1="150.0" y1="165.0" x2="134.3" y2="121.8" stroke="url(#wgL)" stroke-width="5.0" opacity="0.58" stroke-linecap="round" filter="url(#wf)"/>
  <line x1="150.0" y1="165.0" x2="88.0" y2="142.4" stroke="url(#wgR)" stroke-width="7.0" opacity="0.68" stroke-linecap="round" filter="url(#wf)"/>
  <line x1="150.0" y1="165.0" x2="104.1" y2="132.9" stroke="url(#wgR)" stroke-width="6.0" opacity="0.63" stroke-linecap="round" filter="url(#wf)"/>
  <line x1="150.0" y1="165.0" x2="120.4" y2="129.8" stroke="url(#wgR)" stroke-width="5.0" opacity="0.58" stroke-linecap="round" filter="url(#wf)"/>
  <line x1="150.0" y1="165.0" x2="150.0" y2="111.0" stroke="url(#wgL)" stroke-width="5.5" opacity="0.62" stroke-linecap="round" filter="url(#wf)"/>
  <line x1="150.0" y1="165.0" x2="138.6" y2="122.5" stroke="url(#wgL)" stroke-width="4.5" opacity="0.57" stroke-linecap="round" filter="url(#wf)"/>
  <line x1="150.0" y1="165.0" x2="133.0" y2="135.6" stroke="url(#wgL)" stroke-width="3.5" opacity="0.52" stroke-linecap="round" filter="url(#wf)"/>
  <line x1="150.0" y1="165.0" x2="96.8" y2="155.6" stroke="url(#wgR)" stroke-width="5.5" opacity="0.62" stroke-linecap="round" filter="url(#wf)"/>
  <line x1="150.0" y1="165.0" x2="110.1" y2="146.4" stroke="url(#wgR)" stroke-width="4.5" opacity="0.57" stroke-linecap="round" filter="url(#wf)"/>
  <line x1="150.0" y1="165.0" x2="124.0" y2="143.1" stroke="url(#wgR)" stroke-width="3.5" opacity="0.52" stroke-linecap="round" filter="url(#wf)"/>
  <line x1="150.0" y1="165.0" x2="142.7" y2="123.6" stroke="url(#wgL)" stroke-width="4.0" opacity="0.56" stroke-linecap="round" filter="url(#wf)"/>
  <line x1="150.0" y1="165.0" x2="136.5" y2="136.0" stroke="url(#wgL)" stroke-width="3.0" opacity="0.51" stroke-linecap="round" filter="url(#wf)"/>
  <line x1="150.0" y1="165.0" x2="135.9" y2="148.1" stroke="url(#wgL)" stroke-width="3.0" opacity="0.46" stroke-linecap="round" filter="url(#wf)"/>
  <line x1="150.0" y1="165.0" x2="108.0" y2="165.0" stroke="url(#wgR)" stroke-width="4.0" opacity="0.56" stroke-linecap="round" filter="url(#wf)"/>
  <line x1="150.0" y1="165.0" x2="119.1" y2="156.7" stroke="url(#wgR)" stroke-width="3.0" opacity="0.51" stroke-linecap="round" filter="url(#wf)"/>
  <line x1="150.0" y1="165.0" x2="130.9" y2="154.0" stroke="url(#wgR)" stroke-width="3.0" opacity="0.46" stroke-linecap="round" filter="url(#wf)"/>
  <line x1="150.0" y1="165.0" x2="139.7" y2="136.8" stroke="url(#wgL)" stroke-width="3.0" opacity="0.50" stroke-linecap="round" filter="url(#wf)"/>
  <line x1="150.0" y1="165.0" x2="138.5" y2="148.6" stroke="url(#wgL)" stroke-width="3.0" opacity="0.45" stroke-linecap="round" filter="url(#wf)"/>
  <line x1="150.0" y1="165.0" x2="142.3" y2="158.6" stroke="url(#wgL)" stroke-width="3.0" opacity="0.40" stroke-linecap="round" filter="url(#wf)"/>
  <line x1="150.0" y1="165.0" x2="120.5" y2="170.2" stroke="url(#wgR)" stroke-width="3.0" opacity="0.50" stroke-linecap="round" filter="url(#wf)"/>
  <line x1="150.0" y1="165.0" x2="130.1" y2="163.3" stroke="url(#wgR)" stroke-width="3.0" opacity="0.45" stroke-linecap="round" filter="url(#wf)"/>
  <line x1="150.0" y1="165.0" x2="140.6" y2="161.6" stroke="url(#wgR)" stroke-width="3.0" opacity="0.40" stroke-linecap="round" filter="url(#wf)"/>
  <rect x="0" y="265" width="300" height="35" fill="#050510" opacity="0.85"/>
  <text x="150" y="281" text-anchor="middle" font-family="Arial,sans-serif" font-size="11" font-weight="bold" fill="#22d3ee">Angel Wings</text>
  <text x="150" y="294" text-anchor="middle" font-family="Arial,sans-serif" font-size="9" fill="#22d3ee">CELESTIAL</text>
  <rect x="1" y="1" width="298" height="298" rx="10" fill="none" stroke="#22d3ee" stroke-width="2" opacity="0.5"/>
</svg>
