<svg xmlns="http://www.w3.org/2000/svg" viewBox="0 0 300 300" width="300" height="300">
  <defs>
    <radialGradient id="bgMain" cx="50%" cy="50%" r="70%">
      <stop offset="0%" stop-color="#0d0d28"/>
      <stop offset="100%" stop-color="#020208"/>
    </radialGradient>
  </defs>
  <rect width="300" height="300" fill="url(#bgMain)"/>
  <g opacity="0.5">
    <circle cx="189.0" cy="17.0" r="0.9" fill="white" opacity="0.43"/>
    <circle cx="216.2" cy="199.5" r="1.8" fill="white" opacity="0.35"/>
    <circle cx="128.1" cy="18.3" r="0.8" fill="white" opacity="0.60"/>
    <circle cx="17.4" cy="65.7" r="1.5" fill="white" opacity="0.63"/>
    <circle cx="71.7" cy="175.0" r="1.7" fill="white" opacity="0.30"/>
    <circle cx="235.6" cy="205.5" r="1.0" fill="white" opacity="0.39"/>
    <circle cx="278.0" cy="104.2" r="0.6" fill="white" opacity="0.36"/>
    <circle cx="247.3" cy="179.0" r="1.7" fill="white" opacity="0.74"/>
    <circle cx="160.1" cy="282.5" r="1.1" fill="white" opacity="0.63"/>
    <circle cx="242.2" cy="183.2" r="1.8" fill="white" opacity="0.65"/>
    <circle cx="207.3" cy="22.8" r="0.8" fill="white" opacity="0.47"/>
    <circle cx="32.3" cy="75.2" r="0.7" fill="white" opacity="0.47"/>
    <circle cx="188.0" cy="112.2" r="1.1" fill="white" opacity="0.43"/>
    <circle cx="84.8" cy="272.3" r="1.5" fill="white" opacity="0.67"/>
    <circle cx="57.9" cy="214.2" r="0.7" fill="white" opacity="0.53"/>
    <circle cx="287.1" cy="189.2" r="1.3" fill="white" opacity="0.71"/>
    <circle cx="246.0" cy="227.3" r="0.8" fill="white" opacity="0.32"/>
    <circle cx="98.3" cy="85.0" r="0.8" fill="white" opacity="0.87"/>
    <circle cx="255.4" cy="98.1" r="1.5" fill="white" opacity="0.54"/>
    <circle cx="266.1" cy="138.5" r="0.9" fill="white" opacity="0.45"/>
    <circle cx="167.2" cy="83.6" r="1.4" fill="white" opacity="0.84"/>
    <circle cx="121.8" cy="71.4" r="2.0" fill="white" opacity="0.61"/>
    <circle cx="35.5" cy="23.2" r="0.7" fill="white" opacity="0.68"/>
    <circle cx="231.8" cy="128.2" r="0.6" fill="white" opacity="0.53"/>
    <circle cx="288.9" cy="158.2" r="2.0" fill="white" opacity="0.82"/>
    <circle cx="13.2" cy="211.8" r="1.5" fill="white" opacity="0.62"/>
    <circle cx="84.7" cy="189.5" r="0.7" fill="white" opacity="0.56"/>
    <circle cx="137.0" cy="277.1" r="1.8" fill="white" opacity="0.46"/>
    <circle cx="150.2" cy="60.0" r="1.9" fill="white" opacity="0.82"/>
    <circle cx="93.6" cy="188.9" r="1.4" fill="white" opacity="0.39"/>
    <circle cx="223.5" cy="161.0" r="1.7" fill="white" opacity="0.62"/>
    <circle cx="10.2" cy="100.8" r="0.5" fill="white" opacity="0.86"/>
    <circle cx="256.0" cy="242.9" r="1.0" fill="white" opacity="0.33"/>
    <circle cx="255.8" cy="275.1" r="0.6" fill="white" opacity="0.59"/>
    <circle cx="29.4" cy="223.0" r="1.6" fill="white" opacity="0.38"/>
  </g>
  <defs>
    <radialGradient id="sg1" cx="150" cy="175" r="100" gradientUnits="userSpaceOnUse">
      <stop offset="0%" stop-color="#0a0a28"/>
      <stop offset="100%" stop-color="#0a0a1a"/>
    </radialGradient>
    <radialGradient id="sglow" cx="150" cy="175" r="90" gradientUnits="userSpaceOnUse">
      <stop offset="0%" stop-color="rgba(168,85,247,0.7)"/>
      <stop offset="100%" stop-color="transparent"/>
    </radialGradient>
    <filter id="sf" x="-40%" y="-40%" width="180%" height="180%">
      <feGaussianBlur in="SourceGraphic" stdDeviation="10" result="blur"/>
      <feColorMatrix in="blur" type="matrix" values="1 0 0 0 0  0 1 0 0 0  0 0 1 0 0  0 0 0 2.2 0" result="glow"/>
      <feMerge><feMergeNode in="glow"/><feMergeNode in="SourceGraphic"/></feMerge>
    </filter>
  </defs>
  <circle cx="150" cy="175" r="95" fill="url(#sglow)" opacity="0.2"/>
  <g fill="#0d0d25" stroke="#0a0a28" stroke-opacity="0.6" stroke-width="1">
    <rect x="138.0" y="117.0" width="24.0" height="24.0"/>
    <rect x="138.0" y="141.0" width="24.0" height="32.0"/>
    <rect x="130.0" y="141.0" width="8.0" height="28.0"/>
    <rect x="162.0" y="141.0" width="8.0" height="28.0"/>
    <rect x="138.0" y="173.0" width="11.0" height="28.0"/>
    <rect x="151.0" y="173.0" width="11.0" height="28.0"/>
  </g>
  <rect x="128" y="115" width="44" height="42" rx="3" fill="url(#sg1)" filter="url(#sf)" opacity="0.9"/>
  <ellipse cx="124" cy="110" rx="14" ry="10" fill="#0a0a28" filter="url(#sf)" opacity="0.9"/>
  <ellipse cx="176" cy="110" rx="14" ry="10" fill="#0a0a28" filter="url(#sf)" opacity="0.9"/>
  <rect x="130" y="155" width="40" height="8" rx="2" fill="#a855f7" opacity="0.9"/>
  <rect x="130" y="185" width="16" height="10" rx="2" fill="#0a0a28" opacity="0.8"/>
  <rect x="154"  y="185" width="16" height="10" rx="2" fill="#0a0a28" opacity="0.8"/>
  <circle cx="150" cy="127" r="7" fill="#a855f7" filter="url(#sf)"/>
  <rect x="0" y="265" width="300" height="35" fill="#050510" opacity="0.85"/>
  <text x="150" y="281" text-anchor="middle" font-family="Arial,sans-serif" font-size="11" font-weight="bold" fill="#ef4444">Astral Suit</text>
  <text x="150" y="294" text-anchor="middle" font-family="Arial,sans-serif" font-size="9" fill="#ef4444">MYTHIC</text>
  <rect x="1" y="1" width="298" height="298" rx="10" fill="none" stroke="#ef4444" stroke-width="2" opacity="0.5"/>
</svg>
