<svg xmlns="http://www.w3.org/2000/svg" viewBox="0 0 300 300" width="300" height="300">
  <defs>
    <radialGradient id="bgMain" cx="50%" cy="50%" r="70%">
      <stop offset="0%" stop-color="#0d0d28"/>
      <stop offset="100%" stop-color="#020208"/>
    </radialGradient>
  </defs>
  <rect width="300" height="300" fill="url(#bgMain)"/>
  <g opacity="0.5">
    <circle cx="102.0" cy="285.3" r="1.9" fill="white" opacity="0.85"/>
    <circle cx="231.2" cy="255.0" r="0.5" fill="white" opacity="0.68"/>
    <circle cx="79.3" cy="214.5" r="1.1" fill="white" opacity="0.64"/>
    <circle cx="162.0" cy="171.3" r="1.7" fill="white" opacity="0.89"/>
    <circle cx="106.8" cy="235.7" r="1.8" fill="white" opacity="0.54"/>
    <circle cx="44.6" cy="149.3" r="1.6" fill="white" opacity="0.61"/>
    <circle cx="61.7" cy="207.5" r="1.0" fill="white" opacity="0.83"/>
    <circle cx="57.2" cy="176.3" r="1.1" fill="white" opacity="0.89"/>
    <circle cx="48.8" cy="256.4" r="1.1" fill="white" opacity="0.52"/>
    <circle cx="68.3" cy="148.5" r="1.9" fill="white" opacity="0.90"/>
    <circle cx="273.1" cy="181.2" r="0.9" fill="white" opacity="0.60"/>
    <circle cx="191.9" cy="92.9" r="2.0" fill="white" opacity="0.35"/>
    <circle cx="75.8" cy="66.9" r="0.8" fill="white" opacity="0.34"/>
    <circle cx="77.1" cy="114.7" r="1.9" fill="white" opacity="0.63"/>
    <circle cx="184.9" cy="107.5" r="0.8" fill="white" opacity="0.64"/>
    <circle cx="213.9" cy="33.8" r="1.5" fill="white" opacity="0.43"/>
    <circle cx="203.2" cy="109.5" r="0.7" fill="white" opacity="0.38"/>
    <circle cx="231.8" cy="161.3" r="0.6" fill="white" opacity="0.84"/>
    <circle cx="87.5" cy="88.4" r="0.5" fill="white" opacity="0.48"/>
    <circle cx="166.8" cy="261.4" r="0.9" fill="white" opacity="0.60"/>
    <circle cx="32.4" cy="202.3" r="1.0" fill="white" opacity="0.53"/>
    <circle cx="85.8" cy="239.1" r="2.0" fill="white" opacity="0.38"/>
    <circle cx="136.3" cy="39.9" r="1.6" fill="white" opacity="0.84"/>
    <circle cx="45.3" cy="201.1" r="1.0" fill="white" opacity="0.57"/>
    <circle cx="170.2" cy="117.6" r="1.5" fill="white" opacity="0.50"/>
    <circle cx="148.9" cy="109.9" r="1.1" fill="white" opacity="0.39"/>
    <circle cx="110.2" cy="41.0" r="1.4" fill="white" opacity="0.55"/>
    <circle cx="127.2" cy="261.3" r="0.7" fill="white" opacity="0.62"/>
    <circle cx="180.8" cy="186.8" r="1.6" fill="white" opacity="0.51"/>
    <circle cx="269.0" cy="197.0" r="0.6" fill="white" opacity="0.66"/>
    <circle cx="154.8" cy="271.9" r="1.6" fill="white" opacity="0.70"/>
    <circle cx="199.9" cy="208.4" r="1.2" fill="white" opacity="0.59"/>
    <circle cx="158.7" cy="15.6" r="1.3" fill="white" opacity="0.55"/>
    <circle cx="129.7" cy="167.9" r="1.5" fill="white" opacity="0.53"/>
    <circle cx="170.9" cy="75.9" r="2.0" fill="white" opacity="0.70"/>
  </g>
  <defs>
    <radialGradient id="ag1" cx="150" cy="165" r="110" gradientUnits="userSpaceOnUse">
      <stop offset="0%" stop-color="rgba(168,85,247,0.7)"/>
      <stop offset="100%" stop-color="transparent"/>
    </radialGradient>
    <radialGradient id="ag2" cx="150" cy="165" r="60" gradientUnits="userSpaceOnUse">
      <stop offset="0%" stop-color="#a855f7"/>
      <stop offset="100%" stop-color="transparent"/>
    </radialGradient>
    <filter id="af" x="-40%" y="-40%" width="180%" height="180%">
      <feGaussianBlur in="SourceGraphic" stdDeviation="14" result="blur"/>
      <feColorMatrix in="blur" type="matrix" values="1 0 0 0 0  0 1 0 0 0  0 0 1 0 0  0 0 0 3 0" result="glow"/>
      <feMerge><feMergeNode in="glow"/><feMergeNode in="SourceGraphic"/></feMerge>
    </filter>
  </defs>
  <circle cx="150" cy="165" r="110" fill="url(#ag1)" opacity="0.3"/>
  <g fill="#1a1a2e" stroke="#ffffff" stroke-opacity="0.15" stroke-width="1">
    <rect x="138.0" y="115.0" width="24.0" height="24.0"/>
    <rect x="138.0" y="139.0" width="24.0" height="32.0"/>
    <rect x="130.0" y="139.0" width="8.0" height="28.0"/>
    <rect x="162.0" y="139.0" width="8.0" height="28.0"/>
    <rect x="138.0" y="171.0" width="11.0" height="28.0"/>
    <rect x="151.0" y="171.0" width="11.0" height="28.0"/>
  </g>
  <circle cx="150" cy="165" r="95" fill="none" stroke="#a855f7" stroke-width="4" opacity="0.6" filter="url(#af)"/>
  <circle cx="150" cy="165" r="75" fill="none" stroke="#a855f7" stroke-width="3" opacity="0.5" filter="url(#af)"/>
  <circle cx="150" cy="165" r="55" fill="none" stroke="#a855f7" stroke-width="2" opacity="0.35" filter="url(#af)"/>
  <circle cx="235.0" cy="165.0" r="4" fill="#22d3ee" filter="url(#af)" opacity="0.9"/>
  <circle cx="210.1" cy="225.1" r="4" fill="#22d3ee" filter="url(#af)" opacity="0.9"/>
  <circle cx="150.0" cy="250.0" r="4" fill="#22d3ee" filter="url(#af)" opacity="0.9"/>
  <circle cx="89.9" cy="225.1" r="4" fill="#22d3ee" filter="url(#af)" opacity="0.9"/>
  <circle cx="65.0" cy="165.0" r="4" fill="#22d3ee" filter="url(#af)" opacity="0.9"/>
  <circle cx="89.9" cy="104.9" r="4" fill="#22d3ee" filter="url(#af)" opacity="0.9"/>
  <circle cx="150.0" cy="80.0" r="4" fill="#22d3ee" filter="url(#af)" opacity="0.9"/>
  <circle cx="210.1" cy="104.9" r="4" fill="#22d3ee" filter="url(#af)" opacity="0.9"/>
  <rect x="0" y="265" width="300" height="35" fill="#050510" opacity="0.85"/>
  <text x="150" y="281" text-anchor="middle" font-family="Arial,sans-serif" font-size="11" font-weight="bold" fill="#22d3ee">Astral Aura</text>
  <text x="150" y="294" text-anchor="middle" font-family="Arial,sans-serif" font-size="9" fill="#22d3ee">CELESTIAL</text>
  <rect x="1" y="1" width="298" height="298" rx="10" fill="none" stroke="#22d3ee" stroke-width="2" opacity="0.5"/>
</svg>
