<svg xmlns="http://www.w3.org/2000/svg" viewBox="0 0 300 300" width="300" height="300">
  <defs>
    <radialGradient id="bgMain" cx="50%" cy="50%" r="70%">
      <stop offset="0%" stop-color="#0d0d28"/>
      <stop offset="100%" stop-color="#020208"/>
    </radialGradient>
  </defs>
  <rect width="300" height="300" fill="url(#bgMain)"/>
  <g opacity="0.5">
    <circle cx="39.9" cy="206.7" r="1.5" fill="white" opacity="0.86"/>
    <circle cx="85.9" cy="81.6" r="1.6" fill="white" opacity="0.70"/>
    <circle cx="94.8" cy="201.6" r="1.1" fill="white" opacity="0.77"/>
    <circle cx="43.2" cy="72.5" r="1.9" fill="white" opacity="0.51"/>
    <circle cx="82.9" cy="235.2" r="1.4" fill="white" opacity="0.39"/>
    <circle cx="164.4" cy="195.9" r="0.7" fill="white" opacity="0.69"/>
    <circle cx="44.4" cy="104.4" r="0.6" fill="white" opacity="0.42"/>
    <circle cx="283.8" cy="123.0" r="2.0" fill="white" opacity="0.56"/>
    <circle cx="180.1" cy="254.3" r="1.5" fill="white" opacity="0.37"/>
    <circle cx="174.9" cy="187.4" r="0.8" fill="white" opacity="0.36"/>
    <circle cx="254.9" cy="153.9" r="0.8" fill="white" opacity="0.57"/>
    <circle cx="71.1" cy="233.5" r="1.3" fill="white" opacity="0.36"/>
    <circle cx="239.1" cy="35.1" r="0.9" fill="white" opacity="0.32"/>
    <circle cx="217.3" cy="41.9" r="1.3" fill="white" opacity="0.36"/>
    <circle cx="144.5" cy="201.9" r="1.3" fill="white" opacity="0.57"/>
    <circle cx="145.8" cy="132.4" r="1.4" fill="white" opacity="0.36"/>
    <circle cx="142.9" cy="76.2" r="1.8" fill="white" opacity="0.86"/>
    <circle cx="28.6" cy="50.1" r="1.6" fill="white" opacity="0.64"/>
    <circle cx="15.3" cy="207.4" r="1.9" fill="white" opacity="0.55"/>
    <circle cx="107.3" cy="169.4" r="1.9" fill="white" opacity="0.46"/>
    <circle cx="94.6" cy="62.8" r="1.4" fill="white" opacity="0.58"/>
    <circle cx="81.7" cy="118.6" r="0.6" fill="white" opacity="0.49"/>
    <circle cx="285.2" cy="174.1" r="0.9" fill="white" opacity="0.86"/>
    <circle cx="110.3" cy="80.4" r="0.6" fill="white" opacity="0.39"/>
    <circle cx="65.7" cy="74.4" r="1.8" fill="white" opacity="0.46"/>
    <circle cx="79.6" cy="179.1" r="1.9" fill="white" opacity="0.47"/>
    <circle cx="223.2" cy="113.2" r="1.3" fill="white" opacity="0.66"/>
    <circle cx="273.8" cy="222.0" r="1.3" fill="white" opacity="0.80"/>
    <circle cx="112.6" cy="117.6" r="1.9" fill="white" opacity="0.63"/>
    <circle cx="226.6" cy="98.0" r="1.9" fill="white" opacity="0.67"/>
    <circle cx="79.2" cy="271.4" r="1.2" fill="white" opacity="0.50"/>
    <circle cx="83.6" cy="38.9" r="0.8" fill="white" opacity="0.72"/>
    <circle cx="49.4" cy="82.4" r="1.2" fill="white" opacity="0.63"/>
    <circle cx="116.5" cy="229.8" r="0.9" fill="white" opacity="0.52"/>
    <circle cx="129.0" cy="46.1" r="0.8" fill="white" opacity="0.39"/>
  </g>
  <defs>
    <linearGradient id="cg1" x1="0" y1="0" x2="0" y2="1">
      <stop offset="0%" stop-color="#1a0000" stop-opacity="1"/>
      <stop offset="50%" stop-color="#ef4444" stop-opacity="0.9"/>
      <stop offset="100%" stop-color="#050510" stop-opacity="0.6"/>
    </linearGradient>
    <radialGradient id="cglow" cx="150" cy="200" r="100" gradientUnits="userSpaceOnUse">
      <stop offset="0%" stop-color="rgba(239,68,68,0.6)"/>
      <stop offset="100%" stop-color="transparent"/>
    </radialGradient>
    <filter id="cf" x="-40%" y="-40%" width="180%" height="180%">
      <feGaussianBlur in="SourceGraphic" stdDeviation="10" result="blur"/>
      <feColorMatrix in="blur" type="matrix" values="1 0 0 0 0  0 1 0 0 0  0 0 1 0 0  0 0 0 2 0" result="glow"/>
      <feMerge><feMergeNode in="glow"/><feMergeNode in="SourceGraphic"/></feMerge>
    </filter>
  </defs>
  <ellipse cx="150" cy="200" rx="100" ry="80" fill="url(#cglow)" opacity="0.35"/>
  <polygon points="120,95 180,95 210,270 90,270" fill="url(#cg1)" filter="url(#cf)"/>
  <line x1="120" y1="95" x2="150" y2="110" stroke="#1a0000" stroke-width="2" opacity="0.7"/>
  <line x1="180" y1="95" x2="150" y2="110" stroke="#1a0000" stroke-width="2" opacity="0.7"/>
  <line x1="122.5" y1="130" x2="177.5" y2="130" stroke="#1a0000" stroke-width="2" opacity="0.5" filter="url(#cf)"/>
  <line x1="117.6" y1="158" x2="182.4" y2="158" stroke="#1a0000" stroke-width="2" opacity="0.5" filter="url(#cf)"/>
  <line x1="112.7" y1="186" x2="187.3" y2="186" stroke="#1a0000" stroke-width="2" opacity="0.5" filter="url(#cf)"/>
  <line x1="107.8" y1="214" x2="192.2" y2="214" stroke="#1a0000" stroke-width="2" opacity="0.5" filter="url(#cf)"/>
  <line x1="102.9" y1="242" x2="197.1" y2="242" stroke="#1a0000" stroke-width="2" opacity="0.5" filter="url(#cf)"/>
  <rect x="0" y="265" width="300" height="35" fill="#050510" opacity="0.85"/>
  <text x="150" y="281" text-anchor="middle" font-family="Arial,sans-serif" font-size="11" font-weight="bold" fill="#3b82f6">Crimson Cloak</text>
  <text x="150" y="294" text-anchor="middle" font-family="Arial,sans-serif" font-size="9" fill="#3b82f6">ELITE</text>
  <rect x="1" y="1" width="298" height="298" rx="10" fill="none" stroke="#3b82f6" stroke-width="2" opacity="0.5"/>
</svg>
