<svg xmlns="http://www.w3.org/2000/svg" viewBox="0 0 300 300" width="300" height="300">
  <defs>
    <radialGradient id="bgMain" cx="50%" cy="50%" r="70%">
      <stop offset="0%" stop-color="#0d0d28"/>
      <stop offset="100%" stop-color="#020208"/>
    </radialGradient>
  </defs>
  <rect width="300" height="300" fill="url(#bgMain)"/>
  <g opacity="0.5">
    <circle cx="232.1" cy="240.1" r="1.2" fill="white" opacity="0.46"/>
    <circle cx="10.1" cy="195.6" r="1.2" fill="white" opacity="0.76"/>
    <circle cx="114.5" cy="225.6" r="0.9" fill="white" opacity="0.78"/>
    <circle cx="214.4" cy="125.9" r="1.3" fill="white" opacity="0.71"/>
    <circle cx="64.0" cy="165.0" r="1.7" fill="white" opacity="0.46"/>
    <circle cx="234.9" cy="202.0" r="1.8" fill="white" opacity="0.50"/>
    <circle cx="36.1" cy="234.1" r="1.7" fill="white" opacity="0.57"/>
    <circle cx="36.3" cy="65.2" r="1.5" fill="white" opacity="0.47"/>
    <circle cx="276.4" cy="174.8" r="0.8" fill="white" opacity="0.69"/>
    <circle cx="110.9" cy="271.2" r="1.9" fill="white" opacity="0.61"/>
    <circle cx="190.5" cy="205.4" r="1.7" fill="white" opacity="0.89"/>
    <circle cx="18.0" cy="111.2" r="1.4" fill="white" opacity="0.48"/>
    <circle cx="175.0" cy="35.1" r="1.8" fill="white" opacity="0.62"/>
    <circle cx="42.7" cy="195.6" r="1.0" fill="white" opacity="0.42"/>
    <circle cx="145.4" cy="48.7" r="0.8" fill="white" opacity="0.82"/>
    <circle cx="205.5" cy="13.5" r="1.7" fill="white" opacity="0.31"/>
    <circle cx="103.2" cy="263.2" r="1.4" fill="white" opacity="0.48"/>
    <circle cx="115.7" cy="119.0" r="0.7" fill="white" opacity="0.90"/>
    <circle cx="25.1" cy="128.4" r="1.6" fill="white" opacity="0.54"/>
    <circle cx="284.7" cy="78.7" r="2.0" fill="white" opacity="0.84"/>
    <circle cx="197.7" cy="259.1" r="1.2" fill="white" opacity="0.80"/>
    <circle cx="232.9" cy="154.7" r="1.2" fill="white" opacity="0.72"/>
    <circle cx="124.5" cy="34.1" r="1.6" fill="white" opacity="0.46"/>
    <circle cx="146.5" cy="229.5" r="0.8" fill="white" opacity="0.31"/>
    <circle cx="44.6" cy="175.0" r="1.0" fill="white" opacity="0.45"/>
    <circle cx="136.4" cy="269.7" r="0.9" fill="white" opacity="0.55"/>
    <circle cx="256.2" cy="181.4" r="0.9" fill="white" opacity="0.58"/>
    <circle cx="144.0" cy="49.8" r="1.1" fill="white" opacity="0.48"/>
    <circle cx="235.3" cy="100.5" r="1.5" fill="white" opacity="0.88"/>
    <circle cx="268.5" cy="115.3" r="1.4" fill="white" opacity="0.49"/>
    <circle cx="121.5" cy="146.6" r="1.7" fill="white" opacity="0.86"/>
    <circle cx="91.4" cy="11.7" r="1.2" fill="white" opacity="0.33"/>
    <circle cx="18.4" cy="226.6" r="0.7" fill="white" opacity="0.73"/>
    <circle cx="111.4" cy="272.8" r="1.8" fill="white" opacity="0.34"/>
    <circle cx="63.9" cy="275.3" r="1.4" fill="white" opacity="0.55"/>
  </g>
  <defs>
    <linearGradient id="wgL" x1="0" y1="0" x2="1" y2="0">
      <stop offset="0%" stop-color="#e0f2fe" stop-opacity="1"/>
      <stop offset="50%" stop-color="#7dd3fc" stop-opacity="1"/>
      <stop offset="100%" stop-color="#0a0a18" stop-opacity="0.3"/>
    </linearGradient>
    <linearGradient id="wgR" x1="1" y1="0" x2="0" y2="0">
      <stop offset="0%" stop-color="#e0f2fe" stop-opacity="1"/>
      <stop offset="50%" stop-color="#7dd3fc" stop-opacity="1"/>
      <stop offset="100%" stop-color="#0a0a18" stop-opacity="0.3"/>
    </linearGradient>
    <radialGradient id="wglow" cx="150" cy="165" r="90" gradientUnits="userSpaceOnUse">
      <stop offset="0%" stop-color="rgba(125,211,252,0.5)"/>
      <stop offset="100%" stop-color="transparent"/>
    </radialGradient>
    <filter id="wf" x="-40%" y="-40%" width="180%" height="180%">
      <feGaussianBlur in="SourceGraphic" stdDeviation="12" result="blur"/>
      <feColorMatrix in="blur" type="matrix" values="1 0 0 0 0  0 1 0 0 0  0 0 1 0 0  0 0 0 2.5 0" result="glow"/>
      <feMerge><feMergeNode in="glow"/><feMergeNode in="SourceGraphic"/></feMerge>
    </filter>
  </defs>
  <circle cx="150" cy="165" r="90" fill="url(#wglow)" opacity="0.4"/>
  <polygon points="150,165 54.6,144.8 63.9,124.9 73.2,104.9" fill="url(#wgL)" opacity="0.90" filter="url(#wf)"/>
  <polygon points="150,165 226.8,104.9 236.1,124.9 245.4,144.8" fill="url(#wgR)" opacity="0.90" filter="url(#wf)"/>
  <polygon points="150,165 65.6,177.2 67.3,157.8 69.0,138.3" fill="url(#wgL)" opacity="0.82" filter="url(#wf)"/>
  <polygon points="150,165 231.0,138.3 232.7,157.8 234.4,177.2" fill="url(#wgR)" opacity="0.82" filter="url(#wf)"/>
  <polygon points="150,165 85.8,199.8 81.4,183.4 77.0,167.0" fill="url(#wgL)" opacity="0.74" filter="url(#wf)"/>
  <polygon points="150,165 223.0,167.0 218.6,183.4 214.2,199.8" fill="url(#wgR)" opacity="0.74" filter="url(#wf)"/>
  <polygon points="150,165 110.0,210.7 101.7,198.8 93.4,187.0" fill="url(#wgL)" opacity="0.66" filter="url(#wf)"/>
  <polygon points="150,165 206.6,187.0 198.3,198.8 190.0,210.7" fill="url(#wgR)" opacity="0.66" filter="url(#wf)"/>
  <rect x="0" y="265" width="300" height="35" fill="#050510" opacity="0.85"/>
  <text x="150" y="281" text-anchor="middle" font-family="Arial,sans-serif" font-size="11" font-weight="bold" fill="#10b981">Crystal Wings</text>
  <text x="150" y="294" text-anchor="middle" font-family="Arial,sans-serif" font-size="9" fill="#10b981">PREMIUM</text>
  <rect x="1" y="1" width="298" height="298" rx="10" fill="none" stroke="#10b981" stroke-width="2" opacity="0.5"/>
</svg>
