<svg xmlns="http://www.w3.org/2000/svg" viewBox="0 0 300 300" width="300" height="300">
  <defs>
    <radialGradient id="bgMain" cx="50%" cy="50%" r="70%">
      <stop offset="0%" stop-color="#0d0d28"/>
      <stop offset="100%" stop-color="#020208"/>
    </radialGradient>
  </defs>
  <rect width="300" height="300" fill="url(#bgMain)"/>
  <g opacity="0.5">
    <circle cx="191.6" cy="206.4" r="1.9" fill="white" opacity="0.42"/>
    <circle cx="28.3" cy="240.8" r="1.0" fill="white" opacity="0.52"/>
    <circle cx="238.2" cy="61.3" r="1.9" fill="white" opacity="0.59"/>
    <circle cx="30.0" cy="267.0" r="1.4" fill="white" opacity="0.35"/>
    <circle cx="244.8" cy="226.9" r="1.6" fill="white" opacity="0.69"/>
    <circle cx="288.0" cy="13.4" r="2.0" fill="white" opacity="0.69"/>
    <circle cx="80.8" cy="181.5" r="1.0" fill="white" opacity="0.69"/>
    <circle cx="207.2" cy="156.8" r="0.6" fill="white" opacity="0.54"/>
    <circle cx="94.6" cy="219.8" r="1.9" fill="white" opacity="0.77"/>
    <circle cx="158.5" cy="57.7" r="1.6" fill="white" opacity="0.46"/>
    <circle cx="289.2" cy="58.4" r="2.0" fill="white" opacity="0.31"/>
    <circle cx="228.3" cy="107.0" r="1.4" fill="white" opacity="0.55"/>
    <circle cx="96.2" cy="132.6" r="1.7" fill="white" opacity="0.51"/>
    <circle cx="111.1" cy="228.8" r="0.8" fill="white" opacity="0.51"/>
    <circle cx="154.6" cy="154.9" r="0.8" fill="white" opacity="0.76"/>
    <circle cx="147.0" cy="35.6" r="1.0" fill="white" opacity="0.33"/>
    <circle cx="106.2" cy="42.0" r="0.9" fill="white" opacity="0.63"/>
    <circle cx="203.1" cy="93.9" r="1.2" fill="white" opacity="0.61"/>
    <circle cx="174.0" cy="263.9" r="0.8" fill="white" opacity="0.76"/>
    <circle cx="165.2" cy="260.5" r="1.5" fill="white" opacity="0.30"/>
    <circle cx="26.1" cy="233.2" r="0.9" fill="white" opacity="0.67"/>
    <circle cx="37.2" cy="167.4" r="1.1" fill="white" opacity="0.58"/>
    <circle cx="11.0" cy="260.8" r="1.8" fill="white" opacity="0.75"/>
    <circle cx="183.9" cy="73.5" r="0.8" fill="white" opacity="0.80"/>
    <circle cx="102.2" cy="117.4" r="1.8" fill="white" opacity="0.51"/>
    <circle cx="288.1" cy="61.4" r="1.8" fill="white" opacity="0.48"/>
    <circle cx="48.4" cy="139.5" r="1.7" fill="white" opacity="0.36"/>
    <circle cx="176.6" cy="249.6" r="0.5" fill="white" opacity="0.59"/>
    <circle cx="97.4" cy="140.9" r="1.7" fill="white" opacity="0.56"/>
    <circle cx="95.1" cy="67.0" r="1.7" fill="white" opacity="0.39"/>
    <circle cx="210.3" cy="288.8" r="1.5" fill="white" opacity="0.84"/>
    <circle cx="45.0" cy="180.3" r="1.4" fill="white" opacity="0.35"/>
    <circle cx="131.4" cy="95.7" r="0.7" fill="white" opacity="0.54"/>
    <circle cx="34.3" cy="267.6" r="0.7" fill="white" opacity="0.63"/>
    <circle cx="208.7" cy="15.7" r="1.9" fill="white" opacity="0.85"/>
  </g>
  <defs>
    <radialGradient id="mg1" cx="150" cy="145" r="80" gradientUnits="userSpaceOnUse">
      <stop offset="0%" stop-color="#0a0014"/>
      <stop offset="50%" stop-color="#ef4444"/>
      <stop offset="100%" stop-color="#050510"/>
    </radialGradient>
    <radialGradient id="mglow" cx="150" cy="145" r="65" gradientUnits="userSpaceOnUse">
      <stop offset="0%" stop-color="rgba(239,68,68,0.75)"/>
      <stop offset="100%" stop-color="transparent"/>
    </radialGradient>
    <filter id="mf" x="-40%" y="-40%" width="180%" height="180%">
      <feGaussianBlur in="SourceGraphic" stdDeviation="10" result="blur"/>
      <feColorMatrix in="blur" type="matrix" values="1 0 0 0 0  0 1 0 0 0  0 0 1 0 0  0 0 0 2.5 0" result="glow"/>
      <feMerge><feMergeNode in="glow"/><feMergeNode in="SourceGraphic"/></feMerge>
    </filter>
  </defs>
  <ellipse cx="150" cy="145" rx="65" ry="55" fill="url(#mglow)" opacity="0.3"/>
  <g fill="#1a1a2e" stroke="#ffffff" stroke-opacity="0.15" stroke-width="1">
    <rect x="138.0" y="152.0" width="24.0" height="24.0"/>
    <rect x="138.0" y="176.0" width="24.0" height="32.0"/>
    <rect x="130.0" y="176.0" width="8.0" height="28.0"/>
    <rect x="162.0" y="176.0" width="8.0" height="28.0"/>
    <rect x="138.0" y="208.0" width="11.0" height="28.0"/>
    <rect x="151.0" y="208.0" width="11.0" height="28.0"/>
  </g>
  <path d="M 115 150 Q 112 97 150 87 Q 188 97 185 150 Q 180 167 150 170 Q 120 167 115 150 Z" fill="url(#mg1)" filter="url(#mf)"/>
  <ellipse cx="136" cy="129" rx="11" ry="12" fill="#050510" opacity="0.9"/>
  <ellipse cx="164" cy="129" rx="11" ry="12" fill="#050510" opacity="0.9"/>
  <ellipse cx="136" cy="129" rx="6" ry="7" fill="#ef4444" filter="url(#mf)"/>
  <ellipse cx="164" cy="129" rx="6" ry="7" fill="#ef4444" filter="url(#mf)"/>
  <rect x="132" y="155" width="6" height="12" rx="1" fill="#ef4444" opacity="0.8"/>
  <rect x="141" y="155" width="6" height="12" rx="1" fill="#ef4444" opacity="0.8"/>
  <rect x="150" y="155" width="6" height="12" rx="1" fill="#ef4444" opacity="0.8"/>
  <rect x="159" y="155" width="6" height="12" rx="1" fill="#ef4444" opacity="0.8"/>
  <rect x="168" y="155" width="6" height="12" rx="1" fill="#ef4444" opacity="0.8"/>
  <rect x="0" y="265" width="300" height="35" fill="#050510" opacity="0.85"/>
  <text x="150" y="281" text-anchor="middle" font-family="Arial,sans-serif" font-size="11" font-weight="bold" fill="#ef4444">Death Mask</text>
  <text x="150" y="294" text-anchor="middle" font-family="Arial,sans-serif" font-size="9" fill="#ef4444">MYTHIC</text>
  <rect x="1" y="1" width="298" height="298" rx="10" fill="none" stroke="#ef4444" stroke-width="2" opacity="0.5"/>
</svg>
