<svg xmlns="http://www.w3.org/2000/svg" viewBox="0 0 300 300" width="300" height="300">
  <defs>
    <radialGradient id="bgMain" cx="50%" cy="50%" r="70%">
      <stop offset="0%" stop-color="#0d0d28"/>
      <stop offset="100%" stop-color="#020208"/>
    </radialGradient>
  </defs>
  <rect width="300" height="300" fill="url(#bgMain)"/>
  <g opacity="0.5">
    <circle cx="258.7" cy="122.0" r="1.4" fill="white" opacity="0.82"/>
    <circle cx="74.0" cy="154.4" r="1.4" fill="white" opacity="0.87"/>
    <circle cx="19.0" cy="29.3" r="1.0" fill="white" opacity="0.80"/>
    <circle cx="246.1" cy="47.9" r="1.9" fill="white" opacity="0.62"/>
    <circle cx="281.0" cy="271.7" r="0.6" fill="white" opacity="0.88"/>
    <circle cx="144.0" cy="53.7" r="1.2" fill="white" opacity="0.34"/>
    <circle cx="219.7" cy="162.4" r="0.7" fill="white" opacity="0.44"/>
    <circle cx="151.8" cy="228.0" r="0.9" fill="white" opacity="0.36"/>
    <circle cx="109.3" cy="29.3" r="1.0" fill="white" opacity="0.82"/>
    <circle cx="61.4" cy="94.5" r="1.7" fill="white" opacity="0.42"/>
    <circle cx="42.2" cy="79.5" r="1.4" fill="white" opacity="0.73"/>
    <circle cx="199.5" cy="28.1" r="0.9" fill="white" opacity="0.37"/>
    <circle cx="166.8" cy="112.4" r="1.6" fill="white" opacity="0.64"/>
    <circle cx="173.0" cy="58.0" r="1.3" fill="white" opacity="0.34"/>
    <circle cx="38.2" cy="250.3" r="0.8" fill="white" opacity="0.30"/>
    <circle cx="210.4" cy="61.9" r="1.0" fill="white" opacity="0.64"/>
    <circle cx="273.2" cy="16.5" r="1.5" fill="white" opacity="0.32"/>
    <circle cx="227.0" cy="112.4" r="0.6" fill="white" opacity="0.54"/>
    <circle cx="192.2" cy="48.0" r="1.1" fill="white" opacity="0.77"/>
    <circle cx="239.6" cy="213.8" r="1.2" fill="white" opacity="0.72"/>
    <circle cx="51.7" cy="117.4" r="1.0" fill="white" opacity="0.38"/>
    <circle cx="21.5" cy="24.8" r="2.0" fill="white" opacity="0.53"/>
    <circle cx="99.4" cy="193.7" r="1.6" fill="white" opacity="0.84"/>
    <circle cx="265.3" cy="26.0" r="0.9" fill="white" opacity="0.53"/>
    <circle cx="95.8" cy="165.7" r="0.9" fill="white" opacity="0.84"/>
    <circle cx="101.9" cy="260.3" r="1.9" fill="white" opacity="0.70"/>
    <circle cx="86.2" cy="25.9" r="2.0" fill="white" opacity="0.85"/>
    <circle cx="147.1" cy="27.1" r="1.6" fill="white" opacity="0.48"/>
    <circle cx="132.3" cy="284.4" r="1.9" fill="white" opacity="0.81"/>
    <circle cx="30.9" cy="192.7" r="1.4" fill="white" opacity="0.73"/>
    <circle cx="14.5" cy="265.5" r="0.8" fill="white" opacity="0.30"/>
    <circle cx="194.0" cy="216.4" r="1.6" fill="white" opacity="0.35"/>
    <circle cx="74.4" cy="162.7" r="1.4" fill="white" opacity="0.74"/>
    <circle cx="14.0" cy="193.0" r="0.8" fill="white" opacity="0.50"/>
    <circle cx="53.5" cy="149.0" r="0.9" fill="white" opacity="0.68"/>
  </g>
  <defs>
    <radialGradient id="crg1" cx="150" cy="110" r="70" gradientUnits="userSpaceOnUse">
      <stop offset="0%" stop-color="#0a1628"/>
      <stop offset="100%" stop-color="#0a0a1a"/>
    </radialGradient>
    <radialGradient id="crglow" cx="150" cy="110" r="65" gradientUnits="userSpaceOnUse">
      <stop offset="0%" stop-color="rgba(34,211,238,0.75)"/>
      <stop offset="100%" stop-color="transparent"/>
    </radialGradient>
    <filter id="crf" x="-40%" y="-40%" width="180%" height="180%">
      <feGaussianBlur in="SourceGraphic" stdDeviation="11" result="blur"/>
      <feColorMatrix in="blur" type="matrix" values="1 0 0 0 0  0 1 0 0 0  0 0 1 0 0  0 0 0 2.5 0" result="glow"/>
      <feMerge><feMergeNode in="glow"/><feMergeNode in="SourceGraphic"/></feMerge>
    </filter>
  </defs>
  <circle cx="150" cy="110" r="65" fill="url(#crglow)" opacity="0.3"/>
  <g fill="#1a1a2e" stroke="#ffffff" stroke-opacity="0.15" stroke-width="1">
    <rect x="138.0" y="152.0" width="24.0" height="24.0"/>
    <rect x="138.0" y="176.0" width="24.0" height="32.0"/>
    <rect x="130.0" y="176.0" width="8.0" height="28.0"/>
    <rect x="162.0" y="176.0" width="8.0" height="28.0"/>
    <rect x="138.0" y="208.0" width="11.0" height="28.0"/>
    <rect x="151.0" y="208.0" width="11.0" height="28.0"/>
  </g>
  <rect x="110" y="128" width="80" height="20" rx="4" fill="url(#crg1)" filter="url(#crf)"/>
  <polygon points="114,128 120,128 117,96" fill="#0a1628" filter="url(#crf)"/>
  <polygon points="126,128 132,128 129,96" fill="#0a1628" filter="url(#crf)"/>
  <polygon points="138,128 144,128 141,96" fill="#0a1628" filter="url(#crf)"/>
  <polygon points="150,128 156,128 153,96" fill="#0a1628" filter="url(#crf)"/>
  <polygon points="162,128 168,128 165,96" fill="#0a1628" filter="url(#crf)"/>
  <polygon points="174,128 180,128 177,96" fill="#0a1628" filter="url(#crf)"/>
  <polygon points="186,128 192,128 189,96" fill="#0a1628" filter="url(#crf)"/>
  <polygon points="124,116 129,111 134,116 129,121" fill="#22d3ee" filter="url(#crf)"/>
  <polygon points="137,116 142,111 147,116 142,121" fill="#22d3ee" filter="url(#crf)"/>
  <polygon points="150,116 155,111 160,116 155,121" fill="#22d3ee" filter="url(#crf)"/>
  <polygon points="163,116 168,111 173,116 168,121" fill="#22d3ee" filter="url(#crf)"/>
  <polygon points="176,116 181,111 186,116 181,121" fill="#22d3ee" filter="url(#crf)"/>
  <rect x="0" y="265" width="300" height="35" fill="#050510" opacity="0.85"/>
  <text x="150" y="281" text-anchor="middle" font-family="Arial,sans-serif" font-size="11" font-weight="bold" fill="#22d3ee">Diamond Crown</text>
  <text x="150" y="294" text-anchor="middle" font-family="Arial,sans-serif" font-size="9" fill="#22d3ee">CELESTIAL</text>
  <rect x="1" y="1" width="298" height="298" rx="10" fill="none" stroke="#22d3ee" stroke-width="2" opacity="0.5"/>
</svg>
