<svg xmlns="http://www.w3.org/2000/svg" viewBox="0 0 300 300" width="300" height="300">
  <defs>
    <radialGradient id="bgMain" cx="50%" cy="50%" r="70%">
      <stop offset="0%" stop-color="#0d0d28"/>
      <stop offset="100%" stop-color="#020208"/>
    </radialGradient>
  </defs>
  <rect width="300" height="300" fill="url(#bgMain)"/>
  <g opacity="0.5">
    <circle cx="68.8" cy="117.9" r="0.8" fill="white" opacity="0.54"/>
    <circle cx="167.6" cy="190.8" r="0.9" fill="white" opacity="0.51"/>
    <circle cx="59.9" cy="238.1" r="0.9" fill="white" opacity="0.83"/>
    <circle cx="30.6" cy="12.4" r="1.1" fill="white" opacity="0.55"/>
    <circle cx="220.6" cy="252.8" r="1.3" fill="white" opacity="0.48"/>
    <circle cx="210.5" cy="138.8" r="0.9" fill="white" opacity="0.49"/>
    <circle cx="10.1" cy="208.5" r="0.6" fill="white" opacity="0.41"/>
    <circle cx="183.5" cy="183.6" r="1.4" fill="white" opacity="0.68"/>
    <circle cx="234.2" cy="274.5" r="2.0" fill="white" opacity="0.53"/>
    <circle cx="108.3" cy="48.0" r="1.1" fill="white" opacity="0.40"/>
    <circle cx="271.5" cy="221.0" r="0.9" fill="white" opacity="0.72"/>
    <circle cx="205.5" cy="37.8" r="1.7" fill="white" opacity="0.74"/>
    <circle cx="142.3" cy="274.3" r="0.6" fill="white" opacity="0.32"/>
    <circle cx="212.5" cy="196.4" r="0.5" fill="white" opacity="0.66"/>
    <circle cx="175.3" cy="116.0" r="0.7" fill="white" opacity="0.79"/>
    <circle cx="259.8" cy="165.5" r="0.8" fill="white" opacity="0.63"/>
    <circle cx="191.0" cy="154.7" r="1.7" fill="white" opacity="0.44"/>
    <circle cx="257.3" cy="211.0" r="0.7" fill="white" opacity="0.35"/>
    <circle cx="227.9" cy="102.7" r="1.8" fill="white" opacity="0.86"/>
    <circle cx="88.7" cy="217.3" r="0.8" fill="white" opacity="0.60"/>
    <circle cx="63.0" cy="233.6" r="0.7" fill="white" opacity="0.85"/>
    <circle cx="111.3" cy="90.0" r="0.6" fill="white" opacity="0.43"/>
    <circle cx="27.7" cy="72.2" r="2.0" fill="white" opacity="0.69"/>
    <circle cx="42.4" cy="39.8" r="1.2" fill="white" opacity="0.83"/>
    <circle cx="137.0" cy="109.8" r="1.5" fill="white" opacity="0.38"/>
    <circle cx="61.7" cy="158.8" r="1.8" fill="white" opacity="0.58"/>
    <circle cx="91.0" cy="160.3" r="1.7" fill="white" opacity="0.42"/>
    <circle cx="51.9" cy="149.6" r="1.0" fill="white" opacity="0.39"/>
    <circle cx="69.4" cy="251.9" r="0.8" fill="white" opacity="0.50"/>
    <circle cx="274.8" cy="114.3" r="1.9" fill="white" opacity="0.80"/>
    <circle cx="144.1" cy="139.2" r="0.5" fill="white" opacity="0.53"/>
    <circle cx="156.8" cy="286.4" r="0.6" fill="white" opacity="0.79"/>
    <circle cx="278.2" cy="257.9" r="1.3" fill="white" opacity="0.71"/>
    <circle cx="109.1" cy="18.1" r="1.1" fill="white" opacity="0.75"/>
    <circle cx="34.7" cy="144.1" r="0.6" fill="white" opacity="0.38"/>
  </g>
  <defs>
    <radialGradient id="ag1" cx="150" cy="165" r="110" gradientUnits="userSpaceOnUse">
      <stop offset="0%" stop-color="rgba(239,68,68,0.7)"/>
      <stop offset="100%" stop-color="transparent"/>
    </radialGradient>
    <radialGradient id="ag2" cx="150" cy="165" r="60" gradientUnits="userSpaceOnUse">
      <stop offset="0%" stop-color="#ef4444"/>
      <stop offset="100%" stop-color="transparent"/>
    </radialGradient>
    <filter id="af" x="-40%" y="-40%" width="180%" height="180%">
      <feGaussianBlur in="SourceGraphic" stdDeviation="14" result="blur"/>
      <feColorMatrix in="blur" type="matrix" values="1 0 0 0 0  0 1 0 0 0  0 0 1 0 0  0 0 0 3 0" result="glow"/>
      <feMerge><feMergeNode in="glow"/><feMergeNode in="SourceGraphic"/></feMerge>
    </filter>
  </defs>
  <circle cx="150" cy="165" r="110" fill="url(#ag1)" opacity="0.3"/>
  <g fill="#1a1a2e" stroke="#ffffff" stroke-opacity="0.15" stroke-width="1">
    <rect x="138.0" y="115.0" width="24.0" height="24.0"/>
    <rect x="138.0" y="139.0" width="24.0" height="32.0"/>
    <rect x="130.0" y="139.0" width="8.0" height="28.0"/>
    <rect x="162.0" y="139.0" width="8.0" height="28.0"/>
    <rect x="138.0" y="171.0" width="11.0" height="28.0"/>
    <rect x="151.0" y="171.0" width="11.0" height="28.0"/>
  </g>
  <line x1="220.0" y1="165.0" x2="250.0" y2="165.0" stroke="#ef4444" stroke-width="3" opacity="0.7" filter="url(#af)"/>
  <line x1="210.6" y1="200.0" x2="236.6" y2="215.0" stroke="#ef4444" stroke-width="3" opacity="0.7" filter="url(#af)"/>
  <line x1="185.0" y1="225.6" x2="200.0" y2="251.6" stroke="#ef4444" stroke-width="3" opacity="0.7" filter="url(#af)"/>
  <line x1="150.0" y1="235.0" x2="150.0" y2="265.0" stroke="#ef4444" stroke-width="3" opacity="0.7" filter="url(#af)"/>
  <line x1="115.0" y1="225.6" x2="100.0" y2="251.6" stroke="#ef4444" stroke-width="3" opacity="0.7" filter="url(#af)"/>
  <line x1="89.4" y1="200.0" x2="63.4" y2="215.0" stroke="#ef4444" stroke-width="3" opacity="0.7" filter="url(#af)"/>
  <line x1="80.0" y1="165.0" x2="50.0" y2="165.0" stroke="#ef4444" stroke-width="3" opacity="0.7" filter="url(#af)"/>
  <line x1="89.4" y1="130.0" x2="63.4" y2="115.0" stroke="#ef4444" stroke-width="3" opacity="0.7" filter="url(#af)"/>
  <line x1="115.0" y1="104.4" x2="100.0" y2="78.4" stroke="#ef4444" stroke-width="3" opacity="0.7" filter="url(#af)"/>
  <line x1="150.0" y1="95.0" x2="150.0" y2="65.0" stroke="#ef4444" stroke-width="3" opacity="0.7" filter="url(#af)"/>
  <line x1="185.0" y1="104.4" x2="200.0" y2="78.4" stroke="#ef4444" stroke-width="3" opacity="0.7" filter="url(#af)"/>
  <line x1="210.6" y1="130.0" x2="236.6" y2="115.0" stroke="#ef4444" stroke-width="3" opacity="0.7" filter="url(#af)"/>
  <rect x="0" y="265" width="300" height="35" fill="#050510" opacity="0.85"/>
  <text x="150" y="281" text-anchor="middle" font-family="Arial,sans-serif" font-size="11" font-weight="bold" fill="#f59e0b">Flame Aura</text>
  <text x="150" y="294" text-anchor="middle" font-family="Arial,sans-serif" font-size="9" fill="#f59e0b">LEGENDARY</text>
  <rect x="1" y="1" width="298" height="298" rx="10" fill="none" stroke="#f59e0b" stroke-width="2" opacity="0.5"/>
</svg>
