<svg xmlns="http://www.w3.org/2000/svg" viewBox="0 0 300 300" width="300" height="300">
  <defs>
    <radialGradient id="bgMain" cx="50%" cy="50%" r="70%">
      <stop offset="0%" stop-color="#0d0d28"/>
      <stop offset="100%" stop-color="#020208"/>
    </radialGradient>
  </defs>
  <rect width="300" height="300" fill="url(#bgMain)"/>
  <g opacity="0.5">
    <circle cx="169.7" cy="187.0" r="1.7" fill="white" opacity="0.47"/>
    <circle cx="192.5" cy="259.4" r="1.9" fill="white" opacity="0.41"/>
    <circle cx="192.5" cy="182.8" r="1.3" fill="white" opacity="0.88"/>
    <circle cx="157.9" cy="134.7" r="1.9" fill="white" opacity="0.68"/>
    <circle cx="94.4" cy="96.6" r="1.2" fill="white" opacity="0.33"/>
    <circle cx="180.1" cy="216.0" r="1.1" fill="white" opacity="0.81"/>
    <circle cx="269.8" cy="165.6" r="1.5" fill="white" opacity="0.37"/>
    <circle cx="25.7" cy="284.4" r="0.9" fill="white" opacity="0.43"/>
    <circle cx="261.1" cy="219.9" r="0.7" fill="white" opacity="0.49"/>
    <circle cx="77.9" cy="86.4" r="0.5" fill="white" opacity="0.61"/>
    <circle cx="95.2" cy="120.4" r="0.8" fill="white" opacity="0.37"/>
    <circle cx="19.2" cy="254.4" r="1.6" fill="white" opacity="0.64"/>
    <circle cx="44.7" cy="51.7" r="0.7" fill="white" opacity="0.49"/>
    <circle cx="26.1" cy="87.1" r="0.8" fill="white" opacity="0.42"/>
    <circle cx="193.0" cy="138.2" r="1.2" fill="white" opacity="0.51"/>
    <circle cx="160.9" cy="229.8" r="1.0" fill="white" opacity="0.34"/>
    <circle cx="144.7" cy="116.2" r="1.7" fill="white" opacity="0.37"/>
    <circle cx="254.4" cy="14.2" r="1.3" fill="white" opacity="0.57"/>
    <circle cx="98.3" cy="258.9" r="1.6" fill="white" opacity="0.40"/>
    <circle cx="148.6" cy="181.4" r="0.6" fill="white" opacity="0.35"/>
    <circle cx="178.5" cy="214.3" r="1.2" fill="white" opacity="0.55"/>
    <circle cx="151.9" cy="83.0" r="1.8" fill="white" opacity="0.88"/>
    <circle cx="144.9" cy="15.7" r="1.1" fill="white" opacity="0.78"/>
    <circle cx="101.0" cy="39.6" r="0.8" fill="white" opacity="0.73"/>
    <circle cx="184.2" cy="90.1" r="1.4" fill="white" opacity="0.76"/>
    <circle cx="280.5" cy="242.8" r="1.2" fill="white" opacity="0.79"/>
    <circle cx="269.1" cy="253.3" r="1.6" fill="white" opacity="0.65"/>
    <circle cx="153.2" cy="248.1" r="1.4" fill="white" opacity="0.73"/>
    <circle cx="73.8" cy="35.8" r="0.9" fill="white" opacity="0.65"/>
    <circle cx="170.4" cy="65.6" r="0.8" fill="white" opacity="0.87"/>
    <circle cx="30.0" cy="269.4" r="1.7" fill="white" opacity="0.64"/>
    <circle cx="288.8" cy="200.3" r="0.5" fill="white" opacity="0.86"/>
    <circle cx="125.8" cy="266.7" r="1.7" fill="white" opacity="0.38"/>
    <circle cx="21.1" cy="15.8" r="1.7" fill="white" opacity="0.77"/>
    <circle cx="73.8" cy="41.6" r="1.0" fill="white" opacity="0.78"/>
  </g>
  <defs>
    <linearGradient id="bg1" x1="0" y1="0" x2="1" y2="0">
      <stop offset="0%" stop-color="#0a0a1a" stop-opacity="1"/>
      <stop offset="50%" stop-color="#1a0500" stop-opacity="1"/>
      <stop offset="100%" stop-color="#ef4444" stop-opacity="1"/>
    </linearGradient>
    <radialGradient id="bglow" cx="150" cy="130" r="50" gradientUnits="userSpaceOnUse">
      <stop offset="0%" stop-color="rgba(239,68,68,0.6)"/>
      <stop offset="100%" stop-color="transparent"/>
    </radialGradient>
    <filter id="bf" x="-40%" y="-40%" width="180%" height="180%">
      <feGaussianBlur in="SourceGraphic" stdDeviation="8" result="blur"/>
      <feColorMatrix in="blur" type="matrix" values="1 0 0 0 0  0 1 0 0 0  0 0 1 0 0  0 0 0 2 0" result="glow"/>
      <feMerge><feMergeNode in="glow"/><feMergeNode in="SourceGraphic"/></feMerge>
    </filter>
  </defs>
  <circle cx="150" cy="160" r="50" fill="url(#bglow)" opacity="0.3"/>
  <g fill="#1a1a2e" stroke="#ffffff" stroke-opacity="0.15" stroke-width="1">
    <rect x="138.0" y="147.0" width="24.0" height="24.0"/>
    <rect x="138.0" y="171.0" width="24.0" height="32.0"/>
    <rect x="130.0" y="171.0" width="8.0" height="28.0"/>
    <rect x="162.0" y="171.0" width="8.0" height="28.0"/>
    <rect x="138.0" y="203.0" width="11.0" height="28.0"/>
    <rect x="151.0" y="203.0" width="11.0" height="28.0"/>
  </g>
  <rect x="116" y="125" width="68" height="28" rx="6" fill="url(#bg1)" filter="url(#bf)"/>
  <path d="M 129 149 Q 129 135 133 129 Q 137 135 137 149 Z" fill="#ef4444" opacity="0.7" filter="url(#bf)"/>
  <path d="M 143 149 Q 143 135 147 129 Q 151 135 151 149 Z" fill="#ef4444" opacity="0.7" filter="url(#bf)"/>
  <path d="M 157 149 Q 157 135 161 129 Q 165 135 165 149 Z" fill="#ef4444" opacity="0.7" filter="url(#bf)"/>
  <path d="M 171 149 Q 171 135 175 129 Q 179 135 179 149 Z" fill="#ef4444" opacity="0.7" filter="url(#bf)"/>
  <circle cx="192" cy="139" r="8" fill="#1a0500" filter="url(#bf)"/>
  <line x1="192" y1="139" x2="206" y2="131" stroke="#1a0500" stroke-width="2" opacity="0.7"/>
  <line x1="192" y1="139" x2="206" y2="147" stroke="#1a0500" stroke-width="2" opacity="0.7"/>
  <rect x="0" y="265" width="300" height="35" fill="#050510" opacity="0.85"/>
  <text x="150" y="281" text-anchor="middle" font-family="Arial,sans-serif" font-size="11" font-weight="bold" fill="#3b82f6">Flame Bandana</text>
  <text x="150" y="294" text-anchor="middle" font-family="Arial,sans-serif" font-size="9" fill="#3b82f6">ELITE</text>
  <rect x="1" y="1" width="298" height="298" rx="10" fill="none" stroke="#3b82f6" stroke-width="2" opacity="0.5"/>
</svg>
