<svg xmlns="http://www.w3.org/2000/svg" viewBox="0 0 300 300" width="300" height="300">
  <defs>
    <radialGradient id="bgMain" cx="50%" cy="50%" r="70%">
      <stop offset="0%" stop-color="#0d0d28"/>
      <stop offset="100%" stop-color="#020208"/>
    </radialGradient>
  </defs>
  <rect width="300" height="300" fill="url(#bgMain)"/>
  <g opacity="0.5">
    <circle cx="82.5" cy="201.9" r="1.5" fill="white" opacity="0.81"/>
    <circle cx="62.0" cy="74.6" r="0.7" fill="white" opacity="0.44"/>
    <circle cx="215.5" cy="46.5" r="1.3" fill="white" opacity="0.43"/>
    <circle cx="92.5" cy="130.8" r="1.8" fill="white" opacity="0.67"/>
    <circle cx="14.0" cy="87.2" r="0.7" fill="white" opacity="0.82"/>
    <circle cx="236.7" cy="235.7" r="1.7" fill="white" opacity="0.75"/>
    <circle cx="275.8" cy="232.3" r="0.9" fill="white" opacity="0.81"/>
    <circle cx="146.3" cy="221.4" r="1.3" fill="white" opacity="0.56"/>
    <circle cx="112.0" cy="130.4" r="1.0" fill="white" opacity="0.37"/>
    <circle cx="239.5" cy="233.5" r="2.0" fill="white" opacity="0.71"/>
    <circle cx="165.2" cy="219.6" r="0.7" fill="white" opacity="0.71"/>
    <circle cx="134.2" cy="59.5" r="0.8" fill="white" opacity="0.61"/>
    <circle cx="80.9" cy="138.6" r="1.4" fill="white" opacity="0.54"/>
    <circle cx="46.6" cy="147.4" r="0.9" fill="white" opacity="0.44"/>
    <circle cx="64.5" cy="112.6" r="0.6" fill="white" opacity="0.69"/>
    <circle cx="277.0" cy="119.1" r="1.6" fill="white" opacity="0.86"/>
    <circle cx="22.1" cy="49.7" r="1.7" fill="white" opacity="0.80"/>
    <circle cx="188.9" cy="54.7" r="1.1" fill="white" opacity="0.82"/>
    <circle cx="258.1" cy="234.9" r="0.8" fill="white" opacity="0.81"/>
    <circle cx="114.9" cy="210.6" r="0.7" fill="white" opacity="0.88"/>
    <circle cx="179.0" cy="212.4" r="0.8" fill="white" opacity="0.67"/>
    <circle cx="172.6" cy="175.5" r="1.0" fill="white" opacity="0.74"/>
    <circle cx="105.6" cy="92.7" r="0.7" fill="white" opacity="0.71"/>
    <circle cx="41.4" cy="73.2" r="0.6" fill="white" opacity="0.69"/>
    <circle cx="165.7" cy="162.1" r="0.6" fill="white" opacity="0.56"/>
    <circle cx="106.1" cy="35.9" r="0.5" fill="white" opacity="0.90"/>
    <circle cx="44.0" cy="94.4" r="0.9" fill="white" opacity="0.66"/>
    <circle cx="31.7" cy="141.6" r="1.1" fill="white" opacity="0.80"/>
    <circle cx="11.6" cy="103.7" r="1.2" fill="white" opacity="0.88"/>
    <circle cx="154.7" cy="142.8" r="1.5" fill="white" opacity="0.48"/>
    <circle cx="18.9" cy="150.4" r="1.9" fill="white" opacity="0.74"/>
    <circle cx="82.3" cy="201.5" r="1.8" fill="white" opacity="0.46"/>
    <circle cx="174.6" cy="109.6" r="0.9" fill="white" opacity="0.47"/>
    <circle cx="67.1" cy="108.2" r="0.6" fill="white" opacity="0.54"/>
    <circle cx="34.3" cy="222.3" r="1.4" fill="white" opacity="0.30"/>
  </g>
  <defs>
    <linearGradient id="cg1" x1="0" y1="0" x2="0" y2="1">
      <stop offset="0%" stop-color="#0a1628" stop-opacity="1"/>
      <stop offset="50%" stop-color="#3b82f6" stop-opacity="0.9"/>
      <stop offset="100%" stop-color="#050510" stop-opacity="0.6"/>
    </linearGradient>
    <radialGradient id="cglow" cx="150" cy="200" r="100" gradientUnits="userSpaceOnUse">
      <stop offset="0%" stop-color="rgba(59,130,246,0.6)"/>
      <stop offset="100%" stop-color="transparent"/>
    </radialGradient>
    <filter id="cf" x="-40%" y="-40%" width="180%" height="180%">
      <feGaussianBlur in="SourceGraphic" stdDeviation="10" result="blur"/>
      <feColorMatrix in="blur" type="matrix" values="1 0 0 0 0  0 1 0 0 0  0 0 1 0 0  0 0 0 2 0" result="glow"/>
      <feMerge><feMergeNode in="glow"/><feMergeNode in="SourceGraphic"/></feMerge>
    </filter>
  </defs>
  <ellipse cx="150" cy="200" rx="100" ry="80" fill="url(#cglow)" opacity="0.35"/>
  <polygon points="120,95 180,95 210,270 90,270" fill="url(#cg1)" filter="url(#cf)"/>
  <line x1="120" y1="95" x2="150" y2="110" stroke="#0a1628" stroke-width="2" opacity="0.7"/>
  <line x1="180" y1="95" x2="150" y2="110" stroke="#0a1628" stroke-width="2" opacity="0.7"/>
  <polygon points="90,107 98,115 90,123 82,115" fill="none" stroke="#0a1628" stroke-width="1" opacity="0.3"/>
  <polygon points="115,107 123,115 115,123 107,115" fill="none" stroke="#0a1628" stroke-width="1" opacity="0.3"/>
  <polygon points="140,107 148,115 140,123 132,115" fill="none" stroke="#0a1628" stroke-width="1" opacity="0.3"/>
  <polygon points="165,107 173,115 165,123 157,115" fill="none" stroke="#0a1628" stroke-width="1" opacity="0.3"/>
  <polygon points="102,139 110,147 102,155 94,147" fill="none" stroke="#0a1628" stroke-width="1" opacity="0.3"/>
  <polygon points="127,139 135,147 127,155 119,147" fill="none" stroke="#0a1628" stroke-width="1" opacity="0.3"/>
  <polygon points="152,139 160,147 152,155 144,147" fill="none" stroke="#0a1628" stroke-width="1" opacity="0.3"/>
  <polygon points="177,139 185,147 177,155 169,147" fill="none" stroke="#0a1628" stroke-width="1" opacity="0.3"/>
  <polygon points="90,171 98,179 90,187 82,179" fill="none" stroke="#0a1628" stroke-width="1" opacity="0.3"/>
  <polygon points="115,171 123,179 115,187 107,179" fill="none" stroke="#0a1628" stroke-width="1" opacity="0.3"/>
  <polygon points="140,171 148,179 140,187 132,179" fill="none" stroke="#0a1628" stroke-width="1" opacity="0.3"/>
  <polygon points="165,171 173,179 165,187 157,179" fill="none" stroke="#0a1628" stroke-width="1" opacity="0.3"/>
  <polygon points="102,203 110,211 102,219 94,211" fill="none" stroke="#0a1628" stroke-width="1" opacity="0.3"/>
  <polygon points="127,203 135,211 127,219 119,211" fill="none" stroke="#0a1628" stroke-width="1" opacity="0.3"/>
  <polygon points="152,203 160,211 152,219 144,211" fill="none" stroke="#0a1628" stroke-width="1" opacity="0.3"/>
  <polygon points="177,203 185,211 177,219 169,211" fill="none" stroke="#0a1628" stroke-width="1" opacity="0.3"/>
  <polygon points="90,235 98,243 90,251 82,243" fill="none" stroke="#0a1628" stroke-width="1" opacity="0.3"/>
  <polygon points="115,235 123,243 115,251 107,243" fill="none" stroke="#0a1628" stroke-width="1" opacity="0.3"/>
  <polygon points="140,235 148,243 140,251 132,243" fill="none" stroke="#0a1628" stroke-width="1" opacity="0.3"/>
  <polygon points="165,235 173,243 165,251 157,243" fill="none" stroke="#0a1628" stroke-width="1" opacity="0.3"/>
  <rect x="0" y="265" width="300" height="35" fill="#050510" opacity="0.85"/>
  <text x="150" y="281" text-anchor="middle" font-family="Arial,sans-serif" font-size="11" font-weight="bold" fill="#a855f7">Frost Veil</text>
  <text x="150" y="294" text-anchor="middle" font-family="Arial,sans-serif" font-size="9" fill="#a855f7">EPIC</text>
  <rect x="1" y="1" width="298" height="298" rx="10" fill="none" stroke="#a855f7" stroke-width="2" opacity="0.5"/>
</svg>
