<svg xmlns="http://www.w3.org/2000/svg" viewBox="0 0 300 300" width="300" height="300">
  <defs>
    <radialGradient id="bgMain" cx="50%" cy="50%" r="70%">
      <stop offset="0%" stop-color="#0d0d28"/>
      <stop offset="100%" stop-color="#020208"/>
    </radialGradient>
  </defs>
  <rect width="300" height="300" fill="url(#bgMain)"/>
  <g opacity="0.5">
    <circle cx="280.3" cy="13.3" r="1.6" fill="white" opacity="0.39"/>
    <circle cx="286.2" cy="14.7" r="1.8" fill="white" opacity="0.71"/>
    <circle cx="250.1" cy="289.9" r="0.9" fill="white" opacity="0.50"/>
    <circle cx="208.3" cy="88.6" r="0.9" fill="white" opacity="0.44"/>
    <circle cx="250.2" cy="254.9" r="1.7" fill="white" opacity="0.43"/>
    <circle cx="269.0" cy="153.2" r="0.8" fill="white" opacity="0.57"/>
    <circle cx="127.6" cy="32.1" r="1.3" fill="white" opacity="0.52"/>
    <circle cx="169.5" cy="270.5" r="1.5" fill="white" opacity="0.54"/>
    <circle cx="251.8" cy="288.6" r="1.2" fill="white" opacity="0.87"/>
    <circle cx="15.3" cy="49.3" r="0.8" fill="white" opacity="0.86"/>
    <circle cx="203.3" cy="211.3" r="0.9" fill="white" opacity="0.60"/>
    <circle cx="258.4" cy="38.0" r="0.7" fill="white" opacity="0.33"/>
    <circle cx="141.2" cy="245.3" r="1.3" fill="white" opacity="0.54"/>
    <circle cx="150.6" cy="60.2" r="1.9" fill="white" opacity="0.51"/>
    <circle cx="75.9" cy="97.1" r="1.7" fill="white" opacity="0.49"/>
    <circle cx="263.3" cy="104.1" r="1.2" fill="white" opacity="0.34"/>
    <circle cx="264.1" cy="232.9" r="1.2" fill="white" opacity="0.37"/>
    <circle cx="147.9" cy="115.3" r="1.8" fill="white" opacity="0.86"/>
    <circle cx="217.5" cy="90.4" r="0.6" fill="white" opacity="0.84"/>
    <circle cx="274.5" cy="54.3" r="1.2" fill="white" opacity="0.59"/>
    <circle cx="283.4" cy="22.1" r="0.6" fill="white" opacity="0.81"/>
    <circle cx="169.5" cy="139.4" r="1.7" fill="white" opacity="0.66"/>
    <circle cx="203.9" cy="81.6" r="0.6" fill="white" opacity="0.31"/>
    <circle cx="103.3" cy="191.6" r="1.1" fill="white" opacity="0.51"/>
    <circle cx="183.2" cy="207.5" r="1.4" fill="white" opacity="0.49"/>
    <circle cx="240.1" cy="234.2" r="1.8" fill="white" opacity="0.84"/>
    <circle cx="14.2" cy="197.4" r="1.0" fill="white" opacity="0.53"/>
    <circle cx="155.1" cy="50.3" r="0.9" fill="white" opacity="0.89"/>
    <circle cx="102.7" cy="265.6" r="1.5" fill="white" opacity="0.49"/>
    <circle cx="99.2" cy="179.4" r="1.6" fill="white" opacity="0.50"/>
    <circle cx="26.5" cy="58.2" r="1.8" fill="white" opacity="0.74"/>
    <circle cx="40.3" cy="243.8" r="1.4" fill="white" opacity="0.50"/>
    <circle cx="260.3" cy="46.1" r="0.6" fill="white" opacity="0.51"/>
    <circle cx="216.6" cy="163.4" r="1.2" fill="white" opacity="0.84"/>
    <circle cx="120.3" cy="230.7" r="0.5" fill="white" opacity="0.77"/>
  </g>
  <defs>
    <linearGradient id="cg1" x1="0" y1="0" x2="0" y2="1">
      <stop offset="0%" stop-color="#0a0a18" stop-opacity="1"/>
      <stop offset="50%" stop-color="#a855f7" stop-opacity="0.9"/>
      <stop offset="100%" stop-color="#050510" stop-opacity="0.6"/>
    </linearGradient>
    <radialGradient id="cglow" cx="150" cy="200" r="100" gradientUnits="userSpaceOnUse">
      <stop offset="0%" stop-color="rgba(168,85,247,0.5)"/>
      <stop offset="100%" stop-color="transparent"/>
    </radialGradient>
    <filter id="cf" x="-40%" y="-40%" width="180%" height="180%">
      <feGaussianBlur in="SourceGraphic" stdDeviation="10" result="blur"/>
      <feColorMatrix in="blur" type="matrix" values="1 0 0 0 0  0 1 0 0 0  0 0 1 0 0  0 0 0 2 0" result="glow"/>
      <feMerge><feMergeNode in="glow"/><feMergeNode in="SourceGraphic"/></feMerge>
    </filter>
  </defs>
  <ellipse cx="150" cy="200" rx="100" ry="80" fill="url(#cglow)" opacity="0.35"/>
  <polygon points="120,95 180,95 210,270 90,270" fill="url(#cg1)" filter="url(#cf)"/>
  <line x1="120" y1="95" x2="150" y2="110" stroke="#0a0a18" stroke-width="2" opacity="0.7"/>
  <line x1="180" y1="95" x2="150" y2="110" stroke="#0a0a18" stroke-width="2" opacity="0.7"/>
  <line x1="120.0" y1="120" x2="180.0" y2="120" stroke="#0a0a18" stroke-width="1.5" opacity="0.3"/>
  <line x1="115.6" y1="142" x2="184.4" y2="142" stroke="#0a0a18" stroke-width="1.5" opacity="0.3"/>
  <line x1="111.2" y1="164" x2="188.8" y2="164" stroke="#0a0a18" stroke-width="1.5" opacity="0.3"/>
  <line x1="106.8" y1="186" x2="193.2" y2="186" stroke="#0a0a18" stroke-width="1.5" opacity="0.3"/>
  <line x1="102.4" y1="208" x2="197.6" y2="208" stroke="#0a0a18" stroke-width="1.5" opacity="0.3"/>
  <line x1="98.0" y1="230" x2="202.0" y2="230" stroke="#0a0a18" stroke-width="1.5" opacity="0.3"/>
  <line x1="93.6" y1="252" x2="206.4" y2="252" stroke="#0a0a18" stroke-width="1.5" opacity="0.3"/>
  <rect x="0" y="265" width="300" height="35" fill="#050510" opacity="0.85"/>
  <text x="150" y="281" text-anchor="middle" font-family="Arial,sans-serif" font-size="11" font-weight="bold" fill="#10b981">Mystic Cloak</text>
  <text x="150" y="294" text-anchor="middle" font-family="Arial,sans-serif" font-size="9" fill="#10b981">PREMIUM</text>
  <rect x="1" y="1" width="298" height="298" rx="10" fill="none" stroke="#10b981" stroke-width="2" opacity="0.5"/>
</svg>
