<svg xmlns="http://www.w3.org/2000/svg" viewBox="0 0 300 300" width="300" height="300">
  <defs>
    <radialGradient id="bgMain" cx="50%" cy="50%" r="70%">
      <stop offset="0%" stop-color="#0d0d28"/>
      <stop offset="100%" stop-color="#020208"/>
    </radialGradient>
  </defs>
  <rect width="300" height="300" fill="url(#bgMain)"/>
  <g opacity="0.5">
    <circle cx="139.6" cy="114.5" r="0.7" fill="white" opacity="0.82"/>
    <circle cx="11.8" cy="150.8" r="1.8" fill="white" opacity="0.35"/>
    <circle cx="165.2" cy="182.7" r="0.6" fill="white" opacity="0.53"/>
    <circle cx="207.0" cy="136.6" r="1.6" fill="white" opacity="0.39"/>
    <circle cx="76.6" cy="41.1" r="1.3" fill="white" opacity="0.85"/>
    <circle cx="175.3" cy="226.8" r="1.1" fill="white" opacity="0.75"/>
    <circle cx="38.5" cy="91.5" r="1.5" fill="white" opacity="0.74"/>
    <circle cx="128.1" cy="34.6" r="0.9" fill="white" opacity="0.43"/>
    <circle cx="88.7" cy="236.7" r="0.8" fill="white" opacity="0.83"/>
    <circle cx="256.2" cy="25.3" r="1.1" fill="white" opacity="0.60"/>
    <circle cx="16.6" cy="128.9" r="1.9" fill="white" opacity="0.37"/>
    <circle cx="177.1" cy="43.9" r="1.4" fill="white" opacity="0.84"/>
    <circle cx="66.9" cy="12.3" r="0.6" fill="white" opacity="0.62"/>
    <circle cx="14.9" cy="33.8" r="1.2" fill="white" opacity="0.85"/>
    <circle cx="127.6" cy="121.5" r="1.5" fill="white" opacity="0.36"/>
    <circle cx="172.3" cy="58.3" r="1.4" fill="white" opacity="0.87"/>
    <circle cx="25.2" cy="165.4" r="1.4" fill="white" opacity="0.39"/>
    <circle cx="85.1" cy="288.6" r="2.0" fill="white" opacity="0.37"/>
    <circle cx="207.5" cy="276.3" r="0.9" fill="white" opacity="0.67"/>
    <circle cx="22.0" cy="112.5" r="1.5" fill="white" opacity="0.65"/>
    <circle cx="226.9" cy="34.3" r="1.0" fill="white" opacity="0.82"/>
    <circle cx="173.6" cy="136.4" r="1.1" fill="white" opacity="0.89"/>
    <circle cx="170.8" cy="15.1" r="1.7" fill="white" opacity="0.50"/>
    <circle cx="131.4" cy="69.8" r="1.2" fill="white" opacity="0.49"/>
    <circle cx="34.9" cy="186.3" r="0.7" fill="white" opacity="0.77"/>
    <circle cx="17.1" cy="228.6" r="1.7" fill="white" opacity="0.60"/>
    <circle cx="208.6" cy="79.5" r="1.6" fill="white" opacity="0.56"/>
    <circle cx="74.7" cy="279.9" r="1.1" fill="white" opacity="0.52"/>
    <circle cx="250.8" cy="113.4" r="1.5" fill="white" opacity="0.40"/>
    <circle cx="246.1" cy="82.5" r="0.6" fill="white" opacity="0.89"/>
    <circle cx="58.4" cy="275.0" r="2.0" fill="white" opacity="0.66"/>
    <circle cx="13.3" cy="27.1" r="0.8" fill="white" opacity="0.53"/>
    <circle cx="181.2" cy="280.6" r="1.0" fill="white" opacity="0.38"/>
    <circle cx="167.3" cy="48.4" r="0.6" fill="white" opacity="0.63"/>
    <circle cx="204.9" cy="28.4" r="1.2" fill="white" opacity="0.72"/>
  </g>
  <defs>
    <linearGradient id="wgL" x1="0" y1="0" x2="1" y2="0">
      <stop offset="0%" stop-color="#22d3ee" stop-opacity="1"/>
      <stop offset="50%" stop-color="#a855f7" stop-opacity="1"/>
      <stop offset="100%" stop-color="#0a0a18" stop-opacity="0.3"/>
    </linearGradient>
    <linearGradient id="wgR" x1="1" y1="0" x2="0" y2="0">
      <stop offset="0%" stop-color="#22d3ee" stop-opacity="1"/>
      <stop offset="50%" stop-color="#a855f7" stop-opacity="1"/>
      <stop offset="100%" stop-color="#0a0a18" stop-opacity="0.3"/>
    </linearGradient>
    <radialGradient id="wglow" cx="150" cy="165" r="90" gradientUnits="userSpaceOnUse">
      <stop offset="0%" stop-color="rgba(34,211,238,0.65)"/>
      <stop offset="100%" stop-color="transparent"/>
    </radialGradient>
    <filter id="wf" x="-40%" y="-40%" width="180%" height="180%">
      <feGaussianBlur in="SourceGraphic" stdDeviation="12" result="blur"/>
      <feColorMatrix in="blur" type="matrix" values="1 0 0 0 0  0 1 0 0 0  0 0 1 0 0  0 0 0 2.5 0" result="glow"/>
      <feMerge><feMergeNode in="glow"/><feMergeNode in="SourceGraphic"/></feMerge>
    </filter>
  </defs>
  <circle cx="150" cy="165" r="90" fill="url(#wglow)" opacity="0.4"/>
  <path d="M 135 165 C 50 175 50 105 135 145" fill="none" stroke="url(#wgL)" stroke-width="8px" opacity="0.85" filter="url(#wf)"/>
  <path d="M 165 165 C 250 175 250 105 165 145" fill="none" stroke="url(#wgR)" stroke-width="8px" opacity="0.85" filter="url(#wf)"/>
  <path d="M 127 165 C 64 175 64 95 127 140" fill="none" stroke="url(#wgL)" stroke-width="7px" opacity="0.77" filter="url(#wf)"/>
  <path d="M 173 165 C 236 175 236 95 173 140" fill="none" stroke="url(#wgR)" stroke-width="7px" opacity="0.77" filter="url(#wf)"/>
  <path d="M 119 165 C 78 175 78 85 119 135" fill="none" stroke="url(#wgL)" stroke-width="6px" opacity="0.69" filter="url(#wf)"/>
  <path d="M 181 165 C 222 175 222 85 181 135" fill="none" stroke="url(#wgR)" stroke-width="6px" opacity="0.69" filter="url(#wf)"/>
  <path d="M 111 165 C 92 175 92 75 111 130" fill="none" stroke="url(#wgL)" stroke-width="5px" opacity="0.61" filter="url(#wf)"/>
  <path d="M 189 165 C 208 175 208 75 189 130" fill="none" stroke="url(#wgR)" stroke-width="5px" opacity="0.61" filter="url(#wf)"/>
  <path d="M 103 165 C 106 175 106 65 103 125" fill="none" stroke="url(#wgL)" stroke-width="4px" opacity="0.53" filter="url(#wf)"/>
  <path d="M 197 165 C 194 175 194 65 197 125" fill="none" stroke="url(#wgR)" stroke-width="4px" opacity="0.53" filter="url(#wf)"/>
  <rect x="0" y="265" width="300" height="35" fill="#050510" opacity="0.85"/>
  <text x="150" y="281" text-anchor="middle" font-family="Arial,sans-serif" font-size="11" font-weight="bold" fill="#a855f7">Neon Wings</text>
  <text x="150" y="294" text-anchor="middle" font-family="Arial,sans-serif" font-size="9" fill="#a855f7">EPIC</text>
  <rect x="1" y="1" width="298" height="298" rx="10" fill="none" stroke="#a855f7" stroke-width="2" opacity="0.5"/>
</svg>
