<svg xmlns="http://www.w3.org/2000/svg" viewBox="0 0 300 300" width="300" height="300">
  <defs>
    <radialGradient id="bgMain" cx="50%" cy="50%" r="70%">
      <stop offset="0%" stop-color="#0d0d28"/>
      <stop offset="100%" stop-color="#020208"/>
    </radialGradient>
  </defs>
  <rect width="300" height="300" fill="url(#bgMain)"/>
  <g opacity="0.5">
    <circle cx="209.5" cy="245.1" r="0.8" fill="white" opacity="0.90"/>
    <circle cx="64.3" cy="197.8" r="0.6" fill="white" opacity="0.75"/>
    <circle cx="52.4" cy="207.8" r="1.6" fill="white" opacity="0.76"/>
    <circle cx="133.6" cy="252.4" r="2.0" fill="white" opacity="0.37"/>
    <circle cx="154.7" cy="278.3" r="1.6" fill="white" opacity="0.57"/>
    <circle cx="95.3" cy="276.8" r="0.6" fill="white" opacity="0.76"/>
    <circle cx="246.1" cy="54.2" r="1.0" fill="white" opacity="0.48"/>
    <circle cx="161.8" cy="112.8" r="1.8" fill="white" opacity="0.85"/>
    <circle cx="98.5" cy="260.5" r="0.6" fill="white" opacity="0.36"/>
    <circle cx="196.2" cy="233.7" r="1.7" fill="white" opacity="0.90"/>
    <circle cx="250.7" cy="84.6" r="1.6" fill="white" opacity="0.85"/>
    <circle cx="36.2" cy="148.4" r="0.7" fill="white" opacity="0.39"/>
    <circle cx="144.3" cy="197.7" r="2.0" fill="white" opacity="0.38"/>
    <circle cx="151.5" cy="289.3" r="1.6" fill="white" opacity="0.62"/>
    <circle cx="77.9" cy="186.7" r="0.9" fill="white" opacity="0.69"/>
    <circle cx="191.6" cy="119.6" r="1.7" fill="white" opacity="0.54"/>
    <circle cx="141.3" cy="242.9" r="0.9" fill="white" opacity="0.41"/>
    <circle cx="170.8" cy="131.7" r="1.8" fill="white" opacity="0.45"/>
    <circle cx="114.0" cy="26.2" r="1.2" fill="white" opacity="0.49"/>
    <circle cx="135.6" cy="223.9" r="0.6" fill="white" opacity="0.89"/>
    <circle cx="209.2" cy="237.2" r="1.3" fill="white" opacity="0.65"/>
    <circle cx="124.7" cy="120.9" r="0.8" fill="white" opacity="0.48"/>
    <circle cx="92.3" cy="104.1" r="1.9" fill="white" opacity="0.78"/>
    <circle cx="189.5" cy="14.8" r="0.9" fill="white" opacity="0.63"/>
    <circle cx="203.8" cy="127.4" r="1.4" fill="white" opacity="0.84"/>
    <circle cx="84.9" cy="117.0" r="1.6" fill="white" opacity="0.49"/>
    <circle cx="212.0" cy="121.2" r="0.5" fill="white" opacity="0.58"/>
    <circle cx="29.1" cy="229.7" r="1.8" fill="white" opacity="0.62"/>
    <circle cx="261.8" cy="69.7" r="1.2" fill="white" opacity="0.41"/>
    <circle cx="23.6" cy="240.8" r="0.6" fill="white" opacity="0.86"/>
    <circle cx="165.9" cy="206.2" r="0.6" fill="white" opacity="0.84"/>
    <circle cx="232.3" cy="39.1" r="0.8" fill="white" opacity="0.38"/>
    <circle cx="151.1" cy="32.0" r="1.7" fill="white" opacity="0.60"/>
    <circle cx="207.1" cy="81.3" r="1.5" fill="white" opacity="0.57"/>
    <circle cx="191.5" cy="125.0" r="2.0" fill="white" opacity="0.81"/>
  </g>
  <defs>
    <radialGradient id="mg1" cx="150" cy="145" r="80" gradientUnits="userSpaceOnUse">
      <stop offset="0%" stop-color="#7f1d1d"/>
      <stop offset="50%" stop-color="#f97316"/>
      <stop offset="100%" stop-color="#050510"/>
    </radialGradient>
    <radialGradient id="mglow" cx="150" cy="145" r="65" gradientUnits="userSpaceOnUse">
      <stop offset="0%" stop-color="rgba(239,68,68,0.65)"/>
      <stop offset="100%" stop-color="transparent"/>
    </radialGradient>
    <filter id="mf" x="-40%" y="-40%" width="180%" height="180%">
      <feGaussianBlur in="SourceGraphic" stdDeviation="10" result="blur"/>
      <feColorMatrix in="blur" type="matrix" values="1 0 0 0 0  0 1 0 0 0  0 0 1 0 0  0 0 0 2.5 0" result="glow"/>
      <feMerge><feMergeNode in="glow"/><feMergeNode in="SourceGraphic"/></feMerge>
    </filter>
  </defs>
  <ellipse cx="150" cy="145" rx="65" ry="55" fill="url(#mglow)" opacity="0.3"/>
  <g fill="#1a1a2e" stroke="#ffffff" stroke-opacity="0.15" stroke-width="1">
    <rect x="138.0" y="152.0" width="24.0" height="24.0"/>
    <rect x="138.0" y="176.0" width="24.0" height="32.0"/>
    <rect x="130.0" y="176.0" width="8.0" height="28.0"/>
    <rect x="162.0" y="176.0" width="8.0" height="28.0"/>
    <rect x="138.0" y="208.0" width="11.0" height="28.0"/>
    <rect x="151.0" y="208.0" width="11.0" height="28.0"/>
  </g>
  <path d="M 112 145 Q 110 100 150 90 Q 190 100 188 145 Q 185 175 150 180 Q 115 175 112 145 Z" fill="url(#mg1)" filter="url(#mf)"/>
  <polygon points="122,92 110,60 134,92" fill="#7f1d1d" filter="url(#mf)" opacity="0.9"/>
  <polygon points="178,92 190,60 166,92" fill="#7f1d1d" filter="url(#mf)" opacity="0.9"/>
  <ellipse cx="135" cy="133" rx="10" ry="8" fill="#f97316" filter="url(#mf)"/>
  <ellipse cx="165" cy="133" rx="10" ry="8" fill="#f97316" filter="url(#mf)"/>
  <line x1="130" y1="157" x2="142" y2="153" stroke="#f97316" stroke-width="2.5" opacity="0.8"/>
  <line x1="170" y1="157" x2="158" y2="153" stroke="#f97316" stroke-width="2.5" opacity="0.8"/>
  <rect x="0" y="265" width="300" height="35" fill="#050510" opacity="0.85"/>
  <text x="150" y="281" text-anchor="middle" font-family="Arial,sans-serif" font-size="11" font-weight="bold" fill="#3b82f6">Oni Mask</text>
  <text x="150" y="294" text-anchor="middle" font-family="Arial,sans-serif" font-size="9" fill="#3b82f6">ELITE</text>
  <rect x="1" y="1" width="298" height="298" rx="10" fill="none" stroke="#3b82f6" stroke-width="2" opacity="0.5"/>
</svg>
