<svg xmlns="http://www.w3.org/2000/svg" viewBox="0 0 300 300" width="300" height="300">
  <defs>
    <radialGradient id="bgMain" cx="50%" cy="50%" r="70%">
      <stop offset="0%" stop-color="#0d0d28"/>
      <stop offset="100%" stop-color="#020208"/>
    </radialGradient>
  </defs>
  <rect width="300" height="300" fill="url(#bgMain)"/>
  <g opacity="0.5">
    <circle cx="201.0" cy="35.6" r="1.4" fill="white" opacity="0.81"/>
    <circle cx="243.7" cy="154.2" r="1.4" fill="white" opacity="0.52"/>
    <circle cx="157.8" cy="40.2" r="1.5" fill="white" opacity="0.66"/>
    <circle cx="88.9" cy="116.0" r="1.6" fill="white" opacity="0.57"/>
    <circle cx="278.7" cy="282.0" r="1.8" fill="white" opacity="0.35"/>
    <circle cx="31.0" cy="90.8" r="1.0" fill="white" opacity="0.72"/>
    <circle cx="241.5" cy="167.5" r="1.5" fill="white" opacity="0.64"/>
    <circle cx="19.5" cy="157.5" r="0.8" fill="white" opacity="0.55"/>
    <circle cx="12.5" cy="193.6" r="1.9" fill="white" opacity="0.34"/>
    <circle cx="172.4" cy="16.6" r="1.0" fill="white" opacity="0.40"/>
    <circle cx="251.0" cy="213.8" r="1.8" fill="white" opacity="0.43"/>
    <circle cx="211.3" cy="205.9" r="1.3" fill="white" opacity="0.85"/>
    <circle cx="185.0" cy="89.2" r="1.6" fill="white" opacity="0.59"/>
    <circle cx="69.6" cy="183.0" r="0.6" fill="white" opacity="0.57"/>
    <circle cx="165.9" cy="10.7" r="1.5" fill="white" opacity="0.35"/>
    <circle cx="191.9" cy="105.5" r="0.5" fill="white" opacity="0.90"/>
    <circle cx="28.0" cy="53.8" r="1.3" fill="white" opacity="0.45"/>
    <circle cx="158.5" cy="142.7" r="1.4" fill="white" opacity="0.63"/>
    <circle cx="92.4" cy="69.2" r="1.5" fill="white" opacity="0.56"/>
    <circle cx="155.7" cy="266.5" r="0.5" fill="white" opacity="0.47"/>
    <circle cx="167.8" cy="25.1" r="1.6" fill="white" opacity="0.54"/>
    <circle cx="98.6" cy="64.4" r="2.0" fill="white" opacity="0.33"/>
    <circle cx="240.0" cy="207.3" r="1.8" fill="white" opacity="0.72"/>
    <circle cx="107.1" cy="164.0" r="1.9" fill="white" opacity="0.32"/>
    <circle cx="248.0" cy="198.6" r="0.8" fill="white" opacity="0.88"/>
    <circle cx="93.9" cy="11.3" r="0.9" fill="white" opacity="0.61"/>
    <circle cx="17.8" cy="175.7" r="1.2" fill="white" opacity="0.50"/>
    <circle cx="221.6" cy="183.1" r="1.9" fill="white" opacity="0.82"/>
    <circle cx="250.8" cy="271.3" r="1.8" fill="white" opacity="0.59"/>
    <circle cx="29.2" cy="135.2" r="1.4" fill="white" opacity="0.88"/>
    <circle cx="193.1" cy="170.8" r="0.6" fill="white" opacity="0.69"/>
    <circle cx="20.4" cy="50.2" r="0.6" fill="white" opacity="0.74"/>
    <circle cx="273.6" cy="176.4" r="0.6" fill="white" opacity="0.74"/>
    <circle cx="58.8" cy="208.6" r="1.5" fill="white" opacity="0.87"/>
    <circle cx="56.3" cy="75.3" r="1.0" fill="white" opacity="0.35"/>
  </g>
  <defs>
    <radialGradient id="ag1" cx="150" cy="165" r="110" gradientUnits="userSpaceOnUse">
      <stop offset="0%" stop-color="rgba(168,85,247,0.65)"/>
      <stop offset="100%" stop-color="transparent"/>
    </radialGradient>
    <radialGradient id="ag2" cx="150" cy="165" r="60" gradientUnits="userSpaceOnUse">
      <stop offset="0%" stop-color="#a855f7"/>
      <stop offset="100%" stop-color="transparent"/>
    </radialGradient>
    <filter id="af" x="-40%" y="-40%" width="180%" height="180%">
      <feGaussianBlur in="SourceGraphic" stdDeviation="14" result="blur"/>
      <feColorMatrix in="blur" type="matrix" values="1 0 0 0 0  0 1 0 0 0  0 0 1 0 0  0 0 0 3 0" result="glow"/>
      <feMerge><feMergeNode in="glow"/><feMergeNode in="SourceGraphic"/></feMerge>
    </filter>
  </defs>
  <circle cx="150" cy="165" r="110" fill="url(#ag1)" opacity="0.3"/>
  <g fill="#1a1a2e" stroke="#ffffff" stroke-opacity="0.15" stroke-width="1">
    <rect x="138.0" y="115.0" width="24.0" height="24.0"/>
    <rect x="138.0" y="139.0" width="24.0" height="32.0"/>
    <rect x="130.0" y="139.0" width="8.0" height="28.0"/>
    <rect x="162.0" y="139.0" width="8.0" height="28.0"/>
    <rect x="138.0" y="171.0" width="11.0" height="28.0"/>
    <rect x="151.0" y="171.0" width="11.0" height="28.0"/>
  </g>
  <circle cx="150" cy="165" r="95" fill="none" stroke="#a855f7" stroke-width="4" opacity="0.6" filter="url(#af)"/>
  <circle cx="150" cy="165" r="75" fill="none" stroke="#a855f7" stroke-width="3" opacity="0.5" filter="url(#af)"/>
  <circle cx="150" cy="165" r="55" fill="none" stroke="#a855f7" stroke-width="2" opacity="0.35" filter="url(#af)"/>
  <circle cx="235.0" cy="165.0" r="4" fill="#6d28d9" filter="url(#af)" opacity="0.9"/>
  <circle cx="210.1" cy="225.1" r="4" fill="#6d28d9" filter="url(#af)" opacity="0.9"/>
  <circle cx="150.0" cy="250.0" r="4" fill="#6d28d9" filter="url(#af)" opacity="0.9"/>
  <circle cx="89.9" cy="225.1" r="4" fill="#6d28d9" filter="url(#af)" opacity="0.9"/>
  <circle cx="65.0" cy="165.0" r="4" fill="#6d28d9" filter="url(#af)" opacity="0.9"/>
  <circle cx="89.9" cy="104.9" r="4" fill="#6d28d9" filter="url(#af)" opacity="0.9"/>
  <circle cx="150.0" cy="80.0" r="4" fill="#6d28d9" filter="url(#af)" opacity="0.9"/>
  <circle cx="210.1" cy="104.9" r="4" fill="#6d28d9" filter="url(#af)" opacity="0.9"/>
  <rect x="0" y="265" width="300" height="35" fill="#050510" opacity="0.85"/>
  <text x="150" y="281" text-anchor="middle" font-family="Arial,sans-serif" font-size="11" font-weight="bold" fill="#a855f7">Plasma Aura</text>
  <text x="150" y="294" text-anchor="middle" font-family="Arial,sans-serif" font-size="9" fill="#a855f7">EPIC</text>
  <rect x="1" y="1" width="298" height="298" rx="10" fill="none" stroke="#a855f7" stroke-width="2" opacity="0.5"/>
</svg>
