<svg xmlns="http://www.w3.org/2000/svg" viewBox="0 0 300 300" width="300" height="300">
  <defs>
    <radialGradient id="bgMain" cx="50%" cy="50%" r="70%">
      <stop offset="0%" stop-color="#0d0d28"/>
      <stop offset="100%" stop-color="#020208"/>
    </radialGradient>
  </defs>
  <rect width="300" height="300" fill="url(#bgMain)"/>
  <g opacity="0.5">
    <circle cx="263.6" cy="202.2" r="1.6" fill="white" opacity="0.84"/>
    <circle cx="82.8" cy="188.0" r="1.9" fill="white" opacity="0.82"/>
    <circle cx="170.4" cy="57.4" r="1.1" fill="white" opacity="0.90"/>
    <circle cx="38.9" cy="99.4" r="1.9" fill="white" opacity="0.57"/>
    <circle cx="68.4" cy="98.7" r="1.9" fill="white" opacity="0.50"/>
    <circle cx="129.7" cy="185.8" r="1.7" fill="white" opacity="0.60"/>
    <circle cx="32.8" cy="170.5" r="0.6" fill="white" opacity="0.36"/>
    <circle cx="63.3" cy="204.2" r="0.9" fill="white" opacity="0.71"/>
    <circle cx="55.7" cy="43.0" r="0.5" fill="white" opacity="0.72"/>
    <circle cx="250.6" cy="71.5" r="0.9" fill="white" opacity="0.31"/>
    <circle cx="190.6" cy="94.2" r="0.7" fill="white" opacity="0.69"/>
    <circle cx="177.9" cy="135.3" r="0.7" fill="white" opacity="0.68"/>
    <circle cx="165.6" cy="131.2" r="0.7" fill="white" opacity="0.86"/>
    <circle cx="251.7" cy="203.1" r="2.0" fill="white" opacity="0.65"/>
    <circle cx="106.5" cy="42.6" r="1.4" fill="white" opacity="0.61"/>
    <circle cx="132.2" cy="287.9" r="1.8" fill="white" opacity="0.37"/>
    <circle cx="257.6" cy="10.6" r="1.5" fill="white" opacity="0.49"/>
    <circle cx="214.3" cy="276.7" r="1.3" fill="white" opacity="0.76"/>
    <circle cx="25.2" cy="196.9" r="0.7" fill="white" opacity="0.57"/>
    <circle cx="103.4" cy="30.5" r="1.6" fill="white" opacity="0.36"/>
    <circle cx="82.0" cy="34.1" r="1.5" fill="white" opacity="0.48"/>
    <circle cx="22.4" cy="17.6" r="0.8" fill="white" opacity="0.60"/>
    <circle cx="13.4" cy="16.7" r="1.5" fill="white" opacity="0.62"/>
    <circle cx="47.8" cy="97.4" r="0.7" fill="white" opacity="0.47"/>
    <circle cx="118.7" cy="71.0" r="0.8" fill="white" opacity="0.44"/>
    <circle cx="94.4" cy="165.4" r="1.8" fill="white" opacity="0.69"/>
    <circle cx="135.6" cy="10.9" r="0.8" fill="white" opacity="0.68"/>
    <circle cx="123.4" cy="247.2" r="1.9" fill="white" opacity="0.48"/>
    <circle cx="112.1" cy="93.5" r="1.5" fill="white" opacity="0.36"/>
    <circle cx="87.3" cy="256.0" r="1.1" fill="white" opacity="0.88"/>
    <circle cx="120.9" cy="244.3" r="1.2" fill="white" opacity="0.36"/>
    <circle cx="171.7" cy="69.2" r="1.9" fill="white" opacity="0.72"/>
    <circle cx="158.2" cy="268.3" r="1.3" fill="white" opacity="0.88"/>
    <circle cx="210.2" cy="60.1" r="0.9" fill="white" opacity="0.81"/>
    <circle cx="38.0" cy="284.8" r="0.6" fill="white" opacity="0.75"/>
  </g>
  <defs>
    <linearGradient id="hg1" x1="0" y1="0" x2="1" y2="0">
      <stop offset="0%" stop-color="#0a0a1a" stop-opacity="1"/>
      <stop offset="50%" stop-color="#1a0a00" stop-opacity="1"/>
      <stop offset="100%" stop-color="#f59e0b" stop-opacity="1"/>
    </linearGradient>
    <linearGradient id="hg2" x1="0" y1="0" x2="0" y2="1">
      <stop offset="0%" stop-color="#1a0a00" stop-opacity="1"/>
      <stop offset="100%" stop-color="#f59e0b" stop-opacity="0.7"/>
    </linearGradient>
    <radialGradient id="hglow" cx="150" cy="145" r="70" gradientUnits="userSpaceOnUse">
      <stop offset="0%" stop-color="rgba(245,158,11,0.6)"/>
      <stop offset="100%" stop-color="transparent"/>
    </radialGradient>
    <filter id="hf" x="-40%" y="-40%" width="180%" height="180%">
      <feGaussianBlur in="SourceGraphic" stdDeviation="9" result="blur"/>
      <feColorMatrix in="blur" type="matrix" values="1 0 0 0 0  0 1 0 0 0  0 0 1 0 0  0 0 0 2.2 0" result="glow"/>
      <feMerge><feMergeNode in="glow"/><feMergeNode in="SourceGraphic"/></feMerge>
    </filter>
  </defs>
  <ellipse cx="150" cy="145" rx="70" ry="55" fill="url(#hglow)" opacity="0.35"/>
  <g fill="#1a1a2e" stroke="#ffffff" stroke-opacity="0.15" stroke-width="1">
    <rect x="138.0" y="152.0" width="24.0" height="24.0"/>
    <rect x="138.0" y="176.0" width="24.0" height="32.0"/>
    <rect x="130.0" y="176.0" width="8.0" height="28.0"/>
    <rect x="162.0" y="176.0" width="8.0" height="28.0"/>
    <rect x="138.0" y="208.0" width="11.0" height="28.0"/>
    <rect x="151.0" y="208.0" width="11.0" height="28.0"/>
  </g>
  <rect x="122" y="75" width="56" height="68" rx="3" fill="url(#hg2)" filter="url(#hf)"/>
  <ellipse cx="150" cy="143" rx="50" ry="10" fill="url(#hg1)" filter="url(#hf)"/>
  <rect x="122" y="109" width="56" height="10" fill="#f59e0b" opacity="0.8"/>
  <rect x="0" y="265" width="300" height="35" fill="#050510" opacity="0.85"/>
  <text x="150" y="281" text-anchor="middle" font-family="Arial,sans-serif" font-size="11" font-weight="bold" fill="#3b82f6">Royal Top Hat</text>
  <text x="150" y="294" text-anchor="middle" font-family="Arial,sans-serif" font-size="9" fill="#3b82f6">ELITE</text>
  <rect x="1" y="1" width="298" height="298" rx="10" fill="none" stroke="#3b82f6" stroke-width="2" opacity="0.5"/>
</svg>
