<svg xmlns="http://www.w3.org/2000/svg" viewBox="0 0 300 300" width="300" height="300">
  <defs>
    <radialGradient id="bgMain" cx="50%" cy="50%" r="70%">
      <stop offset="0%" stop-color="#0d0d28"/>
      <stop offset="100%" stop-color="#020208"/>
    </radialGradient>
  </defs>
  <rect width="300" height="300" fill="url(#bgMain)"/>
  <g opacity="0.5">
    <circle cx="124.4" cy="161.8" r="1.8" fill="white" opacity="0.41"/>
    <circle cx="73.0" cy="18.1" r="0.7" fill="white" opacity="0.31"/>
    <circle cx="53.9" cy="153.8" r="2.0" fill="white" opacity="0.72"/>
    <circle cx="116.0" cy="123.4" r="1.5" fill="white" opacity="0.50"/>
    <circle cx="30.6" cy="245.6" r="1.4" fill="white" opacity="0.37"/>
    <circle cx="29.6" cy="36.5" r="1.9" fill="white" opacity="0.36"/>
    <circle cx="185.1" cy="281.5" r="0.6" fill="white" opacity="0.53"/>
    <circle cx="143.6" cy="266.7" r="0.8" fill="white" opacity="0.46"/>
    <circle cx="79.4" cy="23.8" r="1.5" fill="white" opacity="0.79"/>
    <circle cx="132.2" cy="20.6" r="1.6" fill="white" opacity="0.74"/>
    <circle cx="193.0" cy="102.0" r="1.7" fill="white" opacity="0.68"/>
    <circle cx="175.2" cy="161.3" r="0.8" fill="white" opacity="0.57"/>
    <circle cx="232.3" cy="201.5" r="1.0" fill="white" opacity="0.79"/>
    <circle cx="245.0" cy="22.2" r="0.7" fill="white" opacity="0.43"/>
    <circle cx="14.1" cy="221.0" r="1.5" fill="white" opacity="0.63"/>
    <circle cx="288.5" cy="109.9" r="0.8" fill="white" opacity="0.37"/>
    <circle cx="105.2" cy="244.7" r="1.4" fill="white" opacity="0.34"/>
    <circle cx="131.3" cy="23.4" r="1.4" fill="white" opacity="0.37"/>
    <circle cx="60.2" cy="189.9" r="1.8" fill="white" opacity="0.67"/>
    <circle cx="92.2" cy="190.7" r="0.9" fill="white" opacity="0.30"/>
    <circle cx="86.7" cy="202.7" r="1.4" fill="white" opacity="0.42"/>
    <circle cx="245.4" cy="242.6" r="0.9" fill="white" opacity="0.88"/>
    <circle cx="83.5" cy="28.2" r="1.3" fill="white" opacity="0.82"/>
    <circle cx="177.9" cy="163.0" r="1.2" fill="white" opacity="0.47"/>
    <circle cx="94.0" cy="122.9" r="1.3" fill="white" opacity="0.87"/>
    <circle cx="30.4" cy="80.6" r="1.9" fill="white" opacity="0.69"/>
    <circle cx="30.8" cy="133.7" r="1.5" fill="white" opacity="0.85"/>
    <circle cx="33.6" cy="262.6" r="1.7" fill="white" opacity="0.47"/>
    <circle cx="159.4" cy="241.1" r="0.9" fill="white" opacity="0.72"/>
    <circle cx="166.8" cy="30.4" r="0.9" fill="white" opacity="0.55"/>
    <circle cx="49.1" cy="274.3" r="0.9" fill="white" opacity="0.44"/>
    <circle cx="177.2" cy="157.7" r="1.0" fill="white" opacity="0.50"/>
    <circle cx="149.0" cy="264.6" r="0.6" fill="white" opacity="0.85"/>
    <circle cx="272.6" cy="201.3" r="1.7" fill="white" opacity="0.53"/>
    <circle cx="279.5" cy="217.9" r="1.5" fill="white" opacity="0.57"/>
  </g>
  <defs>
    <radialGradient id="crg1" cx="150" cy="110" r="70" gradientUnits="userSpaceOnUse">
      <stop offset="0%" stop-color="#f59e0b"/>
      <stop offset="100%" stop-color="#0a0a1a"/>
    </radialGradient>
    <radialGradient id="crglow" cx="150" cy="110" r="65" gradientUnits="userSpaceOnUse">
      <stop offset="0%" stop-color="rgba(245,158,11,0.7)"/>
      <stop offset="100%" stop-color="transparent"/>
    </radialGradient>
    <filter id="crf" x="-40%" y="-40%" width="180%" height="180%">
      <feGaussianBlur in="SourceGraphic" stdDeviation="11" result="blur"/>
      <feColorMatrix in="blur" type="matrix" values="1 0 0 0 0  0 1 0 0 0  0 0 1 0 0  0 0 0 2.5 0" result="glow"/>
      <feMerge><feMergeNode in="glow"/><feMergeNode in="SourceGraphic"/></feMerge>
    </filter>
  </defs>
  <circle cx="150" cy="110" r="65" fill="url(#crglow)" opacity="0.3"/>
  <g fill="#1a1a2e" stroke="#ffffff" stroke-opacity="0.15" stroke-width="1">
    <rect x="138.0" y="152.0" width="24.0" height="24.0"/>
    <rect x="138.0" y="176.0" width="24.0" height="32.0"/>
    <rect x="130.0" y="176.0" width="8.0" height="28.0"/>
    <rect x="162.0" y="176.0" width="8.0" height="28.0"/>
    <rect x="138.0" y="208.0" width="11.0" height="28.0"/>
    <rect x="151.0" y="208.0" width="11.0" height="28.0"/>
  </g>
  <rect x="108" y="130" width="84" height="22" rx="4" fill="url(#crg1)" filter="url(#crf)"/>
  <polygon points="110,130 120,130 115,90" fill="#f59e0b" filter="url(#crf)"/>
  <polygon points="130,130 140,130 135,105" fill="#f59e0b" filter="url(#crf)"/>
  <polygon points="150,130 160,130 155,80" fill="#f59e0b" filter="url(#crf)"/>
  <polygon points="170,130 180,130 175,105" fill="#f59e0b" filter="url(#crf)"/>
  <polygon points="190,130 200,130 195,90" fill="#f59e0b" filter="url(#crf)"/>
  <circle cx="128" cy="118" r="6" fill="#fbbf24" filter="url(#crf)"/>
  <circle cx="150" cy="118" r="6" fill="#ffffff" filter="url(#crf)"/>
  <circle cx="172" cy="118" r="6" fill="#fbbf24" filter="url(#crf)"/>
  <rect x="0" y="265" width="300" height="35" fill="#050510" opacity="0.85"/>
  <text x="150" y="281" text-anchor="middle" font-family="Arial,sans-serif" font-size="11" font-weight="bold" fill="#f59e0b">Royal Crown</text>
  <text x="150" y="294" text-anchor="middle" font-family="Arial,sans-serif" font-size="9" fill="#f59e0b">LEGENDARY</text>
  <rect x="1" y="1" width="298" height="298" rx="10" fill="none" stroke="#f59e0b" stroke-width="2" opacity="0.5"/>
</svg>
