<svg xmlns="http://www.w3.org/2000/svg" viewBox="0 0 300 300" width="300" height="300">
  <defs>
    <radialGradient id="bgMain" cx="50%" cy="50%" r="70%">
      <stop offset="0%" stop-color="#0d0d28"/>
      <stop offset="100%" stop-color="#020208"/>
    </radialGradient>
  </defs>
  <rect width="300" height="300" fill="url(#bgMain)"/>
  <g opacity="0.5">
    <circle cx="277.7" cy="275.4" r="0.6" fill="white" opacity="0.35"/>
    <circle cx="243.9" cy="216.1" r="1.5" fill="white" opacity="0.48"/>
    <circle cx="179.7" cy="179.9" r="1.4" fill="white" opacity="0.40"/>
    <circle cx="130.6" cy="120.2" r="1.6" fill="white" opacity="0.90"/>
    <circle cx="275.8" cy="162.4" r="1.2" fill="white" opacity="0.46"/>
    <circle cx="20.1" cy="17.7" r="1.2" fill="white" opacity="0.49"/>
    <circle cx="116.4" cy="259.7" r="1.3" fill="white" opacity="0.64"/>
    <circle cx="76.1" cy="16.7" r="1.0" fill="white" opacity="0.38"/>
    <circle cx="152.9" cy="289.6" r="1.5" fill="white" opacity="0.41"/>
    <circle cx="260.2" cy="233.1" r="1.6" fill="white" opacity="0.84"/>
    <circle cx="223.6" cy="231.1" r="1.0" fill="white" opacity="0.89"/>
    <circle cx="279.3" cy="55.1" r="1.6" fill="white" opacity="0.73"/>
    <circle cx="139.2" cy="158.5" r="1.2" fill="white" opacity="0.85"/>
    <circle cx="150.2" cy="242.8" r="1.0" fill="white" opacity="0.83"/>
    <circle cx="261.9" cy="139.1" r="1.4" fill="white" opacity="0.85"/>
    <circle cx="212.7" cy="146.3" r="0.8" fill="white" opacity="0.49"/>
    <circle cx="205.9" cy="56.5" r="1.9" fill="white" opacity="0.46"/>
    <circle cx="265.2" cy="96.7" r="1.9" fill="white" opacity="0.72"/>
    <circle cx="151.2" cy="155.0" r="1.5" fill="white" opacity="0.65"/>
    <circle cx="97.3" cy="68.2" r="1.3" fill="white" opacity="0.86"/>
    <circle cx="184.5" cy="31.1" r="1.7" fill="white" opacity="0.74"/>
    <circle cx="264.1" cy="63.6" r="1.6" fill="white" opacity="0.34"/>
    <circle cx="192.8" cy="86.5" r="0.8" fill="white" opacity="0.83"/>
    <circle cx="39.8" cy="156.3" r="1.8" fill="white" opacity="0.45"/>
    <circle cx="68.9" cy="256.6" r="1.1" fill="white" opacity="0.73"/>
    <circle cx="18.9" cy="111.5" r="0.8" fill="white" opacity="0.70"/>
    <circle cx="33.2" cy="277.3" r="0.5" fill="white" opacity="0.74"/>
    <circle cx="15.9" cy="81.6" r="1.7" fill="white" opacity="0.39"/>
    <circle cx="61.4" cy="203.6" r="1.1" fill="white" opacity="0.33"/>
    <circle cx="287.2" cy="52.4" r="0.6" fill="white" opacity="0.51"/>
    <circle cx="182.3" cy="217.9" r="0.7" fill="white" opacity="0.50"/>
    <circle cx="18.6" cy="135.6" r="1.6" fill="white" opacity="0.74"/>
    <circle cx="262.6" cy="221.6" r="1.8" fill="white" opacity="0.72"/>
    <circle cx="142.4" cy="73.1" r="1.5" fill="white" opacity="0.49"/>
    <circle cx="38.6" cy="135.4" r="1.8" fill="white" opacity="0.38"/>
  </g>
  <defs>
    <linearGradient id="wgL" x1="0" y1="0" x2="1" y2="0">
      <stop offset="0%" stop-color="#f59e0b" stop-opacity="1"/>
      <stop offset="50%" stop-color="#ef4444" stop-opacity="1"/>
      <stop offset="100%" stop-color="#0a0a18" stop-opacity="0.3"/>
    </linearGradient>
    <linearGradient id="wgR" x1="1" y1="0" x2="0" y2="0">
      <stop offset="0%" stop-color="#f59e0b" stop-opacity="1"/>
      <stop offset="50%" stop-color="#ef4444" stop-opacity="1"/>
      <stop offset="100%" stop-color="#0a0a18" stop-opacity="0.3"/>
    </linearGradient>
    <radialGradient id="wglow" cx="150" cy="165" r="90" gradientUnits="userSpaceOnUse">
      <stop offset="0%" stop-color="rgba(245,158,11,0.7)"/>
      <stop offset="100%" stop-color="transparent"/>
    </radialGradient>
    <filter id="wf" x="-40%" y="-40%" width="180%" height="180%">
      <feGaussianBlur in="SourceGraphic" stdDeviation="12" result="blur"/>
      <feColorMatrix in="blur" type="matrix" values="1 0 0 0 0  0 1 0 0 0  0 0 1 0 0  0 0 0 2.5 0" result="glow"/>
      <feMerge><feMergeNode in="glow"/><feMergeNode in="SourceGraphic"/></feMerge>
    </filter>
  </defs>
  <circle cx="150" cy="165" r="90" fill="url(#wglow)" opacity="0.4"/>
  <path d="M 135 165 C 50 175 50 105 135 145" fill="none" stroke="url(#wgL)" stroke-width="8px" opacity="0.85" filter="url(#wf)"/>
  <path d="M 165 165 C 250 175 250 105 165 145" fill="none" stroke="url(#wgR)" stroke-width="8px" opacity="0.85" filter="url(#wf)"/>
  <path d="M 127 165 C 64 175 64 95 127 140" fill="none" stroke="url(#wgL)" stroke-width="7px" opacity="0.77" filter="url(#wf)"/>
  <path d="M 173 165 C 236 175 236 95 173 140" fill="none" stroke="url(#wgR)" stroke-width="7px" opacity="0.77" filter="url(#wf)"/>
  <path d="M 119 165 C 78 175 78 85 119 135" fill="none" stroke="url(#wgL)" stroke-width="6px" opacity="0.69" filter="url(#wf)"/>
  <path d="M 181 165 C 222 175 222 85 181 135" fill="none" stroke="url(#wgR)" stroke-width="6px" opacity="0.69" filter="url(#wf)"/>
  <path d="M 111 165 C 92 175 92 75 111 130" fill="none" stroke="url(#wgL)" stroke-width="5px" opacity="0.61" filter="url(#wf)"/>
  <path d="M 189 165 C 208 175 208 75 189 130" fill="none" stroke="url(#wgR)" stroke-width="5px" opacity="0.61" filter="url(#wf)"/>
  <path d="M 103 165 C 106 175 106 65 103 125" fill="none" stroke="url(#wgL)" stroke-width="4px" opacity="0.53" filter="url(#wf)"/>
  <path d="M 197 165 C 194 175 194 65 197 125" fill="none" stroke="url(#wgR)" stroke-width="4px" opacity="0.53" filter="url(#wf)"/>
  <rect x="0" y="265" width="300" height="35" fill="#050510" opacity="0.85"/>
  <text x="150" y="281" text-anchor="middle" font-family="Arial,sans-serif" font-size="11" font-weight="bold" fill="#a855f7">Solar Flare Wings</text>
  <text x="150" y="294" text-anchor="middle" font-family="Arial,sans-serif" font-size="9" fill="#a855f7">EPIC</text>
  <rect x="1" y="1" width="298" height="298" rx="10" fill="none" stroke="#a855f7" stroke-width="2" opacity="0.5"/>
</svg>
