<svg xmlns="http://www.w3.org/2000/svg" viewBox="0 0 300 300" width="300" height="300">
  <defs>
    <radialGradient id="bgMain" cx="50%" cy="50%" r="70%">
      <stop offset="0%" stop-color="#0d0d28"/>
      <stop offset="100%" stop-color="#020208"/>
    </radialGradient>
  </defs>
  <rect width="300" height="300" fill="url(#bgMain)"/>
  <g opacity="0.5">
    <circle cx="76.1" cy="38.9" r="1.1" fill="white" opacity="0.39"/>
    <circle cx="28.6" cy="122.4" r="1.9" fill="white" opacity="0.78"/>
    <circle cx="224.2" cy="72.1" r="1.3" fill="white" opacity="0.47"/>
    <circle cx="58.3" cy="39.7" r="0.8" fill="white" opacity="0.86"/>
    <circle cx="242.1" cy="235.9" r="1.7" fill="white" opacity="0.42"/>
    <circle cx="96.8" cy="185.6" r="1.6" fill="white" opacity="0.81"/>
    <circle cx="256.4" cy="34.3" r="1.4" fill="white" opacity="0.70"/>
    <circle cx="151.7" cy="59.8" r="1.2" fill="white" opacity="0.35"/>
    <circle cx="271.7" cy="252.3" r="1.3" fill="white" opacity="0.48"/>
    <circle cx="264.5" cy="170.3" r="1.8" fill="white" opacity="0.81"/>
    <circle cx="152.3" cy="125.9" r="1.4" fill="white" opacity="0.56"/>
    <circle cx="55.2" cy="95.4" r="1.7" fill="white" opacity="0.33"/>
    <circle cx="23.0" cy="185.4" r="0.9" fill="white" opacity="0.62"/>
    <circle cx="141.9" cy="106.0" r="2.0" fill="white" opacity="0.42"/>
    <circle cx="125.6" cy="66.7" r="1.4" fill="white" opacity="0.47"/>
    <circle cx="109.6" cy="219.1" r="1.0" fill="white" opacity="0.64"/>
    <circle cx="263.2" cy="38.3" r="0.6" fill="white" opacity="0.44"/>
    <circle cx="224.2" cy="182.3" r="0.9" fill="white" opacity="0.50"/>
    <circle cx="59.7" cy="138.5" r="0.6" fill="white" opacity="0.72"/>
    <circle cx="260.9" cy="277.3" r="1.6" fill="white" opacity="0.88"/>
    <circle cx="15.1" cy="90.9" r="1.9" fill="white" opacity="0.77"/>
    <circle cx="124.9" cy="274.1" r="1.4" fill="white" opacity="0.79"/>
    <circle cx="92.2" cy="63.6" r="1.2" fill="white" opacity="0.38"/>
    <circle cx="116.9" cy="279.3" r="1.0" fill="white" opacity="0.31"/>
    <circle cx="22.5" cy="57.5" r="1.7" fill="white" opacity="0.52"/>
    <circle cx="91.3" cy="37.2" r="2.0" fill="white" opacity="0.55"/>
    <circle cx="68.2" cy="26.6" r="0.6" fill="white" opacity="0.40"/>
    <circle cx="199.5" cy="51.9" r="0.6" fill="white" opacity="0.59"/>
    <circle cx="79.7" cy="289.3" r="0.7" fill="white" opacity="0.62"/>
    <circle cx="226.7" cy="124.6" r="2.0" fill="white" opacity="0.59"/>
    <circle cx="77.7" cy="125.0" r="0.6" fill="white" opacity="0.55"/>
    <circle cx="79.6" cy="259.0" r="1.7" fill="white" opacity="0.60"/>
    <circle cx="18.9" cy="81.2" r="0.9" fill="white" opacity="0.42"/>
    <circle cx="74.8" cy="253.5" r="0.7" fill="white" opacity="0.33"/>
    <circle cx="269.8" cy="168.3" r="2.0" fill="white" opacity="0.54"/>
  </g>
  <defs>
    <linearGradient id="wgL" x1="0" y1="0" x2="1" y2="0">
      <stop offset="0%" stop-color="#e879f9" stop-opacity="1"/>
      <stop offset="50%" stop-color="#c026d3" stop-opacity="1"/>
      <stop offset="100%" stop-color="#0a0a18" stop-opacity="0.3"/>
    </linearGradient>
    <linearGradient id="wgR" x1="1" y1="0" x2="0" y2="0">
      <stop offset="0%" stop-color="#e879f9" stop-opacity="1"/>
      <stop offset="50%" stop-color="#c026d3" stop-opacity="1"/>
      <stop offset="100%" stop-color="#0a0a18" stop-opacity="0.3"/>
    </linearGradient>
    <radialGradient id="wglow" cx="150" cy="165" r="90" gradientUnits="userSpaceOnUse">
      <stop offset="0%" stop-color="rgba(192,38,211,0.65)"/>
      <stop offset="100%" stop-color="transparent"/>
    </radialGradient>
    <filter id="wf" x="-40%" y="-40%" width="180%" height="180%">
      <feGaussianBlur in="SourceGraphic" stdDeviation="12" result="blur"/>
      <feColorMatrix in="blur" type="matrix" values="1 0 0 0 0  0 1 0 0 0  0 0 1 0 0  0 0 0 2.5 0" result="glow"/>
      <feMerge><feMergeNode in="glow"/><feMergeNode in="SourceGraphic"/></feMerge>
    </filter>
  </defs>
  <circle cx="150" cy="165" r="90" fill="url(#wglow)" opacity="0.4"/>
  <line x1="150.0" y1="165.0" x2="195.0" y2="87.1" stroke="url(#wgL)" stroke-width="10.0" opacity="0.80" stroke-linecap="round" filter="url(#wf)"/>
  <line x1="150.0" y1="165.0" x2="170.7" y2="87.7" stroke="url(#wgL)" stroke-width="9.0" opacity="0.75" stroke-linecap="round" filter="url(#wf)"/>
  <line x1="150.0" y1="165.0" x2="150.0" y2="95.0" stroke="url(#wgL)" stroke-width="8.0" opacity="0.70" stroke-linecap="round" filter="url(#wf)"/>
  <line x1="150.0" y1="165.0" x2="81.1" y2="107.1" stroke="url(#wgR)" stroke-width="10.0" opacity="0.80" stroke-linecap="round" filter="url(#wf)"/>
  <line x1="150.0" y1="165.0" x2="104.1" y2="99.5" stroke="url(#wgR)" stroke-width="9.0" opacity="0.75" stroke-linecap="round" filter="url(#wf)"/>
  <line x1="150.0" y1="165.0" x2="126.1" y2="99.2" stroke="url(#wgR)" stroke-width="8.0" opacity="0.70" stroke-linecap="round" filter="url(#wf)"/>
  <line x1="150.0" y1="165.0" x2="176.7" y2="91.7" stroke="url(#wgL)" stroke-width="8.5" opacity="0.74" stroke-linecap="round" filter="url(#wf)"/>
  <line x1="150.0" y1="165.0" x2="155.9" y2="97.3" stroke="url(#wgL)" stroke-width="7.5" opacity="0.69" stroke-linecap="round" filter="url(#wf)"/>
  <line x1="150.0" y1="165.0" x2="139.9" y2="107.9" stroke="url(#wgL)" stroke-width="6.5" opacity="0.64" stroke-linecap="round" filter="url(#wf)"/>
  <line x1="150.0" y1="165.0" x2="82.5" y2="126.0" stroke="url(#wgR)" stroke-width="8.5" opacity="0.74" stroke-linecap="round" filter="url(#wf)"/>
  <line x1="150.0" y1="165.0" x2="101.9" y2="116.9" stroke="url(#wgR)" stroke-width="7.5" opacity="0.69" stroke-linecap="round" filter="url(#wf)"/>
  <line x1="150.0" y1="165.0" x2="121.0" y2="114.8" stroke="url(#wgR)" stroke-width="6.5" opacity="0.64" stroke-linecap="round" filter="url(#wf)"/>
  <line x1="150.0" y1="165.0" x2="161.5" y2="100.0" stroke="url(#wgL)" stroke-width="7.0" opacity="0.68" stroke-linecap="round" filter="url(#wf)"/>
  <line x1="150.0" y1="165.0" x2="145.1" y2="109.2" stroke="url(#wgL)" stroke-width="6.0" opacity="0.63" stroke-linecap="round" filter="url(#wf)"/>
  <line x1="150.0" y1="165.0" x2="134.3" y2="121.8" stroke="url(#wgL)" stroke-width="5.0" opacity="0.58" stroke-linecap="round" filter="url(#wf)"/>
  <line x1="150.0" y1="165.0" x2="88.0" y2="142.4" stroke="url(#wgR)" stroke-width="7.0" opacity="0.68" stroke-linecap="round" filter="url(#wf)"/>
  <line x1="150.0" y1="165.0" x2="104.1" y2="132.9" stroke="url(#wgR)" stroke-width="6.0" opacity="0.63" stroke-linecap="round" filter="url(#wf)"/>
  <line x1="150.0" y1="165.0" x2="120.4" y2="129.8" stroke="url(#wgR)" stroke-width="5.0" opacity="0.58" stroke-linecap="round" filter="url(#wf)"/>
  <line x1="150.0" y1="165.0" x2="150.0" y2="111.0" stroke="url(#wgL)" stroke-width="5.5" opacity="0.62" stroke-linecap="round" filter="url(#wf)"/>
  <line x1="150.0" y1="165.0" x2="138.6" y2="122.5" stroke="url(#wgL)" stroke-width="4.5" opacity="0.57" stroke-linecap="round" filter="url(#wf)"/>
  <line x1="150.0" y1="165.0" x2="133.0" y2="135.6" stroke="url(#wgL)" stroke-width="3.5" opacity="0.52" stroke-linecap="round" filter="url(#wf)"/>
  <line x1="150.0" y1="165.0" x2="96.8" y2="155.6" stroke="url(#wgR)" stroke-width="5.5" opacity="0.62" stroke-linecap="round" filter="url(#wf)"/>
  <line x1="150.0" y1="165.0" x2="110.1" y2="146.4" stroke="url(#wgR)" stroke-width="4.5" opacity="0.57" stroke-linecap="round" filter="url(#wf)"/>
  <line x1="150.0" y1="165.0" x2="124.0" y2="143.1" stroke="url(#wgR)" stroke-width="3.5" opacity="0.52" stroke-linecap="round" filter="url(#wf)"/>
  <line x1="150.0" y1="165.0" x2="142.7" y2="123.6" stroke="url(#wgL)" stroke-width="4.0" opacity="0.56" stroke-linecap="round" filter="url(#wf)"/>
  <line x1="150.0" y1="165.0" x2="136.5" y2="136.0" stroke="url(#wgL)" stroke-width="3.0" opacity="0.51" stroke-linecap="round" filter="url(#wf)"/>
  <line x1="150.0" y1="165.0" x2="135.9" y2="148.1" stroke="url(#wgL)" stroke-width="3.0" opacity="0.46" stroke-linecap="round" filter="url(#wf)"/>
  <line x1="150.0" y1="165.0" x2="108.0" y2="165.0" stroke="url(#wgR)" stroke-width="4.0" opacity="0.56" stroke-linecap="round" filter="url(#wf)"/>
  <line x1="150.0" y1="165.0" x2="119.1" y2="156.7" stroke="url(#wgR)" stroke-width="3.0" opacity="0.51" stroke-linecap="round" filter="url(#wf)"/>
  <line x1="150.0" y1="165.0" x2="130.9" y2="154.0" stroke="url(#wgR)" stroke-width="3.0" opacity="0.46" stroke-linecap="round" filter="url(#wf)"/>
  <line x1="150.0" y1="165.0" x2="139.7" y2="136.8" stroke="url(#wgL)" stroke-width="3.0" opacity="0.50" stroke-linecap="round" filter="url(#wf)"/>
  <line x1="150.0" y1="165.0" x2="138.5" y2="148.6" stroke="url(#wgL)" stroke-width="3.0" opacity="0.45" stroke-linecap="round" filter="url(#wf)"/>
  <line x1="150.0" y1="165.0" x2="142.3" y2="158.6" stroke="url(#wgL)" stroke-width="3.0" opacity="0.40" stroke-linecap="round" filter="url(#wf)"/>
  <line x1="150.0" y1="165.0" x2="120.5" y2="170.2" stroke="url(#wgR)" stroke-width="3.0" opacity="0.50" stroke-linecap="round" filter="url(#wf)"/>
  <line x1="150.0" y1="165.0" x2="130.1" y2="163.3" stroke="url(#wgR)" stroke-width="3.0" opacity="0.45" stroke-linecap="round" filter="url(#wf)"/>
  <line x1="150.0" y1="165.0" x2="140.6" y2="161.6" stroke="url(#wgR)" stroke-width="3.0" opacity="0.40" stroke-linecap="round" filter="url(#wf)"/>
  <rect x="0" y="265" width="300" height="35" fill="#050510" opacity="0.85"/>
  <text x="150" y="281" text-anchor="middle" font-family="Arial,sans-serif" font-size="11" font-weight="bold" fill="#f59e0b">Storm Wings</text>
  <text x="150" y="294" text-anchor="middle" font-family="Arial,sans-serif" font-size="9" fill="#f59e0b">LEGENDARY</text>
  <rect x="1" y="1" width="298" height="298" rx="10" fill="none" stroke="#f59e0b" stroke-width="2" opacity="0.5"/>
</svg>
