<svg xmlns="http://www.w3.org/2000/svg" viewBox="0 0 300 300" width="300" height="300">
  <defs>
    <radialGradient id="bgMain" cx="50%" cy="50%" r="70%">
      <stop offset="0%" stop-color="#0d0d28"/>
      <stop offset="100%" stop-color="#020208"/>
    </radialGradient>
  </defs>
  <rect width="300" height="300" fill="url(#bgMain)"/>
  <g opacity="0.5">
    <circle cx="170.0" cy="130.1" r="1.4" fill="white" opacity="0.42"/>
    <circle cx="237.7" cy="240.6" r="1.5" fill="white" opacity="0.40"/>
    <circle cx="155.8" cy="101.8" r="0.9" fill="white" opacity="0.87"/>
    <circle cx="289.0" cy="22.5" r="1.8" fill="white" opacity="0.66"/>
    <circle cx="116.8" cy="89.4" r="1.5" fill="white" opacity="0.57"/>
    <circle cx="202.0" cy="195.3" r="0.7" fill="white" opacity="0.76"/>
    <circle cx="285.1" cy="281.4" r="1.4" fill="white" opacity="0.33"/>
    <circle cx="11.1" cy="47.5" r="1.9" fill="white" opacity="0.48"/>
    <circle cx="112.5" cy="261.5" r="1.0" fill="white" opacity="0.63"/>
    <circle cx="132.1" cy="28.2" r="1.4" fill="white" opacity="0.81"/>
    <circle cx="53.8" cy="72.8" r="1.1" fill="white" opacity="0.32"/>
    <circle cx="149.0" cy="239.0" r="1.5" fill="white" opacity="0.62"/>
    <circle cx="249.4" cy="51.9" r="1.4" fill="white" opacity="0.52"/>
    <circle cx="178.4" cy="41.6" r="1.7" fill="white" opacity="0.36"/>
    <circle cx="56.6" cy="236.1" r="1.9" fill="white" opacity="0.56"/>
    <circle cx="125.9" cy="78.7" r="0.9" fill="white" opacity="0.67"/>
    <circle cx="60.0" cy="43.5" r="1.2" fill="white" opacity="0.40"/>
    <circle cx="191.6" cy="239.9" r="1.7" fill="white" opacity="0.59"/>
    <circle cx="107.3" cy="131.7" r="0.5" fill="white" opacity="0.73"/>
    <circle cx="102.9" cy="99.4" r="0.6" fill="white" opacity="0.57"/>
    <circle cx="173.2" cy="119.4" r="1.8" fill="white" opacity="0.70"/>
    <circle cx="77.6" cy="157.1" r="1.9" fill="white" opacity="0.61"/>
    <circle cx="178.6" cy="27.6" r="1.2" fill="white" opacity="0.58"/>
    <circle cx="122.3" cy="127.7" r="1.4" fill="white" opacity="0.62"/>
    <circle cx="147.2" cy="56.4" r="1.2" fill="white" opacity="0.88"/>
    <circle cx="126.2" cy="19.9" r="0.5" fill="white" opacity="0.62"/>
    <circle cx="24.2" cy="36.0" r="0.7" fill="white" opacity="0.57"/>
    <circle cx="288.0" cy="145.8" r="1.2" fill="white" opacity="0.56"/>
    <circle cx="150.3" cy="135.2" r="1.6" fill="white" opacity="0.84"/>
    <circle cx="205.4" cy="128.5" r="1.5" fill="white" opacity="0.85"/>
    <circle cx="53.0" cy="76.5" r="1.4" fill="white" opacity="0.71"/>
    <circle cx="189.9" cy="174.8" r="1.7" fill="white" opacity="0.59"/>
    <circle cx="236.1" cy="279.5" r="1.2" fill="white" opacity="0.82"/>
    <circle cx="211.1" cy="258.8" r="0.6" fill="white" opacity="0.85"/>
    <circle cx="224.7" cy="279.5" r="2.0" fill="white" opacity="0.47"/>
  </g>
  <defs>
    <linearGradient id="cg1" x1="0" y1="0" x2="0" y2="1">
      <stop offset="0%" stop-color="#1a0a00" stop-opacity="1"/>
      <stop offset="50%" stop-color="#f59e0b" stop-opacity="0.9"/>
      <stop offset="100%" stop-color="#050510" stop-opacity="0.6"/>
    </linearGradient>
    <radialGradient id="cglow" cx="150" cy="200" r="100" gradientUnits="userSpaceOnUse">
      <stop offset="0%" stop-color="rgba(245,158,11,0.6)"/>
      <stop offset="100%" stop-color="transparent"/>
    </radialGradient>
    <filter id="cf" x="-40%" y="-40%" width="180%" height="180%">
      <feGaussianBlur in="SourceGraphic" stdDeviation="10" result="blur"/>
      <feColorMatrix in="blur" type="matrix" values="1 0 0 0 0  0 1 0 0 0  0 0 1 0 0  0 0 0 2 0" result="glow"/>
      <feMerge><feMergeNode in="glow"/><feMergeNode in="SourceGraphic"/></feMerge>
    </filter>
  </defs>
  <ellipse cx="150" cy="200" rx="100" ry="80" fill="url(#cglow)" opacity="0.35"/>
  <polygon points="120,95 180,95 210,270 90,270" fill="url(#cg1)" filter="url(#cf)"/>
  <line x1="120" y1="95" x2="150" y2="110" stroke="#1a0a00" stroke-width="2" opacity="0.7"/>
  <line x1="180" y1="95" x2="150" y2="110" stroke="#1a0a00" stroke-width="2" opacity="0.7"/>
  <polygon points="90,107 98,115 90,123 82,115" fill="none" stroke="#1a0a00" stroke-width="1" opacity="0.3"/>
  <polygon points="115,107 123,115 115,123 107,115" fill="none" stroke="#1a0a00" stroke-width="1" opacity="0.3"/>
  <polygon points="140,107 148,115 140,123 132,115" fill="none" stroke="#1a0a00" stroke-width="1" opacity="0.3"/>
  <polygon points="165,107 173,115 165,123 157,115" fill="none" stroke="#1a0a00" stroke-width="1" opacity="0.3"/>
  <polygon points="102,139 110,147 102,155 94,147" fill="none" stroke="#1a0a00" stroke-width="1" opacity="0.3"/>
  <polygon points="127,139 135,147 127,155 119,147" fill="none" stroke="#1a0a00" stroke-width="1" opacity="0.3"/>
  <polygon points="152,139 160,147 152,155 144,147" fill="none" stroke="#1a0a00" stroke-width="1" opacity="0.3"/>
  <polygon points="177,139 185,147 177,155 169,147" fill="none" stroke="#1a0a00" stroke-width="1" opacity="0.3"/>
  <polygon points="90,171 98,179 90,187 82,179" fill="none" stroke="#1a0a00" stroke-width="1" opacity="0.3"/>
  <polygon points="115,171 123,179 115,187 107,179" fill="none" stroke="#1a0a00" stroke-width="1" opacity="0.3"/>
  <polygon points="140,171 148,179 140,187 132,179" fill="none" stroke="#1a0a00" stroke-width="1" opacity="0.3"/>
  <polygon points="165,171 173,179 165,187 157,179" fill="none" stroke="#1a0a00" stroke-width="1" opacity="0.3"/>
  <polygon points="102,203 110,211 102,219 94,211" fill="none" stroke="#1a0a00" stroke-width="1" opacity="0.3"/>
  <polygon points="127,203 135,211 127,219 119,211" fill="none" stroke="#1a0a00" stroke-width="1" opacity="0.3"/>
  <polygon points="152,203 160,211 152,219 144,211" fill="none" stroke="#1a0a00" stroke-width="1" opacity="0.3"/>
  <polygon points="177,203 185,211 177,219 169,211" fill="none" stroke="#1a0a00" stroke-width="1" opacity="0.3"/>
  <polygon points="90,235 98,243 90,251 82,243" fill="none" stroke="#1a0a00" stroke-width="1" opacity="0.3"/>
  <polygon points="115,235 123,243 115,251 107,243" fill="none" stroke="#1a0a00" stroke-width="1" opacity="0.3"/>
  <polygon points="140,235 148,243 140,251 132,243" fill="none" stroke="#1a0a00" stroke-width="1" opacity="0.3"/>
  <polygon points="165,235 173,243 165,251 157,243" fill="none" stroke="#1a0a00" stroke-width="1" opacity="0.3"/>
  <rect x="0" y="265" width="300" height="35" fill="#050510" opacity="0.85"/>
  <text x="150" y="281" text-anchor="middle" font-family="Arial,sans-serif" font-size="11" font-weight="bold" fill="#f59e0b">Void Emperor Cloak</text>
  <text x="150" y="294" text-anchor="middle" font-family="Arial,sans-serif" font-size="9" fill="#fbbf24">EXCLUSIVE</text>
  <rect x="1" y="1" width="298" height="298" rx="10" fill="none" stroke="#f59e0b" stroke-width="2" opacity="0.5"/>
</svg>
