<svg xmlns="http://www.w3.org/2000/svg" viewBox="0 0 300 300" width="300" height="300">
  <defs>
    <radialGradient id="bgMain" cx="50%" cy="50%" r="70%">
      <stop offset="0%" stop-color="#0d0d28"/>
      <stop offset="100%" stop-color="#020208"/>
    </radialGradient>
  </defs>
  <rect width="300" height="300" fill="url(#bgMain)"/>
  <g opacity="0.5">
    <circle cx="138.4" cy="255.8" r="0.5" fill="white" opacity="0.47"/>
    <circle cx="279.3" cy="196.0" r="0.7" fill="white" opacity="0.51"/>
    <circle cx="256.3" cy="133.4" r="0.5" fill="white" opacity="0.84"/>
    <circle cx="46.4" cy="189.6" r="1.4" fill="white" opacity="0.58"/>
    <circle cx="279.4" cy="59.4" r="1.4" fill="white" opacity="0.37"/>
    <circle cx="280.4" cy="50.5" r="1.3" fill="white" opacity="0.80"/>
    <circle cx="257.3" cy="37.3" r="1.8" fill="white" opacity="0.81"/>
    <circle cx="98.4" cy="221.8" r="0.8" fill="white" opacity="0.39"/>
    <circle cx="55.5" cy="96.4" r="1.7" fill="white" opacity="0.58"/>
    <circle cx="286.9" cy="260.3" r="0.8" fill="white" opacity="0.56"/>
    <circle cx="28.0" cy="173.4" r="1.4" fill="white" opacity="0.65"/>
    <circle cx="34.8" cy="181.2" r="0.7" fill="white" opacity="0.80"/>
    <circle cx="139.2" cy="37.8" r="2.0" fill="white" opacity="0.87"/>
    <circle cx="102.9" cy="270.3" r="0.9" fill="white" opacity="0.62"/>
    <circle cx="170.4" cy="231.3" r="0.6" fill="white" opacity="0.32"/>
    <circle cx="51.6" cy="117.8" r="1.7" fill="white" opacity="0.73"/>
    <circle cx="40.2" cy="215.6" r="0.8" fill="white" opacity="0.31"/>
    <circle cx="144.2" cy="264.8" r="1.9" fill="white" opacity="0.56"/>
    <circle cx="233.5" cy="64.2" r="0.7" fill="white" opacity="0.88"/>
    <circle cx="197.9" cy="58.4" r="1.0" fill="white" opacity="0.76"/>
    <circle cx="26.1" cy="62.3" r="1.7" fill="white" opacity="0.44"/>
    <circle cx="127.4" cy="130.5" r="1.2" fill="white" opacity="0.49"/>
    <circle cx="79.6" cy="234.3" r="1.6" fill="white" opacity="0.87"/>
    <circle cx="21.7" cy="54.2" r="1.8" fill="white" opacity="0.49"/>
    <circle cx="232.0" cy="94.9" r="1.1" fill="white" opacity="0.70"/>
    <circle cx="129.4" cy="157.0" r="0.6" fill="white" opacity="0.81"/>
    <circle cx="183.3" cy="81.7" r="1.2" fill="white" opacity="0.68"/>
    <circle cx="271.2" cy="16.1" r="1.9" fill="white" opacity="0.65"/>
    <circle cx="21.5" cy="112.3" r="1.6" fill="white" opacity="0.37"/>
    <circle cx="174.8" cy="167.0" r="1.4" fill="white" opacity="0.32"/>
    <circle cx="15.4" cy="280.2" r="0.7" fill="white" opacity="0.41"/>
    <circle cx="169.4" cy="15.1" r="1.6" fill="white" opacity="0.76"/>
    <circle cx="104.2" cy="178.5" r="1.2" fill="white" opacity="0.71"/>
    <circle cx="59.2" cy="18.2" r="0.6" fill="white" opacity="0.86"/>
    <circle cx="285.9" cy="84.1" r="1.6" fill="white" opacity="0.44"/>
  </g>
  <defs>
    <radialGradient id="sg1" cx="150" cy="175" r="100" gradientUnits="userSpaceOnUse">
      <stop offset="0%" stop-color="#1a0a3e"/>
      <stop offset="100%" stop-color="#0a0a1a"/>
    </radialGradient>
    <radialGradient id="sglow" cx="150" cy="175" r="90" gradientUnits="userSpaceOnUse">
      <stop offset="0%" stop-color="rgba(245,158,11,0.65)"/>
      <stop offset="100%" stop-color="transparent"/>
    </radialGradient>
    <filter id="sf" x="-40%" y="-40%" width="180%" height="180%">
      <feGaussianBlur in="SourceGraphic" stdDeviation="10" result="blur"/>
      <feColorMatrix in="blur" type="matrix" values="1 0 0 0 0  0 1 0 0 0  0 0 1 0 0  0 0 0 2.2 0" result="glow"/>
      <feMerge><feMergeNode in="glow"/><feMergeNode in="SourceGraphic"/></feMerge>
    </filter>
  </defs>
  <circle cx="150" cy="175" r="95" fill="url(#sglow)" opacity="0.2"/>
  <g fill="#0d0d25" stroke="#1a0a3e" stroke-opacity="0.6" stroke-width="1">
    <rect x="138.0" y="117.0" width="24.0" height="24.0"/>
    <rect x="138.0" y="141.0" width="24.0" height="32.0"/>
    <rect x="130.0" y="141.0" width="8.0" height="28.0"/>
    <rect x="162.0" y="141.0" width="8.0" height="28.0"/>
    <rect x="138.0" y="173.0" width="11.0" height="28.0"/>
    <rect x="151.0" y="173.0" width="11.0" height="28.0"/>
  </g>
  <rect x="128" y="115" width="44" height="42" rx="3" fill="url(#sg1)" filter="url(#sf)" opacity="0.9"/>
  <ellipse cx="124" cy="110" rx="14" ry="10" fill="#1a0a3e" filter="url(#sf)" opacity="0.9"/>
  <ellipse cx="176" cy="110" rx="14" ry="10" fill="#1a0a3e" filter="url(#sf)" opacity="0.9"/>
  <rect x="130" y="155" width="40" height="8" rx="2" fill="#f59e0b" opacity="0.9"/>
  <rect x="130" y="185" width="16" height="10" rx="2" fill="#1a0a3e" opacity="0.8"/>
  <rect x="154"  y="185" width="16" height="10" rx="2" fill="#1a0a3e" opacity="0.8"/>
  <circle cx="150" cy="127" r="7" fill="#f59e0b" filter="url(#sf)"/>
  <rect x="0" y="265" width="300" height="35" fill="#050510" opacity="0.85"/>
  <text x="150" y="281" text-anchor="middle" font-family="Arial,sans-serif" font-size="11" font-weight="bold" fill="#f59e0b">Void Emperor Suit</text>
  <text x="150" y="294" text-anchor="middle" font-family="Arial,sans-serif" font-size="9" fill="#fbbf24">EXCLUSIVE</text>
  <rect x="1" y="1" width="298" height="298" rx="10" fill="none" stroke="#f59e0b" stroke-width="2" opacity="0.5"/>
</svg>
